<mxfile host="Electron" agent="Mozilla/5.0 (Windows NT 10.0; Win64; x64) AppleWebKit/537.36 (KHTML, like Gecko) draw.io/24.7.8 Chrome/128.0.6613.36 Electron/32.0.1 Safari/537.36" version="24.7.8">
  <diagram name="Seite-1" id="boYtLbVZ6WQKFiRwF0dF">
    <mxGraphModel dx="2100" dy="2411" grid="1" gridSize="10" guides="1" tooltips="1" connect="1" arrows="1" fold="1" page="1" pageScale="1" pageWidth="827" pageHeight="1169" math="0" shadow="0">
      <root>
        <mxCell id="0" />
        <mxCell id="1" parent="0" />
        <mxCell id="ZL04CsFw8S_J0OX8PgW3-28" value="" style="group;rotation=90;" parent="1" vertex="1" connectable="0">
          <mxGeometry x="695" y="290" width="200" height="118.14999999999998" as="geometry" />
        </mxCell>
        <mxCell id="ZL04CsFw8S_J0OX8PgW3-29" value="" style="shape=image;aspect=fixed;image=data:image/png,iVBORw0KGgoAAAANSUhEUgAAARkAAACmCAIAAABhmWxUAAAACXBIWXMAAA7EAAAOxAGVKw4bAAAgAElEQVR4nO2deZQcx33ff9V399zH3sACi93F4iAIgAIvgAQpkuIlipJJ6rIsK5aip+hIHDuO3lPip1jW80vyEkuJXyz52U+R9ERHYihRCm9LlEiRJkiAJO6DAHEssPfs7NzTd1fljwEWEIDt6Z3p2Z0Z1Oevnenu6pre+nb96le/+hXq+dg6oFAodcMsdwUolDaBaolC8QeqJQrFH6iWKBR/oFqiUPyBaolC8QeqJQrFH6iWKBR/oFqiUPyBaolC8QeqJQrFH6iWKBR/oFqiUPyBaolC8Qeu0TfoCAYkjuuNhAYTsco3W1b06JZ9Kp2xHAcACrrxbio9V9aymtboylDahogkhSVhKJnoCQcr3wwm4yFJPDY9a9g2AIznC5P5Yl43ZkvlpakSatz6pVXxyPtW9A7EYzLPhWXJ5UzTdlKl8lxZ3Ts+NZrJaZbVoCpR2oChZHxdZ3JVPBaVxUi1dpVVtZli6dB06uj0bOXd3TgaoqW4In9ww9pNvV3nPxNAFw4FTZnFLAA4rFPitQvHYf6MAxPTP957iBBCfK+WZ9auGPrU3Y99/sHPLF8VWozXj+z+2vf+8uTE6YbehUHo/UOr71s/fP7zJe1KdkTB4it/56XSheMX29VYNv+zg8emCoXGNSyftSTz/K2rV96+ZlVA5AGAc1iesKItyLYo2fxVL1E5w2EcjTMN1rJZBwAwJq+eGt07MTVdKPlYN4+EldDPv/H4+v61S3/rVucL3/6TZ958sRElR2VpXWfy/UMDsYAMACxmJIfnHV5wuIB19a7JZG2DNVXesJFjcjYAEEL2jU+9dOJ0uqw2opJsaGPSr7L6IqHHNm+8aVWfwLEAELDEpBYJmrJiixxmF7qKx5zo8Iolyo7IEsZibGCgPxZd25Eczxfymu5X9TzyR/d96rGdDy/xTduDFR29P3vtaQf7bEolAvIntm66qX9FQBQAIGjKcT0UNgOyLQp4wQE/SxjR4RVbCtgSi1mTswBBTyQ03JEoGkaqAYMo37TUEw595qYtfdEwIiBgrkOLRPUgSxjmYj/sBgLEEka2haAlOwjbrK2I/HXdneey+bxuLKW998Sff5/nGu6SaUsyxezTb7ygGX6+/uKK/Mj164c6EixCsiN0lWNhU+Ewizy3K4YwkiMotmizjoNwQOQ3dndqljWeL/pYT/DLJz6YjP/hjZtjigwAYVPpKcVlS6ytKBYzSTUSMQIMQYrAf+7mG25ZtcKXSlJajqFk/I/vuGVtZxIAwmYgoYYFp8bXnODw3aV4TA+ymOFY5t6RoZv7+3ytrB8+8aGOxEc3b4gpMouZsKlEjAAint4ZC4EAokZQtsWpYIbn2Ac2DE8WiqOZXP1VrQHV0J7652eX5dbNz4ZVIzcMXd+gwuOK/PB1IzLPA0BSiwQNyWNf5ELYUDjCZqWiIsJDG0cknnvl5KgPdQWA+rUk8/yNK3tjiswQlNDCCw0EFwsiSLKF3lJiRsmKHPfpbZt/sGf/WC7vS+GLIl8ufPXvv770920JvvihzzZISyLHfmTTuu5wCBGIGaGQIftSLAIUMCXJFsZDswLHbl/d/+5MeqZY8mUQUa+N98j167eu6AGAkKnItuBHlS4i2nzUCCKCQpJ4z9o1FZcG5Vpg5+DqdV0dABA2AmFD8bdwBjNxLcwQFFWkj23dKAtX9zAvuth6Lh7uSGzu6wYAxRZjWpAh/kckhUw5ZMoAsK4rubmnq+r5lDZgdTx69/AaAJBtIWYE6xwyXAkCCJpyyFQAYEU0srW325dia2/9Ms89uH4YAHiHS6jh+m3Zq4IISmhhHrMIofvXD0s89bC1ORzD3Dm4mmEQi5mEGvZdSBUQQFwLSbYAAB++fr3C+9A11dg0EcANK3q7QkFEIGCJLK6uST4QkqIJpauP5QUAsHVNS08b+YxZKlS9NqGGp4PZkCTeM7zm2aMnaqszpSUYSsYHEjEACFgSt/D00TyIYYI9/WIkJoSilW+K42csraxn01AtxiGqB1OBLEbkgQ3Dzx45bth1zYzVqCWGQf2xCMcyDGYClly1U4qsXrti+z2IYRDDAkIAAIQQ7BCMJ958OXf6mPvloiMolqTy+rqu5BujY3MqjYJtTziGuX/9sCzwFZ9w1S5J6exdffeHGZYFhkHo/As9PryREHLmVz9XU5Pul4sOL9miyuuDyXhEllLFuiZwa7TxgoJQcTnIjuju8mcFsWfbzr5b72Z4AbHceSEBAEKI5RheWHn7fQP3/B6vBN1qSZBsC4hARJZ6IqHa6kxpCRSBBwDR4flqU0ldW25dc++jrCAilpsXEgAglmM4fvCBj628/X4hHHUpgSFIsUREUDKgrLmwjqFmatTScEei8kdED7ifuXLng8mNN7CC29RtsG9V3/a7L8rsagRMkSGMyHH90ShyPZPSugwkYlFZAoCYVuWN2bNtZ+fmmxHr5tqNrlnXs22ne7uSbYEhCAA6gwGmvnZVo5a29HUDgOBw7p1ScuMNob5VXgoM9Q1EV7uFk7LkfNjIhu4OlmqpTblreKDyh0ugHQAoHT3JjTd4KTC8ck1scL3LCRxmRYcHgKFkgmXqckTXeHElrENxDRQSw7HY4AbvZa7c+YAYjbuc0KFGAKAzFKD9UrsymIwDQNy1U2JFqWvrdu9lrthxb6DLLVxItkUA6A4H6+yXavE9rIxGLq3EQoiRuBRbXOBsbM366b2vVz3t+//+fyHUKOe4wPs843ztsKpz5d/98bdM2665hIkjT1Y9R050BTp7F1VsdM368szEQkcDpjQnFwAgGZAn6gh4raVFVkLfqyKEIostWQiGXY5yznnjeOem7RxHW3zTEZQDO667pZ4SHj/yJACwC6/QAQCG492HSVciBMOsIDqmcdWj7IUYgzXJRD1aamDuFD64aIcbpwQ5acGAEY7QGKJrAs41gCayatjl6FVhBIFpvLnRXHmIhFCED1CXN8UNIbxoe2dpaKCWyOLtZnVmQpubWbBAWMYcEJRmYfbgnsVeQjAmGDeiMpfSwPA2dXZ6sZc4rhmILPa8OHe/+w5iGmXv3bJuG1Ofb/SapayrR88et5x600g5jFu7J45DHGdRQyZbLdlawzN71aKl0+mMl9NsQ7V11WX8cyVmyW3BH0bn+6Uv/c2f2U6jXjPvfPdlSfBnFda1xtjsxJ989z9ki7Wv2vzaXTcBgI3c4uJs07ANnVeqBAlcip5Neznt4MSi3/6XUouWzAt5xjTOlBZes6Rn0sXx0diQ1ymm0tTY7KG3XU6wGQcAbAfnSvnG5TpbzmRiLY6DnXw5n3V9IbpjWLbIcw7j9s/V0tOZ4we8TzHpubmUq1mYlc+nu9Lr8OZDzeOlw1MpAJhPcHdVsG3N7Nvl8ZVglYuTb/7GrTREMlIRAE6mM5g03PalLAvj+QIA5MUqObcy7x3x3q7O/PIp93MM1gKAiVyhznZVo5Z2nTkHADbraJzpcpqllibefLnqz8a2Nf32a0Yh63YOOv87j83MOpj2He3J/3nnYOUPg3MbdNla+fSLT1rVhkC2rk28+Rv3kZLF2CZjAcB76bk621WNWjqXzRd1AwDKQpXlD2pq4uzLz+RHT9j6Vc4kjlOaOnfq+Sdyo1VWJRXEssNg03ZKhpt6KS2NZtsFzQCAvFB2d9s6pnHy6X+cO34Q21dRHbZMdXZq7NXni+Nn3O9ocBZGxHKciVwR12ff1+jHszE+ODmzY02/yhkmawmO27JEs5gf3/UrJdkd6OoTo0kxHBWC4fLMhKWVSxNnC2OnSbXshA7CBmsDwFxZPZtdnoRElCXAweTA5PTtg6s03jA4y2U0DgC2rk6++ZvSxKgU75RiyUBnLyFYm0s5upY/d1JNTztXe31fCka4zOsEkbmyNlp3u6pRS5iQ46n0DSt6ZIEv87q7lgAAW1Zpaqw0NVbb7QzW1DkTAE7MzhX0q0eCUNoAQsiJ2bltK3tlgS/xmmjzVZeZFsZOF8ZqzGNe4nWVNwDgeCpdf4bg2idSzmRy57J5ACiImu46aqoTB+GKp6VkmM/RBertzvFU+lQ6AwAab1TygDcIB+G8VAaAomG8dvps/QXWriXDtl89PQoAGOE5uWCyjfrZGblgsrZh2U/sO9ygW1CaihffPQkANoPTcqMyIjoMTiv5yizLT/cf9cXYqWuC/73ZzLOHjxNCTNbOSaUGxfjEtBAQODQ1c3rO0xwxpdVJlco/O3AUY1J1dW3NqJyucSYQODgxfcpb7EFV6g2W2X1ufO/4lIOxyukZuUiQ/3LiCFtO4xeOnbQaFutAaTbeHpt8573pmrOHu1MU1EpbHc8VXj45avo0719vXQ3beebI8VWxaDKoFAXVYXBn2S1bRQ0UHP3J2cMG29hN3RYiEY4/880fL8utm5+ueGeDSsZAdmvjN+grh0Tf9jSqkJdKObFciUd7/J0DGf9yWvmge9W0/vfuvV/ccWNAEMq8Ph3MxLVQVc+eR9J2+X+kX5vDqhTmLN0hSz5LK3D8+9ZuWeKbUuQIr3LWX8+++tXOO1cLMV8ymToIZ+RiSdCAgGpaT+w77KOQwK81F+my+t3X39o7PoUx0TgzpeQqfVS9xdrlH2TenrNVABAUTg77o09KkyMEOCV2fmbpb9O7DunTdQ7FMSIqr6eUXEnQAGA8V/jhnv3HU56ikLzj215mqmWdmst0BANdoSBmiMaZGm8AArHWDuq3pdP/mN03aV/M6spLrKk72G5s13TozNFHb/9QQ2/Rroylxn/wyx/XudUww6FgUmK48x2RRZxjeirjaJukGrN+a7w5JxeKomqxDgBM5Arf37NvpuTP3haX4ucem5VgiMl8cWU0LPO8w2CNN/JiCSMCgBgCBBGCCEEAiGCECSKYITbjEATzef0dguec8qvlMy8U3y3g3/VUIuAExig7DV0TmC3mHrjxnqAUYBeZVOAaJ52f+5tf/P2R0SopeKsiRwQx+DtDD4s4Z81sxlEjrBxgBPZCWkmMiMXaBAGBy9sVQcRmnaKopeV8QVQrbaygGW+eHf/JvsOa6zK5mmnUPuobujq2reztjV7MhSJe2PsZAWIIchAGAIKIxdiSLXaqEYYwBUd/uXRqrzaRshfY9ZmAmjPVbGND8rrjXXdcvyNCV8svhkNnjr5x9K06C+EkNtIjLZSzLcxK68WOu0PDK/koAOTFclYq8pir5O+/tF0BgMla82n9i7rx9tjk4alUQ7fwaoiWKkgclwgqW3u7dw6trlIJAjMZ/VQxu1ed0LCFXfsdQiAzWqKrjNqSxOoAYqq4GSSGHxISI1LHcF8YV5uDOT6T/u3p0cl8UbfsOkNXq9JALc0jctxgIqYI/KpYNB64uMGbjfHoXK6g6++MTyEGxVYo81ayO9gm2XF16X16lMaBEAQ7pMusu4UgmGTHVWyToWQ8JksjnclL9yMzbOfk7Jxh2yfSmeISRm8uhZY8wktspNfrVopqzlQzdPFF+8BJbLhLYlhPL1M123A7vwaaKEmIpTvlOa8PSI7wgkJ9A+1DMCl6FJJtYL3YEOdBnTSRlgDAVG3H9DQrhRCSInS6qU1Q4gIneG2KWs5s9LxIbTSXlhwLlz1bboLMBZNuCc0pLYEQWMQsvJazTLWBCzHqobm0BACmahslrw9LCvO8TC29FobhkBzhq/ruKti6o2aNpnXhNp2WAKA0q9uG1/gjJSZ4tLMpTYgY5DnR09uQYKIVrKYVEjSnlggBNWd6dHnzEiuG6ObqLYkgs0qU97jpkVGyzXKTWncVmlFLAGCWbUvzusgiEPfqAqI0D4hBgYTo0bojDlGzZjN3StC0WgKA4qzhWF4tvWifQuXUQiAESkxgvfnusEMKMzp2mltJzawlgkkx5XXSmuGQRFdktA4Mz3gMcQAAs2zbxvKsBF0UzaslALANx/v0thwVeIn69FoAxCDvIQ62idVcU7sc5mlqLQGAUbI9TswhBIE43XizBVBiAst7bXhq1sR2a+T5aHYtORYuTHtdSFyJ6WpofSh1IgY5ybPfVc0YTe67u5Rm1xIA2CbWC17jr3iZpbO3TQtikBRexMysXmwZIUFLaAkA1Kxp6Z5Gn4hBdPa2aRFklvc+M5u3mt93dymtoSXsEN3znDcvsWKI+vSakVCX5DGhkFGyjdax7iq0hpZgkdPegTj16TUXiEGRHq+L07BDmnB5UlVaRksAUJo1bG8rMgAgkBQ9rtKlLAGCwnKe325q1mwt665CK2mJEFJOe5295QRGDNA4vaaAYVEwKXqPuzOacqlfVVpJSwBgGY6W9/qglbjoMQaZ0lC8x90BAe8D42ajxbQEBLSc1xhHhCDUSRcLLjNK9PJ8dy4UZ3WPDtsmpNW0BIAdkhtTPcqJ5ZlQp1ffEcV3WIHxviLGVB3vy0CbkNbTEgA49iJnb6mlt0woEa/hQo6F1Uxr757akloCAC3ndfa2MvBtdH0oVyIGOO+dklG0vTtpm5NW1VJl9tbjyazAzO+bQFkaGA6FPMdGOhZWc603oXQZLew15mzhpv4bt2+4xeP5Wuv/t1oIQWFZwZNpfSp1+ulf/RJAbXSVGk0T5W1dFJIg/fcv/OW977srKAeWuy6UujAsI18u3vVnD2eK2eWuS120qo334E0feOS2D1EhtQEiL3ZGk3/9r77Jsy1sJUHraml198rlrgLFTyKBSDgQrn5eE9OqWqJQmo3W7lXncbAzOnuO8Ryo4tiXb/KUCCgOxjlNb0T12gyJ58KSmCqWLz/AoHg4Gg/E5r8Yy4zbztWnX+PBeERu7Y7oMtpES4Vy8cvf/VPv2fqLKUNhuJv7V/SEg5VvkoGAg3FWO78efjSTmymWT8z6vD1wi9IdCnWGApt7uyofZZ4PSWKqeH7vRt22Xz8zNlUoBhJiRyL+2E2PfHDL/ZVDB84d+uGrj1vO5bMX2CGf2f7pR7c/vGQ/YQloEy3Z2Dl0/N1Ir+K+XQICxCFmrZj8bO+WYqxIEAA+3yCKxRIAzM/pjkS5kWhkR29o38TUUwePOYTUuaVxK8IyaOeaVXcNrxF5DuDis8IG5I2Lz0pk4MHBjqDZ/5vJ0T1nD//HM/vX944MdKxGCD205YE9p976f28/e9lG6OWMMbc+s5S/ZQloEy0BAMGgZoxw94ILzkbEjm3KitsCA5WPnA55scxiBgA4wrKEAQACYDE2AWIzDmYIyzLb+vu29PW8MTp2aGpmNJNbmt+y7HQFAyNdyVtXr0wElPkvBZsDAAHzFUuaAJiMBQAEAQKI6cGPRzd/PLr5iD79rR/9xSce+sJtI9sB4C8f/brMyz/d8/P53snSHO/z7C1E+2gJAEzVKc8ZgcTlEUMS4nYEB+4LrQ0xFw+FDUW2hcr+7QxhmAsbBduMAwAOwjbjFMSyzlkcy9w+uGpzb/fZbO7Fd0/Olq4YJ7QRIsd+YGRwQ1dHMnh+voHFTEQPiJjnMAsALL6YTKPyrCp9TuUoAGyUugdw/MSrL5qaeteWewDgqw/9aVAMfP/VH9nYdixcShuktaOFrk5baQkAjJItBLlLg1n7hei/iN3Yw1++KToCJDhXGV9V2gQHrOjwAUvCiOSlUpHXIpK4qbdrfVfHd17fM54rNPRXLBeKwH/tnttFjgMAhiDZFhJamMULhi9wCxxSGGHEBNj1dqp7bUfnCpZh//V9X0oVZp/Z97xaNp0WyXe3WNrNJ44domWt+T0yRsSOz8avIiTvMATFtFBPOR4xAgDAscyXdtx086oVQbGtAvwYhDZ0d37ltpsrQgqaUlc51lGOugipOoSMPvfU3n9+Ll2cA4BvfvQ/ferWT+IygjYdeLabluDCbmgsYh4Kr/9c4qYurnYhzcM7XEwPdZWjgsNxLPORTes+sHaQZdrn6W3r7/vE1uuSQYUhKK6FElpEsgVU98IvS9dyB/afeeHnjmkAwL994MufvPMxP+rbjLRPa7iUUtoYEZMfDK+/dIBUP4olJdQw77Asw9w6sPLB9cM+Fr6MbFvZ99jmDRLPMRjFtFDECMyPHutHYjgnlyulpzF2eI7/q8/++SfufMSvwpuK9tTS2s7kHR2rHOS/XS45QlKNCA4HANtXr9za1+P7LZaYnnDwzqFVAMBiJqGFw6ZS9ZLF4ljW/peeyM6NVT5+64t/9bkH/kDg28pIhvbzPQCAyHEPbxwJB3lVM0Km15xs3pEcoUONpJQ8sPYj16/XbfvYzKzvd1kyPnvzDRFJQgTF9FDA8v9xAQBGZAZmZn/7D+XgyGfu/0MA+PoffNW0280t3m79Es+yH960rjMUAEA2a5PGjHMFhw+ZMiIg8tyOgRaOsn1447qILAGCuBYKmXLj8mI4COtGSSoeP3z6kGVbPMcHJP87wOWl3bTUEVQ2dHUAgGwLET1Q/+h5ISJGIK6HAWAomRjuSDToLg2lOxy8dWAFAIRMOdQA024ehqCwqSACul74u//7n9+bONW4ey0j7WbjvX9oQBF4AOgsRz0KiZOU2PDG+Y+OoWdOHPJyYdhQ5uQCw6Dfv2HTN/7plZrqu5zcMbi64ooMmJLHV06wd5Wc6Jz/qM5Ol6fHvFwY0YMqZxDOWhESP/nNz3z+Q//yKx/+fC2VbmLaSkv9scjmvm4ACBlKVSEhhgl0r1yx4wO8ErzsUMemG1MHd2ffO1L1jl3l2KySC4jCo5s3/OzA0ZprvvSs7Uhs6esGgIihyHZ1b2ewt7/jum3Bnv7LvldTk+lj+8vT47butsgcAQRN2eCsFdHw6ljoO09/b33/yN1bd9bzE5qNtrLx7hpeAwAsZqJGlfW2DC/03/HB/p0PXCkkABCC4b5b7l658wEpWsV4E21etHkA6AgEWmv2dnU8yjIMEAhXe1asKHVt3b7q/Q9fKSQAUDp7V95+X/+dHxRCEfdywqbCOywA3DsymCvlT02errnyzUn7aCkqSx1BBQDCprJQbEsFhuPX3PtouH+QFRdMlIMYJjowsubBjyudvS5FsYRhCQsAK2Ph7tBVZNm07BjoBwC0cBzQeRBa+/CnO6+/ieEWNGEQwwa6+kYe+SNOrjLo6i7HASAiS70RHybQm4320dKqWDQiSYgAg12XXTBM9/tuk5NdXspkeaHz+pvczwkZMhDgGKa1wiBkgQeAhFZlNV7Ptp2c4jWpxsAHHqkqp8os8OpY1GOZLUQr/ftdQAAdoYDAsQxhBOw2CJSiieiaRaReCvb299x4h8sJosMDAELoruEB78UuLx/bct7XEnSdf4sOjMQv8cpURYzEIv1DLicwBFUe182rVvBsuyXTbRMtMQwKCQIAMISR7AXHLQihoQ99ihUWEViEEBMf3hjsWXASCQFiAAFAC9l4lW6BIcjFQ8PJSmLkemYx0QmIYXtvucvFcp7/73Aso/Dttndjm2hpnsqSvoUILCwJFxiOdx81JdQwAHCtY+PxHAsAMd1t0MLJAcmbJXwZ0dVrXY4ighCNE29mOIbpDAWg2kg6NrihltIRYl1fz5IjwIUG2hKICzsS5kEIMTUlrOvaut3lKEsYaNN9R9pESwLLDibjVU9blHX3O3jc1I4C4GLjVUAAHcHA9b21dHrNTJtoiUJZdqiWKMuAZlrpcssn47+MNtGSallvnBkDAOI6sJ1867e1lE4ItqovEMC4ZcbU2EN+MoIxtmvZpe/U80+4FQtAAEqmOZkv1lB4M9MmWprHZNz+/Y6u1VCmY5mFMbfQ5qxUAgCjppa3LOiWDQCW67Oy1FJ5ZryGws2SW2IZh3Hc33etS7tpyR3HNE4+9+PFXmXkM9pcyuWEEl+LRJcRjDEAFAU3K8sxdDU1udgMm6kDu92DXNuYNtGSg8lkoehgbDNOUXBr2XomnR894b1kPZ+pYrRceMu+Mepp9UEz8MzREwBAEGDXZfypg3tKk2e9F2sW8/mz78HC8rMZpyLgubKW19stdXubaAkARjO5gm4QIO5pHgh2Ugd2m8W8lzLNYm5qT5UhVkFQAYGD8em5ltmK69jMrGk7ADCrVHkOk7tf9i6nqXde07NVMrBX/jst9N7xTvtoKafphu0AgpKoOoybnPTc3Knnf5I7/a57gZZannjj11VbkslaADBdLLWWY8rGGABUznAfvZjF/Piul0pT59xLU9PTx3/xw8LZk+6npZRcJcFRS2fIWIj20ZJh26fnMgBgI+w+qgYAW9cm3nhpZt+uq75HbV2d3vv6u0/+Q2mqyuvTYC2dMwFgplDKqK00avrJ3kOEEEBQcB01AYBVLp755VPpY/uNQvZK+80oZDPvHR5/7Z/MfJVu2WYci7UBYHSuPdOyt9W62heOndw+0E8QyUjF3lKVZXzYtmcPvZU7c0KMxORktxAKAwCx7cLYaUfX9Jyn3WJKgmYzGABeOTlad/WXlJyuz5W1ZFAp83rAkqqsYgKY2vNKJhrnlVB08HyUPXGc4vgZo5AzC1mCq6dPy0pFjAgAPHPkeP31b0LaSkuGbT/+1sHff98mg7PScj6pVVnpSQgxizmzmCuOn6nhdg7CBVEFgOliafrCZkStwnShdGQ6dcfQaoOzdNYKesh1bOQyRi6zKG/EPGVeV3kDCOw+Oz5daLeZpQrtY+NVOJFOn5idAwCdMysWRYOwGKcycLcd/O2XdzXuRo3juaMnKh6IvFTS2QZmqyNAVN7AiJRNc/e5cctDJ9aKtJuWDMs+MDlt2Y7FOCklhxszLUiAFMWyxhkEk18eP9W6U4/fef0t28Ema6eVXOOmUFPBXJnXAODI9Gz7hTvM025aIgDvjE2+9N5pQGCydl4sN6KJlAU9L6qA4Gw2f2hqxvfyl4zJfGHP2XEHY4t1ZuW8768eAmROLqicQRDsG5/66YEjXsKXWpR201KFXWfG9k9MA0BOKmWkoo+JxQlAXixXrLuTs5mfHjgy11Ku8Cv51YnTu89OAEBZ0Ofkgr8tvShoZV4HgMl88Tfv1TIobVB9iX0AAAP0SURBVCHaU0uGbT99+N3jqTQAFAV1OujP1qgY4dlALisVAcB28JMHjqRaf4/Asmk+f+z8wKkkaJOhdMXLXz/TwUxWLjoMNiz78bcPpFrNPbNY2lNLAFAyzMffPnBmLksQmKw9Fk6ZdaQXx4iYrDWr5Mu8ThCczeT+56tvZFtqQskF03b+4sWXd4+OOxibrD0nFzTOqKczrwxWNc7EiGTK6n/59Wvpstq2tt0F2sonfhmG7Xzvzb0PrB/e0tcdEIXpQEa2xaApeUlTeikqr5d4XeONynDiRCr9i0PH0+WW75Euxcb4xXdP2hjvWNNvsvZ0MCtbQsQILPZZmYxdEjWV0y3WAQL7J6ZeOnG6bLbblhZXpZ21BACm4zx75PhsufyR69Y7DC4Jmsrros0HTClkVc9Gr7OmxpvzDgxCyEsnTr9yctRynMbXfakpm+ZzR0+8NTbxldtu5lhG402Ds0KmLNh8wJKq5pRWeV3jzJKgzTsw3hmf/NmBo3abesCvpM21BAAOIbvOjB2YmL5zaGBDd0dHMKDxpsabGVIMmJJsixf2wEMsQRXDhiDQWTMvXex5VNM6l829eursybQ/Q6/mxMZ4Ml/89m933Tk0sLYjEZGlvKiCCLOQD5hSwJIqz6qiq3mDWeUNnTPNC7N5Bc04k8m+cnJ0It+eO2QvRPtrqULZtF449t7bY5P3rxvqCgWTQQUjUhS1onh+zIMIYgmyrwiKtR18eGrmrbHJM3PZa+QVO1tSn9x/pD8W2dTTdWN/X2XfkLKgl4XzqyQYgoAAZi4fAemW/dbYxKHJmfFc4Rp5VpdyrWgJADAhM8XSD9/aDwABQbh7eOC2wVXzRwki9u/OrpQN86cHjhydnm37QfNVOZfNn8vmnzt6IqHIH9963ep4bN7Kw4hcZvGdnJ176tCxdKm1pwfqpE20JPHC7+14aLFXvTEHIseuvWInsoJunM3mAYS1gzevHfSpiq3MFMBUBiKy2B+9PMTxXC6f1wxgem7fvLite4d61/hXwaagTbQUUkJ/+2/+23LXgnJN07bzSxTKEtOqWtKMdssWcI1jO7bttEwip6vSqlrad/JgyttyPUpLsOvInqLW2kFGqOdji9iMqKl4bOeH/91Hv7zctaD4wIt7fv2NH/3X5a5FvbSwliiUpqJVbTwKpdmgWqJQ/IFqiULxB6olCsUfqJYoFH+gWqJQ/IFqiULxB6olCsUfqJYoFH+gWqJQ/IFqiULxB6olCsUfqJYoFH+gWqJQ/IFqiULxB6olCsUfqJYoFH+gWqJQ/IFqiULxB6olCsUfqJYoFH+gWqJQ/IFqiULxB6olCsUfqJYoFH+gWqJQ/OH/A7q/0Gf7CZ8IAAAAAElFTkSuQmCC;rotation=90;" parent="ZL04CsFw8S_J0OX8PgW3-28" vertex="1">
          <mxGeometry width="200" height="118.15" as="geometry" />
        </mxCell>
        <mxCell id="ZL04CsFw8S_J0OX8PgW3-30" value="" style="ellipse;whiteSpace=wrap;html=1;aspect=fixed;fillColor=none;strokeColor=#d6b656;strokeWidth=3;rotation=90;" parent="ZL04CsFw8S_J0OX8PgW3-28" vertex="1">
          <mxGeometry x="65" y="6" width="30" height="30" as="geometry" />
        </mxCell>
        <mxCell id="ZL04CsFw8S_J0OX8PgW3-31" value="" style="ellipse;whiteSpace=wrap;html=1;aspect=fixed;fillColor=none;strokeColor=#d6b656;strokeWidth=3;rotation=90;" parent="ZL04CsFw8S_J0OX8PgW3-28" vertex="1">
          <mxGeometry x="65" y="80" width="30" height="30" as="geometry" />
        </mxCell>
        <mxCell id="ZL04CsFw8S_J0OX8PgW3-32" value="1 kOhm" style="rounded=0;whiteSpace=wrap;html=1;fillColor=#dae8fc;strokeColor=#6c8ebf;fontSize=19;rotation=90;" parent="ZL04CsFw8S_J0OX8PgW3-28" vertex="1">
          <mxGeometry x="74" y="44" width="120" height="30" as="geometry" />
        </mxCell>
        <mxCell id="c-pm6wDFBp0grKCKoOtM-146" value="" style="group" parent="1" vertex="1" connectable="0">
          <mxGeometry y="130" width="554" height="725" as="geometry" />
        </mxCell>
        <mxCell id="c-pm6wDFBp0grKCKoOtM-1" value="" style="shape=image;aspect=fixed;image=data:image/png,iVBORw0KGgoAAAANSUhEUgAAAioAAALVCAIAAABhll0oAAAACXBIWXMAAA7EAAAOxAGVKw4bAAAgAElEQVR4nO29zZIdt5WujRIpnRB/HKI1UZHqG1B0S2JJLDrCnhzZ4pk22xdgUiOSd2BfgH0HRY9M+gK62d+UsuVvYEeYRbIsyRG6gZaqRnIxRImKY/3UGaAKhZ0AFhb+kcj3CQ6Ke+fOF5kJrBcLiUSuvXLjogAAAAAKsHd7R/29fnND//y5FuUBAACwCCaWo38F+wEAAFAQlwPBfgAAAJTF6kBruPcDAACgAhh8AwAA0AA9BxKwHwAAANXQHQj2AwAAoB7KgXDvBwAAQAOQ/QAAAGgA7AcAAEADThLfTSbJBTGZ4UADoTihFJWFCyUyWEWCEISaCDmzn8RAwP85hOJ+nqiyZKG2Kr1VJAhBqJWQfeqB2kVcd5L/81GForvhTKHEw1myUCK5ytlbjYUQhGoKCdeSo+kNTP2QdsJRhVLCH0coS5xdplAiGcvZVY2FEIRqCimm9pOrC+ktx6hC6V1vWihjH39pQolkL2cnNRZCEKoppLMy+OYtwdaVTfPDW/e3XXt37XBUIeLKZRHiVBEIlRiFK1fO0BobKhTdNCAEIVolQmiyzbH90D9wyXuLYu62ByGOSqhQ9OEwhdLP22KFEildzoxNwyrUZxuE0NKEzA3WDg4O1m9uMCP1xoufWne08/WrzHIwhd46ZRd6/Cyn0FunPrOqCCEeP7sQJERfubfdQo94QopehE67hb7qSyjRgZiNM7GcdI1NF2I2DY6QUsksdGAIPcst5GgdWYRWw5dd6HF+IU+czCZ0FPknV0lFfq+QWchD+1H/J0rgMh4hxNrRH4/dJjQJOqQlOIUUhAmFCDmbsSbkb89WFSVE+IEO4Q0ZhNaO/+REKI+QO/zpSCGvA9URinYgTuMsfUKChJjXt2uh1QjHbBoeIUYzzCKUMar4hGrFSSPyG/0EKv0gWtCK/bhKwDEeBceBXEKcE3osxDizbiFWvDgS8tSVdO+ReGt/sJB5eaSQLw6mW8IshDi4fh7qPdHlzCuU0U1rCGlxTraOSKHwZhgnFBFYYoWCQ2WkkDv4u0yIL7SnJl5n8R66uLRQ0AnlbJ/FeyK2F1HeE7G9U2jt6J9L6PRnQqthAUIhgalzoSxUK2cuIa8N9yWk1WRZyWOEopphhFBcYOELxXmP2j5GiAzmZoCRZhF06uyL7hDe8782fq//9587v5hs8NaLnz7++tWtK5vEnJ+JkPWEvnBxVehvhtCpTx8/CxWyVJEXLt5dFbpmCH32+NmFICFrpX9+VegbQ+jtU589ihbSqsPzb64KfWgInf7s0VeBQrZ4MVOhRMY7Ib0LrcUKVWyGZjaQN7Ac/SQmVKqiBgjZgv8LRvA3jzpIiFrzzWTiPapAExMKciArkxOqPpmc2SAHcgjdtX4yqStBNdLkeUNFffiNTShs727j0T80A0cK4wkFYQbQ7OV0RWoIcYUM7+E3wwgh2QplODajinAEliAh03vMOClsoVLGyQAhw3teMCK//FBGfmVCGy9+qk9G8GJZ9cCV+pjeQxfOi/WcvnDx99Zzqr5NEFqpji9cvGutJepb+Qc5jmUXmtR7a6Wnv/WOzxy3ZJ/3uL5lDgRZQ8ashRKx7r9aOSEULxTSDF1DcF7WHN6jmHzrGoJz717fFRUMJ9+6huA4EOH9hY3fv7Dxe71YxP0aE+4LFwjvUeXQ/+u9CRRNnANFCd3lG08KdMPIKUQ2dQiVI0s5OTupJhRHUPciSSikCzgLoaPe82F/uFwYnIRuZmoxCZVMn2PZj9d7XISabfg5XQvsPiihu4FC3A5RenVk3ixNb8nM+8zjCSVSoZxxUzAiiBYKPerorLSeUGBTjRYKDT42IVbHODScxh/Rxu9FyCiRwm4/egLF32nEEFzoLI5DoYu/DxwVi5nAJmrmJYYQURXyji8tSijLntdW/zGJ+Ek6dfx4TKGoiBFBRGiK6D3HERrSQ6u3J/up2VQKUW0+bv2JvxGMNyw2l/G3k1o5ZbPqs2YOcuH0e6LtOpFdEdfXjxFi33mhZr4N4D1gCYxaUfXjOjkTl+0IfS4a6BJn9jNMk67wIEg26o/OzJ9v202/DiKxnCk/D2oC1aazVxJCawolOQQ9Zs+9tttP0NxthfkIaiHi5s5HEPQ0QIrPffPhNf4lTxVi762VUGL9n0uHo1A5425NzQV9wVMmcT4X/PhdSLjQL83jcKG4AMh89OeQNSHKh3TWzLfgQhydXW8Dm5wR1/O6XhhCK9c47ikzjtCjZCFiZTBzs2Oh8DbGbMkRDT5aKDFiPkwuKo28KOkq3j3kcqZqQt5LXK1PMCOh0p2D6HB6CLs1RrsU97mfgBKsCRHqtEFCqwE9tO/AD3AT54joDTGZ13AHZydZhDjDTT2MvJUr58Q8yglFdGUiU4qehaK6pBHdTX0bTiySPjcJdCVGgI6E8qQEHCz2c1iI1fE32t8m3sMk4mjjTrq6fnrp6IoSVxelUFCNjGtd1p4XvauMJldNiA6m1m+bjLwFlfMhL7utLDTplgVdYma+ztlVMyFbXzNSKCSwpAjRwdDoptuXo+YJ8YK/FHKse20lIPv5584vrCZkek/KoQoh/vm3a9Yza37oWrScyTd/u2atK+aHKbWEEjKaRFADM0c8vvnwmrWZRQsdGmq4kLr3ECRkDhZ9++E1M+ZaPyw98iZJL2fPQvpNo29tl9h13flC1rpkblxbKGogzNrdFA4HcgUBvpA50uOKk0efBw9mW1MC4XAglyPwsU+8vnV/e+vK5uOvXzVncNv1tGMMGnY7FHr2qjYn/XBf3kQnaNhNCj16dsF8msxbJ4KG3exCa0Iw0oIg7zkU+uqC+SBeKyGzsgd1wKXQw68uXDKEvLE1JaWIo1o5GwqtaUKuCcwRGYlZlzhOU1zoaKJ2RF/TDCwcp0ns1EoYA0Jrid30I6FfCOGZyB6U+ggi+7EOwdmxeU/ooR79kOvV9MuwCUJv4dDvqPb/kN3/iL7DH/rDvELEJKvodCT0h3XyHoWqCaXL2ZWQ9UKH1iUlFFdp+W0wOtSGWkJloYhpcqHe40qADnFHs1DvEcp+Ju9eNXfqhOc9av+mkNqYnzZx3lZLCPEdiPP+3TxCjFcXU0LsxpxFiDOv92GaED+AcoQSqVbOuQjpw6rRQhGV1sQr9OirC5WEnl0IDSzWSO0VevzsAt+ECO9hCL1qj8m2Zk94D9EMj1+2LciXHwtzKYXVQvDfK+4Xci+CpJ/3OCF9ARJiWadHeYXcC1XpNX5GQuZwkOJhZ0LRb9r27memJySjEDPcRL9ym3C4foXINdzo0ZQgIXqxOHp8KFDIsYjOgRBafkILmfvfu72zdnBwsH5zg26rkzWj3nrxU+vsao48R8hrP7mEvPaTTcjnCrMT8samroQSGe+EdCXkqrRMS+hRyBFYmN7DF1LImGlmRYlC5mqB0orMrCiiGe7d3ll75cZFzqbWotDarn1yhFwOdPm/7Z/HCW3/uzOH3cwrdNUtdG+WQg/dQpe6FEpkvBMSLfTwqwt527ur0j6ar5AjsDx6llmoZkzOIjTZ4Nh+OD8Igk67aKFzL71o/Xz/ydcZhVwqEBpSKJHxTkickFUFQk2EQulBSN9mZeab2jT9ni0tDyEI1RdKZLwTAiEI1RfSmU68zlIIjjyEIFRfKJHxTgiEIFRfSGF57iexEHx5CEGovlAi450QCEGovpBk5d6PdUdx8KMAhCBUXyiR8U4IhCBUWWh67ydiF+m/hRCE6gslMt4JgRCE6gs5s5+2hE4d6VwodLYShOoLJdL8hMy0aUBosVDZDwAAAFAO2E8N0OtZLLj0ALiA/QAAAGgA7AcAAEADYD8AAAAaYH/baVv0Weev/fLH8o9PfvMX9WGuKbaT6e1KS9+g3HRe/YhEpoOa7NMkiwrzsYBCp67EeUvBPBtmRSpNidbRSqUcqvz6BVIfZjwi/UTVrwyTClmnycepxEy8LnF4rp0TpOi6VFRdkXeMM9rPZC6m6ROJQnXOW00hiX7eXObaNhRaT8ikImXEnNRbqC5ZY3ReIYn1iF775Y8znrq2rcOMKulCQQWo0+RDVfZu74RlP9ZyZD+b6zc3VI2cdFj061dIqA7WGpmOfkQT8gpNslI9VOUS4ncREoWyMAnWMoDWVK9wNkq0QeFoeiVyXNNQCx1Rw8owOVG5mqH3/O/d3onorAfYj2s9H/l5UUsHswM1obIDDQzq0qhw7YdwF/mhMiHUFZ1O+ubzhTME1Buv/fLHsqi93abqE9Oksw++jccYgSXbzDc0rUWB0ECDvAcALxnu/VRg7o252i2Z8ZhLxmOi31eYI/M984uC7vd3Hlh6nHito8YxAFg45oS0udM2OI50JmdKmP00cdo6tUT63Nytrlp7riAkK5s5Yb3Pa1RtogFnnlgi1jOv03mfmkNl7+mz0nJYv7khZ7VxtgzdOfe5H+acglxTD8ZbGh1CeVWyCyUy2GmH0CyEZk3ACxeYpoIJCCAvaLEAjArWfAMAANAA2A8AAIAG9D7zTVHtCb7BhLIvCAYAAFkIW/WAQ4noZsbQQssrVJugMt+ZMAAAkIV5ZD/VVpmEUBBtF5ZfMtZ3B8xaqBrjHdF84doPkWoM8BAASAcrbDah5vNGg13f8Y5odiRlP7rxFHoFXCFGejyzspCObL0YSGwLHCgIvdKOcUSK+m8S0onQjbGfoq+bA7MDCyPVx/oW4FkLgURUWC5xX7xQ7zZ+ydFyrlNtgU4IAQDGYy4vvomZ+TaLAwPVQL+4FZioCSQz7VZmGHybAHNaJiONoYOFMEaltQbkvAmQXHiU3iBit3Nd9SDxzFbzyJpCMP5lgrnXoSCZi6BEeMkw8TovHKEshRlPiEN2IbTkVuDMJzKGmxJJSfY7QK4cKFplrtkP6IoxWvKMwGOn0Yxk295bPtXeyxUH7AcAAOZHk+kGedMp2A/IwEg9SjA2w6Rxre716rqJZUh626lpv7nOyHjvJRxYaDI+M98jSqHhaRdCvPbLHw8gNAFHNDYBbzsVvFxvptPPAZgdw/Ti64NT1wkZVrxWGQ+8Z5mgMbeiznJHQ67sh0rbA/N44QIAwEq1MIp4DbKTZD94zjGIam/HwWt4AAD9w733I50Gw2sp6E6A1boAAAsnIPuRj7wWfaXE8NQZRsci+QCA/gkbfFOLLiANAgAAkELwY6d03oOsCAAAAIeYqQfwmBRw1wcAkA5zCCo9XJcTwqI7g4OZbwAsmcQbJfyfRwjhuZ+q1F+oGAAwHirW0zlHrpv03swmTgjZDwAAgAbAfhqAJ9UBAAD2AwAAoAGwnwZg8hsAAGDqQVXUEsWf/OYvRUfGqgkBABpSZwWAQirIfmqDGz8AgET4D9kkPvdTVAjZTwPgQACARKo9/l9OCNkPAACABsB+AAAANAD2AwAAoAGwHwAAmB+c2WhZZqyVE4L9AABANs699GI1LfX+T+KrLEuOFhLCzDcAAJgfk5d/6vPTmAuSMlWEZkL6PnW/iRNC9gMAALNk/ebGxAz0NCXjhGmrkP5t3G6R/QAAwIxRCUoJ4yGE0lVgPwAAMGPMmy57t3dKONBEKN2EYD8AgPGpOSOgJmbG47ohlEUlrxDu/QAAwPxwjbZZ5yAkCll3ni609sqNiyklC6LO4qwATIjuA6LGgibwX25NbJnlVlA5ob3bO/XsBy0ZNCSiBaLGgoZUW1G0FXu3dzD4BoAFeA8ApYH9AAAAaECbmW/evPLcSy/e/98/nHx45U//2H/ydd6SnHvpxfv/+2VD6PMiQu8YQh8UEXrfEHp3aCFi7k2WJIYzDNLP2ZiXkJyQNhF694PPhRAlhCZt8Eo5odWocuVPx0Klq+uMaHPvh2jPW1c2hRCXTn9m/fbhVxeEELfub6eX50ho1yF0PrPQGYfQl5mFNh1C20MLuZp09N1X/kPdHZ6NWQjRKtmFXA1Q5GuDdEgRWlTxVlfrt3FbZsHbjiKeNNq7vdPRcz/y4vG3jK4uEBpPSFLoaTuONGfLGZ12whXyCjG37FxoRWVNiAPPxvfu3bh69beVq2s0utVZy6weAAo9nF6yH3X9XHnPBJkGifDqogl5GpgQQqwd9oyShHwtWZIu5A0Zku0qQkqlmtDVq7+Vf2RZe5FZXbs65xCyClVrgCtCbgeSOZA4qrGup2eY2U+11EdfezTLqqO9zHxTA25M7xGaS/F7N5rQrt971oRYE0KrUjFCZ3aZVT9RaPPMLrMxC63ZFxXSt6wjdO/ejXv3bojyA+ihAVRohYw4FRCqI5TSAIVpckcBxCJ0FHzqVNdEiHFC3QLjXLB99kPf7PHCvxvkHZk9xqg3QT0j71gzIRvU1/OOnhMMLKR3KrNnPxFxzSwk/1RUE4pTmZEQOR62Av9WEKul+9Iga3UVIfd+vKQ/dmpNd9L33Dj7SfSeyX4YQjHeI0J6RineI0JSk8TGPLBQuU5loiWoHzJPRU2haIKEog8nXciRili4FCLkb+luYRmOSudA5Va/Tt9zS/vJ4j2cn3O9x50vC56jxHnPRJbTRNMb89hCZl8yI1kKyYn74wklkihEtu8VvA4UVgafcIoDSRsg/kXskyOaZT9d3PtJRDpQau1nVExmtyhI0yo7l/bcs1D2hpfFICHUXIhvQl7COprWYZXTKx2mbpF3epRBqv/q/yJ222zitTf1Ofnm3ckn3354zbXxpdOfqblwDiFnRTn55p2p0EfXnUJndh9qc7osQu4aefKNqdB3biECbxs7AaEWTApJlHDzzO72l+e3rmy6bjDQAXReQhxLaCXkbemEEO09J61CtjnZl07vPvzqvOwwRQTxfmZvR5Sk0+zH9B75ofVzRUTn2vQeIcTJN+6YVpEqZNvhiTfumIFVEp0uWHfoUhlbKGOzpEOb9ToSF9cr5GKOQjRthbwtPQLrPo8/zJR5qbpd2nv4+48oSUv7caU+tMfQ306gUx+r9xx/G1Iv6Q5RxirujYOuH4a25/GEMrBm+UcX48Qbd6Y/EUJEmbFfyEZloSA6EXI1z4gJRHRLP3agVRNiTYkyKHdrxypU4iZTG/shGkOQu2ishV5C2nsIQiul13tyNTNvOG4uFEo1IQ6bZyNvXZx4fbWQa577D9H3SELPRombMdam3b8QkZNMhKKntnolK9wZ7Y1OB99oDIs6vpLcS8hLgQnnqFZXRqqUFW4+y8gebRVWiEswtZYsQmaOldtoqSNiCPELMyOh9FExziDHyja5pkDMllnazyrh17C/q16tF08I5fW5qkLG0FYJoZb0V2OHJOOkuADJBTN3++nde6qp9WBgMxUCQAcOVI1Z20/gdavbt6nck6o2EXk8oaFo0IEfkNpncamXbL72E+49FQlVGy+mE0L+1bR8N+dXhD5OEBoVx2gkCAInrzSztJ9vPwyMOLH1iHgqjQhteWtttRjaOFh3HDGJM0OYX30h+za280kJMTooWTox4wkR4SJom+XQnf0QSxvQqLdocIV89cC1gWvVA+EInt6a7dpg2y0UtJ8ZC/lirmuD7adhQhyi9xlqUSUKbxcKvBwRSJ8rITRx0HKdp1ZCS6CN/cgT7Vomh3YgIvVxCjlqf8aeCN3MiHgd2u2qLBSxt8xC7tidN/OIhi4GbZBBEaeIkC03oq8g3bcIO6IEoaCvsgvFhZSIHu3YdPSybZ1vP7xmW/Mtf7j59qPr5mz9Egnydx9dr7NwWZyQK2psf3ne9bBOmNBRmHMKPT3veljnu4+vm4/XELE4IrInIgszKWQJdywipDvQ0Ypk8jryl2KLZjwhGT3sa76BVVq+bi7khQueGwJy5M0VcbI9qOx7FVXGlX2JvmTe9YPLCmnXjXCFQ6FMz4rqQhlfN5exkLRBdiHEfzubFOqgXdQXyh5SUt5dPTvav26OB8t7KlAtR6bHyjOOp9NtLF7ImERAx8FDoRz3PEqnPvVuzLQV6nUaCBiJlvZD3wE6gtsCiIhD3wEKxSuU60ZrNSFvGbhCCTErowMVIpeleQ2yLyHGNfXe9clVXXsTSg8p/Bd7D0nj7MfnQP5IRg+7TYUSqktQRUlpAEG3cHsRIiNUUEaS4kClU590j2T+NpcQs12whByXmFmL0o2hT6FqIWVIehl8szlQNu9Z+UlUdeFXFLVNXAPgW0KK0PaX5/MI+brG20/P8y3hWCg87AYJpZBiDOpX/LORKMQhTGj1igfVvRRjCOoqVRYqHVIGpuXUAx21OuTRTATu/Z7Q63csxLttqOpWkJC+2CXzRuj2TIQOVRgjbEHR1iLEvvdOCGWcepBSSD24Fz0bcee8jVDJ6tpEKD2kLG3qQS/2I1YjKfHyHn2iQVzfYUXIXWP0Tk26ENEGtmcq5I5T0dE2u1Ah+8lYQi+DCw3XLlJCCuynoJj6mzizzEXy05NWCC1BqJz9SGZ0KiDUvxDsp6CY+tt7Zl0XMvtQKYTGFiptP4pZnA0INRQKqq4C9pNdrI4QACYp9gNAfZZgP73MfAMAALAoYD8AWBi+7wlAc+rZD9ozAABwWEi0rHfvBwAAAJDg3g8AAIA2wH4AAAA0APYDAACgAbAfAAAADYD9AAAAaADsBwAAQANgPwAAABoA+wEAANAA2A8AAIAGwH4AAAA0APYDAACgAbAfAAAADYD9AAAAaADsBwAAQANgPwAAABoA+wEAANAA2A8AAIAGwH4AAAA0APYDAACgAbAfAAAADYD9AAAAaADsBwAAQANgPwAAABoA+wEAANAA2A8AAIAGwH4AAAA0APYDAACgAbAfAAAADYD9AAAAaADsBwAAQANOti4AAL2ylvbzgzylAGBUYD9gqSS6S/r+4U9g2cB+wAIo7TRxWEsFTwKLAfYDhqNPs2FiFh6GBAYF9gOGYNaWQ6MfGqwIDATsB8yTgf2GYHLUcCMwZ2A/YFYs03VcqLMBHwIzBPYDugeW4wUDdGCGwH5Ar8B14kBKBGYC7Ad0BlwnF/Ah0DewH9AHcJ1ywIdAl8B+QFPgOjWBD4GegP2AFsB12gIfAh1Qz372bu9U0wJAZ/3WRvRv97ZQb0Eb1m/G19tZUOmFC/AeAAAIYviwiff9AAAAaECDez/DZ5TgkPI3eOTImGtsLe+4WcoI3izBbaFiqLTGGgyHT3oUPU492Lqy6frq1v1tCM1AKJ/xbL3rFnp/e/3Wxt7Wzt7WTg/eQBd1fkJrpNCQ9baW0PrNDekxe7d3ltwdX3vlxsUKMrqfu043ccEmJFYUCNUQSouDROAzhVw5kMp+skw9IHYSVNroknQqNF7VrSV09epv5R+TkMiJlgOwd3unF/tR12zzzC6xn+0vz6u/42pJA6GzpNDTbEKXz+4Rmz14up4ipDeqAKHwIKgHPr6QbMkTh6hgP3GlrXNa4hwoRiit3tYUYjbGDEK88HLr/raMjXpUhP3kV1J/T04o0w909IvHL0MDIbKurwhF1Xum8ejEteQkoZAgqGJfhNBxX/LIJ0rbT0ppq52WekK9V91dwbufldgYI8LLYefpKDAux34az3yLuGZyY7k9P89tIMT2njUhLp/dlc0jQojfgOXGcvt6QuxhnIjYpwvdu3eD/6t0ZGmVOhO1cehpmYFQYI2qKHTYuARvNoxquaFCKlwwURvLqrucGQeKlvajru6lkGum4BtDnPckCYV4j4LvQHGWoAlxHSiPECMCxnnPROiwGZd/UFRF6ojfBhnDzITYNaqi0LQlZncg5T2MHRtCq79amgO1f+7n0pnd6HlSQalJXP2IEYryHklQDhTXhvXf0kKJ3rMiREbARO/Rf1vBgVIitYRpDBmFaOoJJXhPlJC9JQY5EEeI3+QtQmd2hZa7L8qBmtmPvGwp3iPxGkNK3yRGKMF7zL0RX6W0YaaQJJeQl1xC8iZNIQfij2XReA82rxCxt3TvWREqX2/ZQlRL5DtQxibvFFp1oHT2bu+Y/1wbuH7O2WeiWbaxH+U99GYn3rhz4o076UJe72EJkRWWWRFPvH7nxOt36J3RzYbZhp97/XfPvf47eht6J9mFXBGQGf6ChEo/BsQpLXMntM1UE/ISIMS+ZVJYyGMxsiXSeB2Io8YJYjJGpU80cFkCsWfTmaybufaQ4kCNHzt1XTL9gqm/v/vounXjzTO721+e37qyGTFdkiu0JoQQm2d3t5/GCml1Xf39/cf2I7p8du/B0/UIoUnTVf/9/uP3CKEgibkIySdSIxS9EJagl9ZbVAKvJc9PyNebKSO0Zk52e87WEr9ztESv0EqPc1UtKIipfaonUhMpMWVOL1uWcra892P1HiIRicuEXKlPgBBvfNCV+qiMx+Q5++cePVcbJrqNdI/S1bnLL2R0wOnwl1EoC/RuXUUi8ra4kagehFw/6U9opTU5WhwrEwpSyxvEmNBr+WTHOlM8iAbZD3PkzcqJN+5Yuw/SY8699KL+4fvvvCxE5LDssdCqF0iPOffSqRWhn/4wWui51++s5kCHerJ1nTu3IvSHd14WIjhSqw2sfcnaQqunjtkdThSaiMZx7qVTKaV1cfns3uP/+JefffD55MPOhVwn/1Do510JHWYlLu+RnHj9jjUHkk3+0c9fffeP/zA/t7DmMTMiiMlRHOK3BCneE732T2IO1Cz7caU+ddS5QslrlwX2qvAWtmGJtg0I5RBitSx+a33/pz9M2Um5QBfqIrnypDgTaj/xOhTiyr3/zsuVhNyVL4KjTpmlhfwh6xFVixdLI++JJS46hBKEKnVtm5B+GyZ6DykGNj/7GZTGeQ/T55jBgtismlB28nYFAMhO9ABa9pIwgf2MANIaE7gFiADD3zWB/YxAxPzUVkKTG8WJQsRmTCEAJozhQEHPh8oEqP6CC/OzH3rifE4h96MAkzkwLpj1uFoM7UFovhCnKO/xjic0O8ZwoP7py34SreVddgyt5mEASGaUoWYXSvS5ikLcsEB0QDlPsHYbfyISoJmtenDr/nb03HbXZZNvztWtN3IAACAASURBVNh/8qn5Ydxqb646JN8FMhV6+q/CeA5AdqC+//g6PeXG1Srko/v7+/+z+uG/CscjFN9//B59B8gj9GRkof0nz4j9MNl/8iyltC6yn5ZFCZnLguQS0lcw2H563hSytnrJdx9fj36O9db97atX4366QugzoYlP8MTNX2iW/eivE9Uh+gWhXQZZY2KEAlfgOBTS3luqJ+9Elyq0oyqFXKvXEHsLFnp/NKEKRJRWHnjoa0khJNx1Jk7o+4+vm+1UtmK9XfNxxZDvPrpO96HnReLtosZrvllRl4e5UJK8bBHrsFmESOORFdErZA4cq5r93PFqb1T0PGzD4UekdstcNSsuWKjd6n3JuQtxuPX+9ta7mw+errue4Z+UNtojIRQvdH9760qokPMlqMRNICm0/fS8a/kDGUxWlpXjvGy1HaEJUPoaP23s5/DKfXmeHhlLHyHlCoUvOGgXenqeXq86vc/ubV3ZhHzxIotKTaGckPemv//7e5bNjNCT7pTM0zKsUHj/zCFkWZn0SCiya6tYiS1Onfg+tA5hHlke7tH3n2WaXF9TDyLIctlYQskVkTmhJr1pMSmaKIwqdDha+EX4yM+a8Y8jFDXEFMSAQuQYtQPL9XjgG3YzR93jSB92o93F/DZuXbgIaZq1V25cjP4xH73oqrjpL4JTl40O1h4hhimoGsYRcidAfiWm96S/uYsZqdPfRdZQSL1wIeX1P9adHJb2Bwml/aKj85/lbbO1hRgtMVBomphwUh8lFPDSOSMBmvShrdFySFpmP/TUAC9M7/EI5fMecdztsh4R13s4RPXvooTSeqwdCmUkJgfSfsjP0hJPi1dIbTAbIV5LDBRaaaHMYTe1QUAOtBoJqo3f9Mbe7Z3Gg2/KGEJNiO89qUJs79E3e/D0/KoJBXhPoNB6aEs+FuKFP2UM1YSCVCKE0jkOo4EO9OCL9SDviY7X6noNKBTSQAKF1oTWeEOFQkfhVDhapveItoNviuMEljEQp/tH6GWbCpGmoFemaKHLZ3e93hNqPA4h/yBDSpgOGjbpRKjc4JviuLSMgTjlVUmn5Qd73glU0edff59e0QsdLxTbEmsKcQbiiH7t8INv8vVCe7d3urAfycr1M3xokrWk9BfoijLpwkQLTR6tNav+pFNWTyg2RZi867N/oQr2I8zSGj40yZCynRbDh3o7/3mFcjX5mkJ0eHEJjW0/6tV2fdmPxLsgQq5EdTAhzkISWcamOO+x7kSojv1I+jktuUYgOxKaVUtMFxrYfvTXqvZoPzrqKpYeG60jpFfKUkJrQqy256K3QzoXqmk/Op2fllkITVVyP7DZc2wZ1X4mr/RuYz8AVCaL/QBQn2HsZ+I9ooeZbwAAAMbGlX7AfgAAAJTFmsZVWvNtmBSyR/BurJKkDNyBIvS9cCeYQNx5QfYzc+A9YGmgzs8NV/oB+5kzaIdgmaDmDwHsZ7agBYIlg/o/B8wJbzqwn3mCtgcAWsHMgf3MELQ6ACRoC3MG9jM30N4A0EGLmC2wHwAAAA2A/cwKdPQAMEG76BLvWmuwn/mANgaAC7SOGQL7mQloXQDQoI3MDdjPHEC7AoADWkpPeNdag/10D1oUAHzQXuYD7Kdv0JYACAWtZibAfjoGrQiAONB25gDsBwAAQANgP72C7hsAKaAFdcD6zQ2872duoOUAkA7aUd/AfvoDbQaAXKA1dYArAYL9AAAAKAXe9zMf0FkDIC9oUx1gTYBgPz2BdgJACdCymiITINOBYD/dgBYCQDnQvppidSDYDwAAgOKYN4FgP32ArhkApUEra418DEjlQGuv3LjYtkAArQKAehy0LsDiUfaD7Kc18B4AaoIW1xo1Cgf7AQAAUBXpQBh8awo6YgA0AUNwHYDspx3wHgBagdbXmr3bO7AfAAAADYD9NAKdLwDagjbYGthPC1DvAegBtMSmwH4AAAA0APZTHXS4AOgHtMd2wH4AAAA0APZTF3S1AOgNtMpGwH4qgloOQJ+gbbYA9gMAAKABsJ9aoHsFQM+ghVYH9gMAAKABsJ8qoGMFQP+gndYF9gMAAKABsJ/yoEsFwFxAa60I7AcAAEADYD+FQWcKgHmBNlsL2A8AAIAGwH5Kgm4UAHMELbcKsJ9ioAYDMF/QfssD+wEAANAA2A8AAIAGwH7KgMwdgLmDVlwY2A8AAIAGnKwptnd7p6YcADrrtzZaFwHMjTUhDlqXYVzq2Q+8B8yUvS1UXdCG9Zsj95kw+AYABbwHNGTsXnvVwTcF39K3rmzKP27d3y5WnKxCvtuVW+8eCb1f+IgWIyQdwjq2BvMAoFvWXrlxsY6SbuO0/SgncJHLivILObxHxU2nUKbAvVghlwPp9hN37yd6D1vvbpb2YwjVE0q7A7R1ZXMSTFQ8tAZDfrScL3u3d/qyn4kfbJ7dnWyw/fS8+jvFhCZCl8/uTTZ48HQ9Rsiwn0n09AglNLmp0A9WhB58sa7/N6PQj1aF/tpOyOpANe2nN0uGUE6hQPvhdG0JB4L95BdTf5snVL9am2eOXMc9kKV8KNSEdCHTDCaEmdBqafWKHiYU2NJWhH7gE/oij9CPfEJ/bSF09epvxapJ1LGfbi15dkLVuk2TJqk3QKcQz4Horu1U6MiEJiER9pNfTP09OaHqgh0bj/DfRIlwICXk9QMdVWM8QlqBVV2PFGI3sxUh9lNyqlVHCHn9QOev1YUmDlTafvq35FkIVes2JXUEffYT17W1OtBC7Kf9zDe79zDYPLsrR+e8ee5EKMgS5PbyJ1yhKO9ZEfINEViEQp7QVq09VCjIEvTtqwndu3dD1JpxoJeWU2B9M+YJGV7o8g/2vN4z2SxS6KhxeYS0zcKErkQKbV3ZPKy0Q09ys9LYfqK9R8F0oGjvUXgc6Cj6R3vPVMhX9aO95/BXR+2ZLxRqCepXP6olJP+o40AzsuRuhTjGoxPdbYroCFqE3K1MhgWm8ViF8jrQ3u0d1z/rxsR+spTHRfvsR1i9JzyeclKTaEtoI8RoY9WE4iwhghQh9Vs5SlbOgXI5ZTVL7lAo1HsOf8VOTeQGEZYQLHTkPREq5g8r50BSjrClouVpaT/yskXnPQpzgpxVKD1SO/ewmvoUFDpiRSh2YcQ1RqyRQune402AsgtVWGIni1NCKIw1VvsKGjdzYREyp7byBuQ5QjIBEvki/vrNDfNflj3noovsh+DE63fUP2KzoJtAVp57/XfqH7FZ0E2gDEIJrei5f/ud+kds5jUGb6RY+7ffqX/lhHQVplAhB5qvJQ8jxGwduTqC1YSUAy2ENqseCEbqY/qN/OS7j69HCF0+u+tKE0wbkJ98//F7YUK+1KeIkO2YTL+Rn3z/92MhTsrkbXWmDaz92+8O/h52ODWFcuF1Sv2/RDl/9IO9v36xbn34kROpQ4WsX+UVIpgIWRfznFTd761CvmVAOYMQemMMbYDHQoxhlVAhmaAsZBpCl9nPmsV7FK6vfENwXO/xfjWtbbyxrwxCPIhcx/VVRG+USEG82UmfQkxop7QWqUQh44QikulQIeY0ExNrmk5U5ujhAXPggR6KmAqxx7ojhXKM5mWk6Hhds+xHuFMfepyN2uHZ3cc/f/VnH/xD//DyoS1Zag09/EVw+eze45//y88++HzyoWv7JKH/cAsZx0SPsynMc/GjH+zt/PxffvrHzycf8ovKQe6wppD+4bmXTiXu9txLp4iiEkFZfpUrXaOFMiaF2YUmZ0+lMXSfyZID+RIgV2Oke4ERaVA1oUKs39xomGm1sR/C4U+84feeE6/fYQ7B/eGdH7q+4lgCv6L84Z2X2wsxvMfemG388adOIU53nh+eqgn1idWS//jTl4WItGTXCZFCEw+ehZCr0srQPxH6wzsJQo5mGCrkbfJuod0H2rpiDanjSV0OvoGS4A3C0aQ7ZXoZEoWIQ2gitMbuNrm+Ijpk053wOoLpQonkGn/jPPSjb2x+WHqm3FD24w6sI4bcEY8JAC4zr/8Onyt7VE08hqDlvR8AAADZ8b7Ewcre7Z3K8+6Gyn4WxMy7fgBkAK0gE9bVTitkRW3sh1g6OvSxHoW1Kv7sg3+4Kmm1ySf1hOZ8Bx4AsDRaZj/bXxpzPHjdmWiLCoXvHJO50WWFEjp9/Elik7nRoTvpQYjYcxOqzdAbT8jZtcqdAPXQK831NucIKk/C7nHwjXYX4tsHT8+/9Z+f7u8/0/89eLo+ecWTgq5qrm/lDt/6r//Zf/JM/1dP6Iv1B44n2OkEyBUs/vrF+l+/WN/4z6mQ/DxoV10J7T95pn84EfX+M3eb6JQEkz1XEyKYixC/55doLRWEXAGkApOhtjrzEXq0H+H2GNp7IoRcFSV7J6iekKMxZ++ounY4X6EJpgkVdcpqlqz/2/jP/+lfyFWlZT9sIvTWf/1PoY6gVSh0V5xvU+DMse6HZjPfbt3f3rqyuf3ledfaB0EjbEQKLoUePF13PZ+cqyrcen97692KQl+su5asN5srcX5kRLC+QVIK/fWLddej/kEG0INQaQ7+/p71UZgSlrwQoex3NL//+D3rpOe45km394xCoaQ4ULWp2D1NvE4YxpWpT4UxU9nfuXV/u/Ssm0OhFjEUEIxnyZWFiN8e/P093/usj3mQ0MkIMoCUlhgjlBbE6JnTtK/UX4Cn5eCbPNGWCQiBbPu8R36VPq7q9R5ZR7MJuWv8oZBjKGNCXOqjC7nGTPj0IwTaQl/iLJ26XM2wH6FQrG/64eQ0ld8J1PjeTy4HYgqlVBTmb9NrZJhQQrxmxvp0Y6gsVNp7xrPk2Ql5U596HcHsXdsl0X7qQboDbZ7d5Vy2lIqifsUSSqj6x0LsGBrnQCoE8IXiokZ9oWpUsORcQsyTPwuhoGG39I5gPaGFeY/owX6EcqCn57ejZq+9u/qGBa8QMTHGytR7GAMEyoEihXg1/tb72yoHcpmQtbChlqCEQqNGhNDkh4WEEoku5+RX3tLmEvLSjxDdvPidLSWU2BH0sHZsGylCC/QeIcTaKzcu1lHSb2pZhxf1dV5974475N0//kPV1v19y4MaVnQh+pVu9qSHPT6t32jlCkVFzxUh45UqOolhWgl539DTidDellbrot69TeyBX0idiDOzNCHXBIQHCUJBL28Mm25wIIQWVfhCxJiKN1oOwN7tnY7sR0IvNq7b0rt//IcQIsJ+OEI608oReHuU/0LGxJ57HaGg90s2FypqP5LZWfIshCYOFGE8ViGvN8R0BLWy8k2IHs+H/eQXU397T6jLGzbP7h66jkIzg1AHIoQEkQ5Hzc4hgmne8SII6VSwH+Eo4Y9+sGcdX8pryTJwlxNyOZCuOK8jUkiHsI6YhQmtWqUZUighR5CB/eQXU3+nnNDpK5PT7CcGrLM7H+rYj2IWlhzE5IXlir9+sT7TI8ovZBsrpAdXvHd6YD/5xeoIAWClgv2Mx7S3d4R1Tbzlwn9clsdC7KenVQ8A6BvdigAAidSbeD2qh4NZsMDEBYDOqTf4lpfDMQHHbZiCN4Fw42d5IOkBrRi41z7jwbf9J89co9IFgfcskiVnTrj3wyX37Z8l0MWqB9k5d666MwEAAAhhxvaD/hcAAMyXGdsPDRIgABJpML4NlsS87YeeYgAHAgCAbpm3/VQF8w4AAC4QH8KZvf0gAQIAgDkye/sR1ZZ6AwAAkI8R7IcGCRAAAHTIIPaDBAgAAObFIPZDgwQIAAB6Yxz7QQIEAAAzYhz7oUlNgDCrEgBAgygRyFD2g0nYAAAwF4ayH4EhOAAAmAmj2Q8NEiAAAOiEAe0HCRAAAPTPgPZDgwQIAAB6YEz7QQIEQDnwqi2QhTHthwYJEAAANOdk6wKUYn//GWEz586dQoYEgtjb2lF/r9/aaFgSAMZgWPsRPgcKgPE0mYxN3Ualzos3QQ/0VrwHkv14vUWqgLUMJa5phdpCnM8mtZRzfVkFWxPiIEN5FsISB98kGYfgVN3tIUiZ9FkqF5zS7m3tEJvN63gTyX6wFc5ebxeIWZ7eij0Ag9sPRtjmRVALrxkO5pI4zoKuTma3VW4JjDz45gV3gLqFiFCtQkDzoKkXYO5x0DyZzY+Ivr7Nizckg2c/onoChGqahd7uDQAAsjO+/dCk3wGC32RkpA4+AIBmEYNvmIQ9GEiAABiARdhPn5jTW1Nm1qb/tv5sZivrtzb0mYS55OLOjysDiyhVV8OJ1eZwA0CwlMG3Qq8CsjZj5tRh1x8pe4v4bejGFcbE8g7BEbO0q43v0UI1hxl7OBsASJZiP6LwHISUniP9FItIC165Ykrl2JTFgbwntg4pHYjKJenhdIHlgMG3Q9LvAOmjRik7UX+Hhq2JBY4USrKMwlnPLb3n9FM6+Qkx4TjjSCOHgWsLmAvLsp9sy/D4iAslk58E+Zkpl8UO+QRpcU5O3vL3cGPDWoZqlwlr1oHeWNDgm5dQZzKjRkqrLhERuo0yzICbZQhu/daG1Zvj9hYNR7GOD7lcsNvaAkZlcfZTYg5C3nGhvIwUUyKi80iHXwGcLlCTxdlPh9D3HhbeLU25RbHk8zYGnUweAYVY1r0fSZanUDmTiBYV/vj3MEJPS+WbWIUY4BAqE3rGvLM8QG8s0X5E7jkIiCySokOIrWaIgVlgtkHUk/7B4JsFvI27Q5awHBzCJVgUC81+RFoCNGr4A+WAtQAwAdmPnSwJUA8ulaUMnawKM0mAeji9g4FTCmqy3OxH5JiD4OrSdtKMsyyYlqUkueTmOw2hn1sRrpJMTuy5l+Y0BD3firFkkP0E02ctt956TdxJwyPtan3oXLStOfTNsz5rdRDqKQU8rjAXFp39iPKvAird551MCWu4kyz0UxK6DPw5vpNeOX1Qce97jltNp+3pJdRbFayH+rY0kP3Er4TNX6qyKLRWlhUZ+uxLdlgkK/1YgrckdU5pV4E+6JDnUuXmAuzHQ+IcBFd9VZ9nqdC0CnN9T9dSYEytXDCtLt37E1VCt8m1q0SIkvBrS3oZSksEkbHCgCDWXrlxsXUZuoCwmf0neBU3WBzE1AO0CIqD1gWYCXu3d5D9+JnXFCAAAJgFsJ9Dir4LFQAAwATYDwskQAAAkBfYzzGeVwHBgQAAIB+wnxUwBAcAiAfzDkKA/QSABAgAAHIB+5mCBAgAACoA+wkDCRAAAGQB9mMBCRAAAJQG9hMMEiCwZLDkAcgF7McOJmEDAEBRYD9OMAQHAADlgP1EggQIAABSWPrr5mjol9GNgXr5CtaTBwMT91K+MPDMaSDIfuIZIAHiv4gTAADyUjX72bvtDHDrNzvtei8hAVoyzORPblY6QbT2APKK0sc7aioc3bUa9YR0Qr3sh/Ce+TJAAgS8IC+cOzCPPqlkP7T3dJv6SAaehK03SzRRMDB5X28PstBg6kHnZrM00Br7Qb8WSLmyg6reGzWyHz31man3DJwAAQBAE4rbzwDeI8FTqAAAJ5h1HU7Zwbd075F7oH/r3Wbv9o78VpVHbWx+Qki89quf6B9+8us/q79f+9VP+GthucZV+IMDxMgMcyfmHoKGJjgzweht9G/NLevMNMtO+nUpVJKM6ntbO969mdtElyexsWSfTBhxIOlBzPrt5IZ6UIB1/ZZT1Ix0/dipOkfKP+iNrdvInUxOt9xY/5Aj8cmv/ywdSDce9ZVg1kV3hOLHdO8GETvhhBVmGbzbqG/pB4/mZULeQ65zIK6LK3KcSVnP6WORWmqbQuWpXzfiDiRoxi8dhcxutCnEiZPe33KCYRYKDr51PuxmXgZORfnk1382ved4DzluF3v9KXEngGZva0f+C/0hJyeILRQXputHQNf8+uXJtYcsQqwOWaYnT+j9lPu2BDWyn668Z5L0WD/ho4bjVMv0dnLpwSgm3r5n0M978Kr1WxvmsMakH90/WS5uNK5xoXT1ifHEZclx5Uk8pdknE7p2WCdjIAbcvEGMyAdaPZS5rEV3zPoRXWNe+9VPJreCEskVYeV+5hKvhRDrtzbM0s6o/EHU8aHJKbWeYT5x3kOXJ7owJjU7T5OSJ57Y1MKQN4qCftgqQ+jafjgnhTl3wLpB3Elfv7VhGk9eK/JCjw7NPXbPvfwmPRxRXBkm3hNRz3s49iz0cyDrNzeyG0YTB+rafnTqpIf+jsOtDdHuhY/moFncXQqwTIIC6ORmT1y671LsJ5Qz6afALp9Qn0cbSX0HajDzzRriU6Zl98a5l065/CndKsx7JGJWd0cGZqR+QPbbJKHfZizGSNBxsqu77BxqZz+hhsE8ofXO+9HDZREJUK55a9YRZ2RCbRn4zGe/zclk4FMKJLXtJ8InzEdErf/tigrL8Lhue8KE6jP2CY+bcp3I2KcUSBovOZrFQlqlnPtPnhE2MxmC47xsMeVZk8lv6wzHYdBvQtuJ10VRz1xXZuBT2hv1O/SzmXog6TnjYVIoXredA7pkOG8km+OlMcfc6udABHM8pT3TJLTOw37M/IY/37oo9B2g+ithd9Im0TPtE/51UcbTswPVJLpKc1bBqRz64xZ8KUHXa75ZaZ8AHQixdvw/egiOD38htU48xsqSjcc1FFn/nFhLEl2MyTqHPYy4Nqlmec+qaBrK2kdRIUT99/1EM7s5hRLTmYiFC5l0G+K7LRgHtcAP8YmVxCViC2HeC0zcoZ4Gtb3QDdUzStc3gA5DaKXsp9C57uSEchIg/Xmd5istun7OmR8hch9LW+hjCT26EteFv8L/5Jmw7JfmtV/9RM+B6MLkou0p5ZcnaIkW87d13IgWqlYMRcHsh+8NzR/uCd5zyKullDOlt1X+HkrHhfQnCmdH6ZkFnTzpSVNt8pu3qJXrmOfEJjwNWrkPbV2wp8QqPhzKDr55jyr0sPWNS/wwuqIw5yAQa5DoU9dSIl21KXDWdUKVOjMO0ouNNjwQ7yf8DZinhXOwzG2sm+kFSFkLx1tLcy166z1X1VbXJYSYEYwZ9KsZlZRW/3LtNpS1V25cbKUdQUfvEFqbfkCPv7VaJg6ACIjKjJp8zHAv2K45o3jv9s48Jl7Pgt4mYQMAQM/MyX46Sn2EveODjiEAS2Hc1KcaM3juxzwp7b0nCmIlbAAAqEPE++gK0bX9dPJsVBC5nkIFAIC8cCJqzc79nAbfuiM8+4YzATACw428SSoPLHWd/chz0dctHwZIgAAAHWJGVP3z+nRtP5JZWA4f3AECADSkn4iKwbc0HDk4JmGDIUHPSYhhR97qA/spBRoqAAAQwH7agAQIALBwYD/JuDNxJEAAjAZG3vIB+2kGEiAAwJKZn/3M61lUJEAgmr2tnSZvSq2sCArRf6icn/0I8rTKF6fXfn16bD5eNAGqEEfMV2ryReXG6e9+zfLDQrtVx0gcbEqp6HMYoch8wWsuOrxenv24Wzo/7OjblA5T5v5rx0aSHp/72bu9E/dKHnlarRsQX3kLE/dDBf0U6mIfA5JvTxm+r62/JCb0YIk32dAvG41+Fan6CUaGQ6n/qlAv/Tzf42KW2U+PkAnQMg0GmFSz2yFfONsYTDrITVL2o7+baJKyTDoCxFf6t+or11uPiLch6b91/cq7W1dRQ9/CZHY/P/n1n/UXFX/y6z+rv1/71U90f9rb2lm/taHiVJYX0ZvfTnrlumKQqPxtqCIf80xOjtHcLXHqXL/ln4HoxMK6W0KRcxTEyXGVM05RrNZY/oFwTizzesXVWLp+hhK3ABjzV+ZAiwxl3uhk3TMdsoh9ev/LjKL0IJYk3n70kzU5EZPzKEcbXa+7Nk8EUW4iw1VfWV9qyxyXmxSV/mE0siUrN/rk13+2NmbZwPjtR484pg/p+zF3S//WxSQECCNG6PuMCASuGGpGIpfo5Lf6GSC0XKWN8B76ZBJXhLgW6rS7zozrVNPHqH+ud5WEVmNlP8l6j8S1W++3xDlPrLFxuSZxlc2OMh8ZTFw/dMUZIsxOoqgZY+lCWiOel0l5JidE3ydnb0mDb3qYdn1l/VYvXw8DlMSBBKDl5kTf0IoZxOPeY6+2Dy1AhNYEV6CM3jkRBehuL+d2iz24kIW0lsecXODyY3VN+eUpweSKMAO0dCOVABHnPPTEMmuIVTHiesVjjLwxI6wel9dvbkTcmS4RIVMinrec/H2WmnpAXJuJQ/ZgP4XuGer9NflH2zu6RKwxe8FBu40zS3qfrh2qpFD9d/ItvU8XcbGMc8iuLLbJtIto0dd+9ZNPfv1nzpjehOhakXJ+MnuP3GehKMH2HvoWRh3ovCKUPFMPIl6fpzoCvU0XScKWADFbUWVnytUyQ8frsuxW9nyt23g9Rv9trvIwf66j4mNceXIRpPvar34ii1rBOBPPT+ZqeXBsEq4MJpG40bxy5alDnqkHVlwnxXpzhdh/lpOrC5ljndwJBbHlUY3HNQlbDm6kT8LWR9InBch7D9Yk+845t768oZC4I12iPN6fZyxPNBHln0ycybJPCfN81r9ehfBOvKrjJSoGesMvk7h55/H2M5kCYU57CJr8NsE7uSLuUll1zRNn3sELuFN1IMSapmhrNnIcYzKVKBdEQyWmCaTg8oB1cm6Sd46W+nCyQeiNNOZXRMnN8qRH28kQIlHUjONIVlHriTX9hqiu5ukKKq11HNV7fjhEONDktAtxOKRBTxwQ7tDk/eFxaUMiuHdjb6jkTGALQp+oxdzJ2is3LsaJTSCmOwv3ERIZkvXbuImP3t169xzmdqv2Y1Z9mQBN5r8pciVArm/V33V6hdEzCLz7NH+lJ3+EYj/dYdeBCFGqryDI065/ZdZMYuoBvVtOkYKuV7mcxlKFtBH16AAibBEyQ2nTykN8lVhUTsDcu72Tx376mUTQC2ue74k7PXhGFTTHVT8XVznxqGkUTPtJfe5HAe/JxWKX4QEAzJcIR0i69xP92/E58CRA9EJwAID2IPUJIcIRsOZbj8CZAADDA/tpBj3CBgcCAIwN7KcYyNwBmC9ov+WB/ZTEV4ORAIEOEsRPDAAAIABJREFUQcWD99QB9tMYTHIDACwT2E9h0rpR6IcCUBukPrWA/bQHCRAAYIHAfsqDBAiAuYDUpyKwny7AHAQAwNKA/VQBXSoA+gfttC6wn15AAgQAWBSwn1owOlaYgwBAM5D6VAf2MxuQAAEARgL2UxEkQAD0CVKfFsB+6oJJ2AD0BrynEbCf7kACBABYArCf6iABAqAfkPq0A/bTI5iEDQAYHthPCzAHAYAeQOrTFNhPIzAEB+bGaF0ieE9rYD/9MlprBwAADdhPO5AAAdAKpD4dcLJ1AZbNgRBr1Pf7T57BZkA6e1s7rYsAFsr6zQ3XV8h+ZgycCXCA94CG7N12Vj/YT2t8gwCYhA0AGBIMvnUAhuBALdZvOUdCFLKy/eGnL8v//uyPn8s/Cs2F2Xp3U/5x6/3tEvu3CN0vLHRlEUIqrbEOrxFJj2LtlRsXcxQPJEM6EG0/mCMHCPTBN9p+ZIC+/IM967cPvljP5RDKCVzUE8oUuFWAXpQQ4UC6/bj8CfbTDaT9CNKBYD+AgGM/epgm7Ef+keINK0JnLUIPnq6rv+sJJYRsPUxfPrtnjqc/eHo+u9Dmmd3Jt9tfntf/W03o6tXfyj8mHgP7mRtIgMaFuP9vWsLe1o7LJ4ivONLmbznGo1AOJMK9wesHK0IJJhQvFBiyDeMRxL3cFBNSQqYZmOj2UEfI6kAc+8HUg54gpyHAYBaCdAurXRFfxaEi9eUf7Hm9Z7KZd1zLLnR2z2sJk83qCfmGm1aEroQJbZ7d3Ty7myLEsQS5mdqytNClM7tCiHv3bshPOPd7dGA/nRH7NBzmJsyC9Vsb5r9WhdG9J+iHoQ6kW0KYUKADZRDixWu5mWE8ztarvgh1ILnZ5tldpiUoQh3oUOhMgJA8qBQHgv3MCUzCBrmI9h71K/lDrzFEW8LkV0whZi5CCfnitfKe1Y/93iPhO5DynrheKd+BlPfEyCQ4EOynP7AcCKhFnPdM4KQmcZaQ/tvsQkHDWS6UAxUXYjhKFqE4B4L9dInbgZAAgXToCdZcDvzxWmUkSUJHeyB8LrOQLyJHpz4K6UBeoejU53gPZ3hCgamPWaiJA3HAY6e94n4WFU+hjs36rQ16ckGW20W09zz3b7/T//v9399b+VqLPZfP7j14ur717qY5P41jCc+9vir08XuuLWsLXdk0p41xht2ee/2O/t/vPr7uEto8u7v99Lz1q+NhNzcn3lgV+sgpRMAZdgsVWr+5wcx+YD+jce6lU5gjNyS5JrzRY2UT49E/PDShTIPDEz/QPyS8oW+hO+aHJ16/I0gTsvrcMbazPfED/UOrN2ye2d3+8rxHyAYh9K1N6NKZ3Ydfnt+6ssl0IAy+dUzsEBzolr2tnck/emPzw6Iz5azes/JtSe9hfttWyJX6WL1HcYL81oor9bFaAvNbu5Aj9aF3dTJcyLKT9F2AgviWg7OCBGhGWB8j9Y6/JZJlxsHx3s7uCSEe/8e//OyDz9WHf3jnZSEyTxmoLfRzr1CqG0uPmYylv//THwqxm2P3mtAZKfTiitA7Lx8K5UMmQMyNkf10j6MKYg7Coqgw8kanPofb5MhLODuZm5A/FSASoPd/+kOmECe5IbZ5/52XMwoRCRBzNh2ynzkQlQOBrrAOmnlNZZIbNXxGFRgUfkJiAQ9gIPuZCba6iARoYAo5DXNxHeAD3pMBZD/zwZYDYRL28CQOu6F6gG5B9jMrAvtECD2zZpIA8fOhcy+dUv8KlAsg9ckD7Gf2YJJb53DmWKeTbjnTZ0uLkfdpm+pCFnP43v1Yj4J49Ccvcc+fRmB99CcI2M/cQAI0W4Ie+plgTX0iLEe9OXvKAatqEQFdn6Ns/jeU8YQI3v3jP5hbJlrLu+xDiBaSs66Zz7fCfmaIESYwB6FnUiYRmL/NP7CmGQ+dLri+ffB0/cHT9f0nzyb/5OdBuwoW2n+2v19MaP/Z5N+Dp+sPHMvk0MmN69vtp+e3n56fnLe3/+vT7S/PbzuenqGNwfWt3OH+k6/1fylC6amPwNSDuYKp2LMi0YFK3cWxpTsyIptPw2QfyPr+4/esz9wECPFGAjII8fju4+vWh3uyD7t999F163M52YfdXEJZvEcIgZdtz5lVB8LbuEcio9988us/q79f+9VPxOED/HmQaYfrfdi5FqK2CK16j2Mx0AQhx/DRkdDKYgFxcwXkeqO0UPQ7eFaEyAGxrSubXhXmAeojb3jZ9uisVgoYzNypM2ONHhabBz3NDeupLJG4xt8k5Q4Q9jNz2FUDd4D6pPIkadlHkTlEugPRqU8pIVudlz3ubELuO+dHQofxOjo006mP+oo2BpaQby5ALqGgSQcS2M/80VoAEqBZUC3Lkf+s36Ybg9d7igi54326A3m9Z3Xj+Hjt9Z6VjROMwes9XqGIYTc+sJ8h4NURJEANqWw5/I5IXLyO+FUGIV49L31EKsjGORDfe9Q2cQ7E955EoTjvEZh6MBRHMxEwB6ETao6nEegPGJlz8NQa2Pz79ipSe1MfUyhodsCKEM971FrLMYcTEkCVEP1OUh31btNIIfY0BOUiiULeU/7QLcSZegD7GYs1IWA/TenEcnRo+xGrb2Ggo3ac8YQK6YmId8zNLsQzoRWh8M67YJuQ/lLtVCHShPT0JV2IOOsPfUKwn6WyBgeqSoeWo+O1Hwn9Em6dOO8JVREhSY9FiPfKGREbpiFEC8F+FgzpQLCfdDq3HB2m/UgIe0hxnUihHHN+iWCaGKYhRAD7WTTnziEBysyMLEcnyH46YoAHahYMx36w6M6w7O8/ox0IcJip5bgovfA2AHxgPwvl3EunkAC5GMxyAOgT2M/IIAHiM7DlrN/aQNIDWmEdeZPAfpYLEqCBLWfCPG754GbPwoD9DA6dAC3QgZZjOTMD3rM8YD/jgyE4WE7vwHsWCexn6YyaAMFyZgO8Z6nAfhbBQhIgWM7MgPEsG9gPmHcCBMuZK/CexQP7WQojJUCwnNkD7wGwHyDpPwGC5QwCjAccAftZELObhA3LGQ14D9CA/SyL/ofgYDljAuMBBrAfcEyrBAiWMzjwHmAD9rM4PAmQjBRrzu9zActZBDAe4Ab2A1Y4d+7U/v4zcVDEgWA5ywLeA0hgP0uEdQcoUxoEy1kiMB7AAPYDphwmQJKoNAiWs2jgPYAH7GeheCZhTxxI+E0IlgNgPCAI2A/gYTMhWA44BMYDwoH9LJeABEhxIOo8NgTLmRPwHhAF7GfRMJ9CheUAOzAekADsBzip4DqwnLkC4wHJwH6WTv1leGA58wbGAzIB+wE1gOWMAIwHZAX2A0olQLCccYDxgALAfkBODifLlV8yDlQCxgOKAfsBQqQlQNb52ULAhGYOjAcUBvYDYrBYjglMaKbAeEAVYD+AC8tyTFQsgw91DlwH1AX2A/xEGs8EJEPdAuMBLYD9gLrAhLoCxgPaAfsBLcCIXHX2tnZaFwEslPWbG9bPn6tcDgBWODj6B0oC7wEN2bttr37IfkAfIB8qB9wddAnsB3QGfCgXcB3QN7Af0CvwoTh8ruMaiFdsXdl0fXXr/nZEiSA0sJAaWDPrlWvMTQH7Ad2jx1NYkZVMiQ4Ra/QN0gMchIYRWr+54bUZF2uv3LgY90swGMSiO3me+8kLfEgEuI4eIKzZjx5rLp/dc+3nwdN19XdcgPMJHRwJnc8otHl217XZdl6hM26hL8sKqbrwMKvQpdPOI3r41bHQ1au/FUbVomvd3u0dzHwD8+Rg9d9CKHPUKtxcPrtHeM9kA2/vOFBo5ZAun929fOQZKUKbZ3cJ75lskCR0ZpfwnskG2YX0unDpzO6lHEKXzuwS3iOEuHT6eIN7924IxmjbBGQ/4JCZZT8EgyVGOWyG6IfKcEO7jhWVCTG72KQQdZAyE+J35KUQ7TpWtuOESNexC32ZU4g4dw9DhHTj8ezXKMLDry6IoxxIHNUxZD9geRzMOTeqW/ho7wn9lVvIf5AyDWJ25CO950CIg8P4HiYU7j3qVxWELoUI6T8J8h4hxKXTn4mjHEiw0yBkP+CQcbIfJoWTJPNJz/Vbqx3AA/+sIWIw/Xi3vplswtEPTfEehcyB6P61QygswnFSk3jv0eCkJimWkFeIcxI5OZAUivOeY6HVHEgH2Q8AGmaekS/tsK8yUCatiZt3lMV71B6I/nWi96hTtenLgbJ4j2CkJlm8J4sQ8yR6c6AV70lgkgN5gf0A4MDrT45/ESvcMC3ElehEz3xtQYD3Fh83ndfA7Cqlyh6b+uhwMnKB534AKASzBUbsdjJkF+E93tTnudd/Z374/cfvWTe+fHbvwdP1rSub5vDOqpAlWj33+h2b0HVrYNs8u7v99DwhRKQ+J2xC33103brx5pnd7S9JIXeicOKNGkIHQpy0CX3rELp0ZvchKUQMu5180yb04TW70OnPHn51YevKJud5IGQ/AOSkVSKSUdfqPcTnDOwZj9V7iM+jsXqPcFhFkpBjh3mFXN4j3J9HY/UeIcTJN+9m2Hn6LgAAEmIqAee3cQlTymPnJrTHPPf676w5kMxvzNkrl8/uuYZoaI858fqd7z62dORlfnPupalQaN5z/O0bd6ypiUw7zr30ovVz167qCNEec/KNO9Yc6JJD6PiWj3GhXN5z9O1dVw7EBNkPAHmI9p5cw3RME0qcdED40x/eeXn1vz9MuUNB2Mb7P/0h8d9gIXc0f3/1iCb/Ze6EQzWh+6t7Pv5voPcQyAkInNnesB8AeiE6icllYAnDa6FCmceIXNCpT2XSh+CYZh48BBfbSUgcgoP9AJCT6AE0+ces5rCBqnQw1S0zuPcDAMjCnGcxd8+QJxf2A0ApJqkMnRjlnUFQlyFjY0cUPL9NLx0G3wDoiwgTCvqJd1nrEILXb6i3CN/slvtzMMRB2IH9AFCK9Zsb8l81Oc5mP/vgc9dXrgdLjW1YCwf97IN/6P/Vf2CdVD2Bs42TIyXX854rQoxtsuwkQsg8xa4HS0O38e/kQ4aQe+I1Z5lt2A8AvRA3AcG7MbGYbBRO15n4jf6DvF34d//4D+K/GcXeXbXqd93OXUKoRN5zZVXoyp/yH5FceJQD7v2AI2RlH+xlOXMj+g6QmfrEuY5MgFwzsL93ZCTylTz7+58an/+rcDwT+t3H14lZ0a7UR657vf9kKrQthWyPan730XVixrMrI5HLUVuEvjxfU8i6DOi3H10npla7Up+HDiH50lLrm+W+/fA68fRP4jOnAvYDpsCE0ig9fUDfv0srPd35/uP3Jg7kMp4UpMdMTChpzM0l9NF1YTx2k2XMrZWQ9JiJCWUZc1vlQHrM5PmedOOR4H0/4BBzIRNlQmO+7yc3XuOJeKkP530/+mYu4/nk139Wf7/2q58IY4UCG9yxH/ptpNHvHjWhX/mT6z0IwvcmnspC6e9BEL5X/hwKTROgmME/OfImhfC2U5DAKHOH6uCdV51lP1bOnTsl//F/4p6AkPl9RDISSedIgbkHGdCThHh7qCb0MFko6JXbSUKa93DA4BvwAQdik2u1N/7n+aYVRF5mOvXJDiF06/520FullyZEl2HryubDr85rCVCNZo/sBxyy/wQjbHMiNN2ZsL//7K3//J8HT9cfPF0v7T3pCRDnTdvHQgnpAucF2PWFUhIgZupzKPSVFEoddmOCez/gGMvtHyEEnKkn4ixHv/czSaFU//pyyO2ZB0dewg83SijoPtB2ilDIXRPlJT0LBd0HepgidPqzAKGjmdYTIdz7AWAQEtMdFypkPOBlJwdR3qNvzE+DIrxnRYidNERYQhMhfhoU4T0rQuxnd1zewwHZDzgG2U+fJLrO/v4zuh8q0W8zWDOhiT9F3+/RhayZ0HYJIVveoNtGyu2rOkKT+0DWTOhhCSFbJqT7k0vIm/3AfsAxsJ+uSM911Ix5jv1IOPe6s0w0qCPEvHU/mFAnFwj2AwKA/XRCeroz+YRvP4pJ9Ck3tw1CowrBfkAAsJ+2ZEx3Jsz2VQ5gEKz2g+d+AGhPOeMBoFtgPwC0JPs4GwBzAfYDQAMqpzty6ANDcKA+xL1G2A8AVWk4zlbtxXcAcIi3H/SkZgTiTg9gnA0AHWQ/AJQF0woAsAL7AaAUSHcAIMhgPxjYaYj1fWWTb0FlkO4AwKFG9kMs3pD3Md0FCq3f3Ni7vbN3ewedgB6A8QDAp6z9eFcNUhskRu0lC8GBegDjbACEUsp+9OhJvzpCrpwqt48I2StC5Msw5FqwWYTo13tsVxdSDiQwFloXpDsARFPkfT/6O4u8ry3Stwl9s6z+Fibvi5j0baKFNs/sel8tpW9TR2jryua9ezeChEAi6W/f2d9/Bu8BSya//cgAyjEenQgHOhRiGM+KULgxyC05fqAT4UCJQtKBMN2gNGHGczD9J10HxgNAZvtR3hPx2yAHOhLajXgreZADKZOLePt5kAMp7wnXgQPV4NxLp+Q/01Gofxr7T55h7XAAFPEvXFAxTt1sSPEeBefVrcfeo1gLF2K8jFZ5T4IO6/W6Kd4zEbp1f1vdBDKvkQnhVa/98ifyj8SgSduhtWzETIr6kyxc76FgAssBwGTv9k6Rez8pRLpXQg5UWCfVVEKF5EwEwcuB6G0++c2f00vlLYa5AfGTyondYboTC9IdAAiy2U+W1Ecid+IasLKkPpJYB/IIGeYR7UC0UBaXmjiQF+9m6Q60fnNjdpPxjsfZYoHxAOCl3qI7J9+8O/nk2w+vZdY4EGJNnHzjzlToo+tx+3NlSAfCoiKE+C5WiPCeE7FC+uAbvZn6+9xLL6q/P/nNX7y/5TOXdRkwzgZANfJkP7L//vbpz6yZwck375reQ3wu3AmQM/U53OEdqyucfMP+uXAnQPRkAdfeTrxxx+oWwm0wtJBrbxFCCUTkezMD6Q4A9cmf/Rys3p93GYwX6UB6f1y4jUcIcfJNezj2C53ZtQi5g7jLe7xsntl99B+vvvvB55MPXdu7DIbD1pXNvMv/jEpiuiOQ8QAQS5GpB0G95Wh/CiXaNkJJsY0+hZpQelwuS7oD7wEgmmz28/bqpIPK4zXRqU+wEKylPEVvFGGcDYBOKDj14ECI52tlNnm5/87LdYTeryXkxRXZX/vlj0tL0D8xrShlHh1mFgDQD1089xMy/mY8Sg5mjtVOSszVjvYejLMBUIIu3nYaPgP7IGr9AS5XPvi8WgLUCTLcmxOvP/nNX3IlQKajyHyIuYpB4shbnPfAcgAoR9ns55vsT/Ycs5IDffth5AM3oTAfIWImaJNZcDrRjxDVRL7lIdoYIlynzhOsSHcAqEA2+3l0tFZbRcJH4SqO2w0/SqgbQ4lZak3WSoDrAFCN4oNv33x4jZ6A4Bp5k2uP7j/5zPxQW9rneBTu2w+v0/PfDjMkY9xOrj26/+RT80Pr0z/ffnSdnv+mZ0i62rZNSH5offrnu4+u0/PfZpEhZaHC4ghwHQAqU2PqATEER3sP78HJ4xyDGIJb+UrLSh4erRLNENL25o775lcyDdqOEiIMxvVVnFAE1bITzrrd0WCcDYBW5LEfGeyI8bdvPrw2MaFvP7wWseabFHo4FVpxoIkJmZ+s/oIUOnpXgsm3H12fOI35CQcptO0W+u6j6xOnMT9phVxOtNyiorNbqxQAwKfqzDfpQN4payGpj2JlTI01E+FAPPwqNVFg+k1cjqXD9JuI1KfCuFYWCVgRAIORbfDNmwApEm/IOxKg9B07hNx5SV4hIgFqSMbHTl3QvgLXAWBUcr7tVGhLX/uFHZ8zUx/364W4zwMxUx/XW3/4MFOf9Lf+mKlP6F2Tybqriv0nX0eXqhNcz/3grg8ATSj1ttPoHCh02M2RA/nToNBht+gcKHTYLToHqjbjAAAAspDZflT4i3CgIO9Rm9kcyNz3RCggUh8LhRtDkPeozUIdaPvL8/AeAMDsyDz4plBvUfMOxK1pFhIRQJUQZyBOGk+qEGN8THlVihBnIG6bFMLgm0I7tJVagcE3AJqwd3unlP0I4z2epg9NMqTozvtEaNWH1oTmOpmFDHuYZEhZhFwmpCdJLiHYj2LgQwNgjuzd3ik48VrGRBVJieG4xFGjiZBjOK6AkHuULK+Qd0sAAJgdxZ/70eOjHk+zx81RhWS3XX8zkFyodLJ4DwBeKjzjBYAV6wBMhsE30D8YfBv40JigwYK2TKJQqYnXAAAAAE0Xr5sDANSEv5aEGl4ufZcRQvMVkom1tVLROXf84BuoQ81Ro4FHqAY+NCZ6IKDtxzvnJVeYg9AwQi4HImpd0sRrUAfYTxYGPjQmHPuZxBpz0j9nuj+HVkL0wxI5hU6vCOV69sMmZHkjWgmhyZMz5mMzVgeiax3sp3dgP1kY+NCY0IGA86iZDv28M0GQUIoJ6ULeR8VTTGhF6LRP6KtcQtTj/Aer9pAi5F03QBe6evW3YrV2uWqd/BxTDwBYOvpCG8xFb9VmnKfTooX0zeKELp3Z5SxTom8WKXR61+s9k81ihT7zeo8Q4u3TnynniBPS90Dw9unP3j51uNm9ezcEY46l2gD2A8CiCVrkSUd5AzO61RcKXag+1IF072GLHAhxcCnQGMilxaZ71wl1IP5iaRNJvgPpY3SwHwCWS7QlKJjGkC50KVAo7iUpKg0KEArzniMhtjFEe4+E70DR3nP4K4YDTe4PjWk/e7d3Cj1kJ/eMJ/jmhevGD5CkvGVKwelfxwlN3qHCEUp5QVeYUJT3HP2WHeVjvUcSYCex3nP42yMHkgYziZPm3IQx7WdCXrdYv7mBV3CCAUh/w6HEu4dooYnxeE0l/eWQYUJc73G+hEyaCuFz7vdqTgVo3uYJpXjPodCpQyFrkJx8OL79IFMBIJoTb9xR/4jNgu7N0ELyv66A7R0Z8zrHyTfuyH/0Zn4hn/ecfPOO/OcRchsDx3tOvnn35Jt3n3/z7vNv3qWFCAfieM/zRyrPv3mXtrtJDqQwDQmrHgTj9TPkRqB/vBmJ6Tfyk+8+ul5USP7320AVwTC/ieWcLCe0ajkn37wrhPj2w2uhQj6Vu5NPpAN9k1vINLbnL94VQnzzN0po68qmd8I37CcYuAsYHiLXOfHGHasDbZ7ZjXhVvEuI8IZLZ3ZDXz1M5DqU0OndyeOifiF3rnPyzbsZHcj0HsXzb97N6EBEUvX8xbu0A3kZf/ANAGDFlZHQ42w01sygmlCWGQeHHI0v2YUCZhwc4/IM6/gb866PFZdnWMffgu/66EIXHUKnWHsb2X70KWpqxlr61DXcTAJzhxg+4lgC3zYShbx3aDhCnJ2sbOOcKOAT8t3mEWTWwoezE++tIA6cnbgcSDBGKUe2Hxq4CACt8M7UagNpPD3QfQHDGPPeT7nbM/3c+Dn30ovLWa8MjEHXoTO1cMUPruuzF8WY9gMA6IrxQqdGjYMb8gQud/ANAFCHIUPnEfCeeMa0H/6Sq/3sGYAeCH2sZ8HUuBETrZFh7jVPOGXu9Zj2I+ATALiRzwNGPKYj4VsU8eAh53lP/jOhqUIfhgpZYjPnsR5im8khEEeUaC0soQMh0qxFHL3+h2BY+wEAxEG7i/XbgyMzs8Yy11OitDG4vn2YXcjhPfKZU7vQ6rs+tV1dI4Xs37r2JoyXiipoB3J969rbylerCRftQK5vHz1zCunAfgAAU1wONPn8IHkEymUMEWvheIQcHsPPe9hC14I+j8blMUm5ke1aujwmMTcSy5n5tnd7p8ScaevrzQHon1v3t7eubG5/ed61JIHLgULNRgo9/PK8a0mCIKchUh+n0FGJg5yGSH0Ohb664FqSIMhpZOpDCD366oJrSYIgp3nEEXKsVhDkNDL1uXV/++pVz5bIfsBywYNTfOhEh3CFlgz2lObc8PbLYT8ALBTOBATO8JrXe+RXoeuEJgmlGQ+R+qwIuW+lsIWcGYkuRNyzYUKkPitCvHs2lNAzj5DOyINv1nftZd9txj0DUBnrEFxQ3GaaincILrPQV+fjVgUVR97DFnIOwTGEWJHaOwTnxes9K0LPnENwfqEQ7xGj2s8SFt0BIAvKgSKMQVkCJ+KkOFCQ0OFPohxIeU+IUIwDRWROcQ4UkTnFOVBE5oTBNwCWjhqzChofi7CEOkK37m8fDY6dD3phT6j3aEJhkVdtzxeSf4R6yaNooUAvUXlP0P2/tVduXAySAZU599KLrq+y3zl3ac39Fv2oxxWEPkRsTeL15fHpBCXCeNoLkZlQRNJjFfKmQaHG4xLypkGhxuMU8qVByqisQkSt27u9g+wHACDEateVyE4SLUGw+8j1hNK8R/8hnQYleo9gp0GJ3iPYaRDtPV6GzX7ovl7K8zquR4iUYt77Q8h+0hn1uILwZj86W1c2XXnJpf/6NGOpqgk9vPqq7eMDIcSle5F32h1CznidV2jbLbSZV+jf3UL/7RGis58xpx6Yc97UkSeahGuSGya/gZG4dX+b6PfMUejKnz6voCKEuPKnf9QR+j/VhP7/UkJj2o9EGoz+vu3JVym71dFzqew+9Mlv/hJRpLmQ66LQ6OfwtV/+OPv+ORe9q2uE3hLogZHtR6fQyFih3ZqooKki6Wu//LEcO9q7vVNoSaGiuB6fKnSB5An85Dd/kSewhAkBAAjMMLUU+5EUitE1Q/9rv/zxJ7/5y9yjp9W25YcZrXTiPeLo7IkjF88l5NpPV0nG+s2NrsoDFoWsfpPWvRT7ye4Q1fKe8XBlOWr0MosD6Sr63QWVBiXun6Mu6aeGBJWk2nyNwYSqzRWanZDpQJh4HQO8JxHivGU8pcSuCqWPsnUp55P/SgiBblnUdMpQJjfIR85+9B6oddghZfKbawIC4FDnXNW8In2mOwD0hsqBxKj202TNt2pBZ+43fqqhroh19CDj+BtncVt4EgASlQONaT+gc+hYjDwSgOFZv7kx7KoHIzHYvdn6jHpcRRmv1kEor0qiENZ8AwAA0IZF2I8+Hyl9V4kbAAAAEKMYM5FiAAANb0lEQVROPZDUea4eAAAGZv/J14XW5RvWflyP5uiPZTQoVjimiZZ7ZqWCiilkJddjp6VVlJZ3MsVc6ptovYTdZEZiFiFvI8p1gZqfuuzNdnJmrPNFo49oTPshDKbco/WFWL+5oboe+oIx2XUnQvrichlVBFnsjEOXusqk71Z6yYMxcF33/SdfFx1hVrrZhfSFE4uuXDVZobHQEVl3pdftcnEp1xGNaT808709M6nW5cxPX5mmkNtNqPDYZul1rwEQq904QDOm/egP1gotnA3zaLqMnrLrUdqEhOZ2JVRKr2B07qUXKxjPfPs0DcFJS2Hic3qmNZcnCsa0H7G6vu+klieGOdeMhsrUybJFyaGqCr2Baje0AAChDGs/wvb+t1lnPJISN2YrC+XtDXBUKrgO1nGIptVNJsCk3FUY2X4k2e/PZ9wbB+u1L5FiE0JFqbBCmiuBG6A7Uo7hJ2hUOMC200ezYL6yJGMxxrefkag5doRxqsVS88V01W7U60LqrYMgnZQ+HNZ8mwHNl5AqoVWNIQ+qAs1rHYTGFsKabwAAANow5uCbdy5y9GRl4rY5XoEKAAB8kP3EgFedAgBAImNmP0WR3mN9rqjoU5mcUqUL6TMOzNuzudbF8vp3lsMxd1JoNrl5jUbNgOssgQGhdJVZCI1sPxUykmoDbtZVpOR9v0KHWXS5KivWxSmyo68nlAtzDHZey9rSFOqFQAhCI9tP/aUtK4A5o1kodxr1h51nfTtwcn7UGct+LIMJWVfXHlLotV/+OHGK3cj2U4E5hpUeqPMCAlOl2sNMk0xuvi9cKHrGILRwIdhPMPr1qPDEfmWqpVaTiJz9pKllZ1s9Pzvf1Z70+5rl3rsBIQiNaT+c1j6viDAS+iuXRMkLIVvO5CaWZNbrqFaAeMtU3kyuB6G8LEfok9/8JfECYdWD3jEnpCn0qQdZGiqxQECdMWVFuRVOS6iMlwQL3zv6Mh4dhJYptHd7B/YzA5ovrSGOZr5lD6kVArc8KPO2c8azN0bGM4GodXlrAoSWKQT7mQed2E9erWpUO3uD0bzWQWhsIaz5BgAAoA2wHwAAAA2A/QAAAGgA7AcAAEADYD8zps5rIgEAoASwHwAAAA0ou+pB3Mqe6W+Bg1BRlfGEur1ANRnv1EGoc6FSz/0kLinNPwwIQWhgoWqMd+pShIIuEITihEo995P+OgPmHiAEoYGFqjHeqUsU4v8cQik/z5/9pL/jhLmH5QjxFyOYixCfdCHmA9u9HVE1QiuD+aB7oVrXXMh7gRKF+DVhPCFRIvvJ0rQ4b72EEIQGFqrGeKcuoxB9gdKFmDVhPCFFTvvJ2K2jDwNCEBpYqBrjnbrsQq4LlEvIWxPGE9LJNvjGKf3WlU3r57fub/P32Y+QSyW70PbVCy6hzXufzVGo2qnburJ56bS95Je6PKJqeNUfOiqD67y59hld61xVrr7QZId+oX93CP13QJXjCD1wCF3OL3R+5f8HR0L/326Q0GSbPPZDixEtU8faSid7XqbQ244AKoR49NWFOQp5ySjksp+H/R1RNThHRJ83Ub7WPepJyOzUU0KnHELPnELmbjlCbzmEHucX+vT4o4PjPx9//SpfyNwgg/0wG+fKAazy+Nmr6m/iMBQ+oZVLsqb9rS5/FiFXJcsv5HMFq0rPQq7QJtjRrQch3XjShao5EKFIHJEWczJUBl2oaK3LKLSuvXbaI8SIDHS8Zgq57EewHYgtdBS9DyZbxTtQBvsJdk43yoToeB3RFxAOEwoV4hiPTgYhd4NZEXI3nt6EiDCtQ4TsgYUqOBAn3KgjMkLNCpyEmBYKqnXFhQ4OG2ySUEhk8HZMCSEi1uk8ziDkNJ5jlSgH2ss18y3de/QtzdEMtf847xGrp05VkVChyc+9pArxGqe+ZZBQaBRIF2JGan3L8YRM6t/7oSvDgRAHPu8RR5XBOvZYotYVFDo6Wtlg44UCIwNR5WghpvcIcSCDaoKQ33uEEG+9+OlbL3qErDMRSq35Fuo9ktDtBc97JHqL4leUiVDoD+OF2I3zUChw++gfpggx45qEH9kTf1hZiHmvqAlxlYF/RBHeU1DIVh0JB/IIRUUG2hisQnzvOdre70AOIZb3KLwOZFJkzTfCe164+PvJJ//82y/0/7516tPHz17durLpmi9kE7Jcjxcu3jWEromjM7kmxNunPnv07EKQkLWGPb8q9M3frk02iBGytZnn31wV+tAQOv3Zo6/mIXRgE/rWELp0+rOHgUJWSzg5T6FqVKsM6icdCaU1WPUTi1DWyCDhxLpJRBWBQVX95PCvI+95YcMI3TuG0IufPv46QKjskqM6pvGoz1McyLbDu67P/3lUAw7CHcjkeZuQ/HBS1VKFVhuM/uGklUY00RQh5m7NKGAVOnkktGZ+58NlCSfdQqY3dCVUDZf38CvDvIVsDTZMyLAEZmRgDgMIdz/bGutkpDVNKETo00n5TO9RH5omxCf/4NvhAbz46UrpHd7D+dYjtHpJXN5jfssfBbJWMmsNY37rEVptNtY2w/y2tJB3jMK6gVfoQBsXCR110bFaguvblJGxakLVCKoMKdeoF6HVBhs6BEfsyvqtCj5vJQj5Yt1KUHUNwTnxeY/rW9cQnJXC7/thx3jrySoBfc0yEudAQoR0iqRQlANFkEWIs5MsQrQl8LfpR6gcQR0R/jZdCB0IcVCwjQT1SlWJIgjqZ8dhzxxI70mkxuvm4pIbwbDQ9EvC7H1EVDLrHrhCR7Yd0WyYN3UjAkEWoQj4Qgf228lcvFMJiLs+eYWqUS0JayAUWA9CG3X0EYWGqQShgs6xIhRrUUXsR+ZfodQ7WV0mQJZKxm48pnkQVTYlEFQTCtpbNaFcxLljz6R3MjILaac4bhwiYs5qnBB7JtsxcREsYkipaOoj5vuy7fF6bUCn2ojiydVbTRwOVv9FCEn6rFrzGssFXSGr9wY7/Zir/RwxXj8SAADmR0Qsnqv9aBOLo4f6Q4VA5ERYCFmF+qxaA575qEnVvQqVDXfR6GXa+fpV53arFLGfx2x5nbiJ6kcEXJV/dlkdU4JRUGjLG/UWJQRc8B8Cm43Qs0pCj7lCxyEuLlTqKzszSXmmh0ON7Cf6GLyBYHJCI66Ka0m+CY+eXdDNLaKbQ6xmaG4WLKQVjtk+J5tFdEU7F4rAuwd5+SoIVaOa10YLrVQYRg8zXiiwUU+E+P3f0O5v9BGldegD+L+xEb6XwbfJmYowarbQtejfBiW9tVP+lBnHTKFZDctwdjIvoXJEdBHijiiyLxJetyO7ceFIIVW0ciMr6V1tL9LnJmNXRROg/PYTcQxxR3goFHJV4irHkdBhPZNVja7QcdX9sHMd0nKShEJigfVbb7/MukGQELHYvpfxhKrRy6n727WVzJ43hODcFfvbIKGJLdJBZvItc/TFsSs61lk69JFCZHyepD7yxg9TqF7288+dX5iHcfyh1rtJOVNCiH/+7Rfmhfnn366Z1SL62svCfvO3a2adtn6Y0mxc+ywi9OE1MxxYPwwaPjI35gsxcQ2LzVeoGp2eOlv1DhMy7qnw21GQkHnzxhptrB8GCk3HhByxzvJhmJBx894avf/vzi+ih90kRZYcvXV/e+vK5uOvXzWfP/UkOgeHR84MoIdCz141n6havQCWRSyDvOdI6IL+jBgnDRKBliCFHj27YD71VkToqwvmc3ze+BLU24VQtFA1Kh+RXShr9VY/Kd2OJJPIIPGaTUT3lxHr7L8KFnJEb3oENCj1EeWyH5eL0kRMmXP1C1aZjhyzZ5uYQtMf0oPSEfNnXH03muiJOqG3waNvm0OoT+/RKX1EastjId59nVBLOBaKakcRQqEhhfkeUptQSJA8cHqPX8iIxnHe4xISuezHKhDqQJw3tlJC/qtyePY4b0EnTpm1nlkbEedl24QQv+XECVligVeI8cZoCNFCJkQdKETGI6JfTe0R4s0m4LwDmxIKbEfRQnwH4ngPKcQLqu7BJK7QUUz29hC83mN96dzaKzcukrv1QwscvzvPvRKDblEc8/QIuZc20i9bDiHnYk16RUwXIpafepRXyL2gFhGmFyukr5qTLlTtlduEYt4jUniEGNW7B6H1mxvMU8eJDHSkZgs5Yt0BqzfPFyLW0dnhCZk/3Lu9k8F+vDLMta04jRNCEBpYqBrjnbrSQmq3hYTM3Y4nZG6Qx344YsJ9JK6RVus+vULE+YIQhDoXqkb/p464AVNZaLLD7EKuHY4nNNkmm/0wJbPsDUIQGlioGuOduhJCroGjXELeEarBhPTNcs58M7O5aOgDgBCEBhaqxninLruQ6wLlEvLWhPGEdDJPvM5yDJwDgBCEBhaqxninLqMQfYHShZg1YTwhRc7BN7MQKXAOAEIQGlioGuOdunQh5gWCUIpQkcdO05sWcw8QgtDAQtUY79QlCvF/DqGUnxfJfhRxRhpx/IMJRXdAINS5UG/GozNYI4JQ50KZZ74BAAAAHEoNvgEAAAA0sB8AAAANgP0AAABoAOwHAABAA2A/AAAAGgD7AQAA0ADYDwAAgAbAfgAAADQA9gMAAKABsB8AAAANWDs4OGhdBgAAAIvj/wGRqnv1Kap25AAAAABJRU5ErkJggg==;movable=1;resizable=1;rotatable=1;deletable=1;editable=1;locked=0;connectable=1;" parent="c-pm6wDFBp0grKCKoOtM-146" vertex="1">
          <mxGeometry width="554" height="725" as="geometry" />
        </mxCell>
        <mxCell id="c-pm6wDFBp0grKCKoOtM-75" value="" style="group;movable=1;resizable=1;rotatable=1;deletable=1;editable=1;locked=0;connectable=1;" parent="c-pm6wDFBp0grKCKoOtM-146" vertex="1" connectable="0">
          <mxGeometry x="22" y="116" width="520" height="518" as="geometry" />
        </mxCell>
        <mxCell id="c-pm6wDFBp0grKCKoOtM-6" value="" style="group" parent="c-pm6wDFBp0grKCKoOtM-75" vertex="1" connectable="0">
          <mxGeometry y="455" width="136" height="30" as="geometry" />
        </mxCell>
        <mxCell id="c-pm6wDFBp0grKCKoOtM-2" value="" style="ellipse;whiteSpace=wrap;html=1;aspect=fixed;fillColor=none;strokeColor=#d6b656;strokeWidth=3;" parent="c-pm6wDFBp0grKCKoOtM-6" vertex="1">
          <mxGeometry width="30" height="30" as="geometry" />
        </mxCell>
        <mxCell id="c-pm6wDFBp0grKCKoOtM-3" value="" style="ellipse;whiteSpace=wrap;html=1;aspect=fixed;fillColor=none;strokeColor=#d6b656;strokeWidth=3;" parent="c-pm6wDFBp0grKCKoOtM-6" vertex="1">
          <mxGeometry x="35" width="30" height="30" as="geometry" />
        </mxCell>
        <mxCell id="c-pm6wDFBp0grKCKoOtM-4" value="" style="ellipse;whiteSpace=wrap;html=1;aspect=fixed;fillColor=none;strokeColor=#d6b656;strokeWidth=3;" parent="c-pm6wDFBp0grKCKoOtM-6" vertex="1">
          <mxGeometry x="71" width="30" height="30" as="geometry" />
        </mxCell>
        <mxCell id="c-pm6wDFBp0grKCKoOtM-5" value="" style="ellipse;whiteSpace=wrap;html=1;aspect=fixed;fillColor=none;strokeColor=#d6b656;strokeWidth=3;" parent="c-pm6wDFBp0grKCKoOtM-6" vertex="1">
          <mxGeometry x="106" width="30" height="30" as="geometry" />
        </mxCell>
        <mxCell id="c-pm6wDFBp0grKCKoOtM-14" value="" style="group" parent="c-pm6wDFBp0grKCKoOtM-75" vertex="1" connectable="0">
          <mxGeometry x="314" y="488" width="206" height="30" as="geometry" />
        </mxCell>
        <mxCell id="c-pm6wDFBp0grKCKoOtM-8" value="" style="ellipse;whiteSpace=wrap;html=1;aspect=fixed;fillColor=none;strokeColor=#d6b656;strokeWidth=3;" parent="c-pm6wDFBp0grKCKoOtM-14" vertex="1">
          <mxGeometry width="30" height="30" as="geometry" />
        </mxCell>
        <mxCell id="c-pm6wDFBp0grKCKoOtM-9" value="" style="ellipse;whiteSpace=wrap;html=1;aspect=fixed;fillColor=none;strokeColor=#d6b656;strokeWidth=3;" parent="c-pm6wDFBp0grKCKoOtM-14" vertex="1">
          <mxGeometry x="35" width="30" height="30" as="geometry" />
        </mxCell>
        <mxCell id="c-pm6wDFBp0grKCKoOtM-10" value="" style="ellipse;whiteSpace=wrap;html=1;aspect=fixed;fillColor=none;strokeColor=#d6b656;strokeWidth=3;" parent="c-pm6wDFBp0grKCKoOtM-14" vertex="1">
          <mxGeometry x="70" width="30" height="30" as="geometry" />
        </mxCell>
        <mxCell id="c-pm6wDFBp0grKCKoOtM-11" value="" style="ellipse;whiteSpace=wrap;html=1;aspect=fixed;fillColor=none;strokeColor=#d6b656;strokeWidth=3;" parent="c-pm6wDFBp0grKCKoOtM-14" vertex="1">
          <mxGeometry x="106" width="30" height="30" as="geometry" />
        </mxCell>
        <mxCell id="c-pm6wDFBp0grKCKoOtM-12" value="" style="ellipse;whiteSpace=wrap;html=1;aspect=fixed;fillColor=none;strokeColor=#d6b656;strokeWidth=3;" parent="c-pm6wDFBp0grKCKoOtM-14" vertex="1">
          <mxGeometry x="141" width="30" height="30" as="geometry" />
        </mxCell>
        <mxCell id="c-pm6wDFBp0grKCKoOtM-13" value="" style="ellipse;whiteSpace=wrap;html=1;aspect=fixed;fillColor=none;strokeColor=#d6b656;strokeWidth=3;" parent="c-pm6wDFBp0grKCKoOtM-14" vertex="1">
          <mxGeometry x="176" width="30" height="30" as="geometry" />
        </mxCell>
        <mxCell id="c-pm6wDFBp0grKCKoOtM-15" value="" style="group" parent="c-pm6wDFBp0grKCKoOtM-75" vertex="1" connectable="0">
          <mxGeometry x="314" y="416" width="206" height="30" as="geometry" />
        </mxCell>
        <mxCell id="c-pm6wDFBp0grKCKoOtM-16" value="" style="ellipse;whiteSpace=wrap;html=1;aspect=fixed;fillColor=none;strokeColor=#d6b656;strokeWidth=3;" parent="c-pm6wDFBp0grKCKoOtM-15" vertex="1">
          <mxGeometry width="30" height="30" as="geometry" />
        </mxCell>
        <mxCell id="c-pm6wDFBp0grKCKoOtM-17" value="" style="ellipse;whiteSpace=wrap;html=1;aspect=fixed;fillColor=none;strokeColor=#d6b656;strokeWidth=3;" parent="c-pm6wDFBp0grKCKoOtM-15" vertex="1">
          <mxGeometry x="35" width="30" height="30" as="geometry" />
        </mxCell>
        <mxCell id="c-pm6wDFBp0grKCKoOtM-18" value="" style="ellipse;whiteSpace=wrap;html=1;aspect=fixed;fillColor=none;strokeColor=#d6b656;strokeWidth=3;" parent="c-pm6wDFBp0grKCKoOtM-15" vertex="1">
          <mxGeometry x="70" width="30" height="30" as="geometry" />
        </mxCell>
        <mxCell id="c-pm6wDFBp0grKCKoOtM-19" value="" style="ellipse;whiteSpace=wrap;html=1;aspect=fixed;fillColor=none;strokeColor=#d6b656;strokeWidth=3;" parent="c-pm6wDFBp0grKCKoOtM-15" vertex="1">
          <mxGeometry x="106" width="30" height="30" as="geometry" />
        </mxCell>
        <mxCell id="c-pm6wDFBp0grKCKoOtM-20" value="" style="ellipse;whiteSpace=wrap;html=1;aspect=fixed;fillColor=none;strokeColor=#d6b656;strokeWidth=3;" parent="c-pm6wDFBp0grKCKoOtM-15" vertex="1">
          <mxGeometry x="141" width="30" height="30" as="geometry" />
        </mxCell>
        <mxCell id="c-pm6wDFBp0grKCKoOtM-21" value="" style="ellipse;whiteSpace=wrap;html=1;aspect=fixed;fillColor=none;strokeColor=#d6b656;strokeWidth=3;" parent="c-pm6wDFBp0grKCKoOtM-15" vertex="1">
          <mxGeometry x="176" width="30" height="30" as="geometry" />
        </mxCell>
        <mxCell id="c-pm6wDFBp0grKCKoOtM-22" value="" style="group" parent="c-pm6wDFBp0grKCKoOtM-75" vertex="1" connectable="0">
          <mxGeometry x="314" y="347" width="206" height="30" as="geometry" />
        </mxCell>
        <mxCell id="c-pm6wDFBp0grKCKoOtM-23" value="" style="ellipse;whiteSpace=wrap;html=1;aspect=fixed;fillColor=none;strokeColor=#d6b656;strokeWidth=3;" parent="c-pm6wDFBp0grKCKoOtM-22" vertex="1">
          <mxGeometry width="30" height="30" as="geometry" />
        </mxCell>
        <mxCell id="c-pm6wDFBp0grKCKoOtM-24" value="" style="ellipse;whiteSpace=wrap;html=1;aspect=fixed;fillColor=none;strokeColor=#d6b656;strokeWidth=3;" parent="c-pm6wDFBp0grKCKoOtM-22" vertex="1">
          <mxGeometry x="35" width="30" height="30" as="geometry" />
        </mxCell>
        <mxCell id="c-pm6wDFBp0grKCKoOtM-25" value="" style="ellipse;whiteSpace=wrap;html=1;aspect=fixed;fillColor=none;strokeColor=#d6b656;strokeWidth=3;" parent="c-pm6wDFBp0grKCKoOtM-22" vertex="1">
          <mxGeometry x="70" width="30" height="30" as="geometry" />
        </mxCell>
        <mxCell id="c-pm6wDFBp0grKCKoOtM-26" value="" style="ellipse;whiteSpace=wrap;html=1;aspect=fixed;fillColor=none;strokeColor=#d6b656;strokeWidth=3;" parent="c-pm6wDFBp0grKCKoOtM-22" vertex="1">
          <mxGeometry x="106" width="30" height="30" as="geometry" />
        </mxCell>
        <mxCell id="c-pm6wDFBp0grKCKoOtM-27" value="" style="ellipse;whiteSpace=wrap;html=1;aspect=fixed;fillColor=none;strokeColor=#d6b656;strokeWidth=3;" parent="c-pm6wDFBp0grKCKoOtM-22" vertex="1">
          <mxGeometry x="141" width="30" height="30" as="geometry" />
        </mxCell>
        <mxCell id="c-pm6wDFBp0grKCKoOtM-28" value="" style="ellipse;whiteSpace=wrap;html=1;aspect=fixed;fillColor=none;strokeColor=#d6b656;strokeWidth=3;" parent="c-pm6wDFBp0grKCKoOtM-22" vertex="1">
          <mxGeometry x="176" width="30" height="30" as="geometry" />
        </mxCell>
        <mxCell id="c-pm6wDFBp0grKCKoOtM-43" value="" style="group" parent="c-pm6wDFBp0grKCKoOtM-75" vertex="1" connectable="0">
          <mxGeometry x="16" y="173" width="439" height="30" as="geometry" />
        </mxCell>
        <mxCell id="c-pm6wDFBp0grKCKoOtM-29" value="" style="group" parent="c-pm6wDFBp0grKCKoOtM-43" vertex="1" connectable="0">
          <mxGeometry x="233" width="206" height="30" as="geometry" />
        </mxCell>
        <mxCell id="c-pm6wDFBp0grKCKoOtM-30" value="" style="ellipse;whiteSpace=wrap;html=1;aspect=fixed;fillColor=none;strokeColor=#d6b656;strokeWidth=3;" parent="c-pm6wDFBp0grKCKoOtM-29" vertex="1">
          <mxGeometry width="30" height="30" as="geometry" />
        </mxCell>
        <mxCell id="c-pm6wDFBp0grKCKoOtM-31" value="" style="ellipse;whiteSpace=wrap;html=1;aspect=fixed;fillColor=none;strokeColor=#d6b656;strokeWidth=3;" parent="c-pm6wDFBp0grKCKoOtM-29" vertex="1">
          <mxGeometry x="35" width="30" height="30" as="geometry" />
        </mxCell>
        <mxCell id="c-pm6wDFBp0grKCKoOtM-32" value="" style="ellipse;whiteSpace=wrap;html=1;aspect=fixed;fillColor=none;strokeColor=#d6b656;strokeWidth=3;" parent="c-pm6wDFBp0grKCKoOtM-29" vertex="1">
          <mxGeometry x="70" width="30" height="30" as="geometry" />
        </mxCell>
        <mxCell id="c-pm6wDFBp0grKCKoOtM-33" value="" style="ellipse;whiteSpace=wrap;html=1;aspect=fixed;fillColor=none;strokeColor=#d6b656;strokeWidth=3;" parent="c-pm6wDFBp0grKCKoOtM-29" vertex="1">
          <mxGeometry x="106" width="30" height="30" as="geometry" />
        </mxCell>
        <mxCell id="c-pm6wDFBp0grKCKoOtM-34" value="" style="ellipse;whiteSpace=wrap;html=1;aspect=fixed;fillColor=none;strokeColor=#d6b656;strokeWidth=3;" parent="c-pm6wDFBp0grKCKoOtM-29" vertex="1">
          <mxGeometry x="141" width="30" height="30" as="geometry" />
        </mxCell>
        <mxCell id="c-pm6wDFBp0grKCKoOtM-35" value="" style="ellipse;whiteSpace=wrap;html=1;aspect=fixed;fillColor=none;strokeColor=#d6b656;strokeWidth=3;" parent="c-pm6wDFBp0grKCKoOtM-29" vertex="1">
          <mxGeometry x="176" width="30" height="30" as="geometry" />
        </mxCell>
        <mxCell id="c-pm6wDFBp0grKCKoOtM-36" value="" style="group" parent="c-pm6wDFBp0grKCKoOtM-43" vertex="1" connectable="0">
          <mxGeometry width="206" height="30" as="geometry" />
        </mxCell>
        <mxCell id="c-pm6wDFBp0grKCKoOtM-37" value="" style="ellipse;whiteSpace=wrap;html=1;aspect=fixed;fillColor=none;strokeColor=#d6b656;strokeWidth=3;" parent="c-pm6wDFBp0grKCKoOtM-36" vertex="1">
          <mxGeometry width="30" height="30" as="geometry" />
        </mxCell>
        <mxCell id="c-pm6wDFBp0grKCKoOtM-38" value="" style="ellipse;whiteSpace=wrap;html=1;aspect=fixed;fillColor=none;strokeColor=#d6b656;strokeWidth=3;" parent="c-pm6wDFBp0grKCKoOtM-36" vertex="1">
          <mxGeometry x="35" width="30" height="30" as="geometry" />
        </mxCell>
        <mxCell id="c-pm6wDFBp0grKCKoOtM-39" value="" style="ellipse;whiteSpace=wrap;html=1;aspect=fixed;fillColor=none;strokeColor=#d6b656;strokeWidth=3;" parent="c-pm6wDFBp0grKCKoOtM-36" vertex="1">
          <mxGeometry x="70" width="30" height="30" as="geometry" />
        </mxCell>
        <mxCell id="c-pm6wDFBp0grKCKoOtM-40" value="" style="ellipse;whiteSpace=wrap;html=1;aspect=fixed;fillColor=none;strokeColor=#d6b656;strokeWidth=3;" parent="c-pm6wDFBp0grKCKoOtM-36" vertex="1">
          <mxGeometry x="106" width="30" height="30" as="geometry" />
        </mxCell>
        <mxCell id="c-pm6wDFBp0grKCKoOtM-41" value="" style="ellipse;whiteSpace=wrap;html=1;aspect=fixed;fillColor=none;strokeColor=#d6b656;strokeWidth=3;" parent="c-pm6wDFBp0grKCKoOtM-36" vertex="1">
          <mxGeometry x="141" width="30" height="30" as="geometry" />
        </mxCell>
        <mxCell id="c-pm6wDFBp0grKCKoOtM-42" value="" style="ellipse;whiteSpace=wrap;html=1;aspect=fixed;fillColor=none;strokeColor=#d6b656;strokeWidth=3;" parent="c-pm6wDFBp0grKCKoOtM-36" vertex="1">
          <mxGeometry x="176" width="30" height="30" as="geometry" />
        </mxCell>
        <mxCell id="c-pm6wDFBp0grKCKoOtM-44" value="" style="group" parent="c-pm6wDFBp0grKCKoOtM-75" vertex="1" connectable="0">
          <mxGeometry x="16" y="83" width="439" height="30" as="geometry" />
        </mxCell>
        <mxCell id="c-pm6wDFBp0grKCKoOtM-45" value="" style="group" parent="c-pm6wDFBp0grKCKoOtM-44" vertex="1" connectable="0">
          <mxGeometry x="233" width="206" height="30" as="geometry" />
        </mxCell>
        <mxCell id="c-pm6wDFBp0grKCKoOtM-46" value="" style="ellipse;whiteSpace=wrap;html=1;aspect=fixed;fillColor=none;strokeColor=#d6b656;strokeWidth=3;" parent="c-pm6wDFBp0grKCKoOtM-45" vertex="1">
          <mxGeometry width="30" height="30" as="geometry" />
        </mxCell>
        <mxCell id="c-pm6wDFBp0grKCKoOtM-47" value="" style="ellipse;whiteSpace=wrap;html=1;aspect=fixed;fillColor=none;strokeColor=#d6b656;strokeWidth=3;" parent="c-pm6wDFBp0grKCKoOtM-45" vertex="1">
          <mxGeometry x="35" width="30" height="30" as="geometry" />
        </mxCell>
        <mxCell id="c-pm6wDFBp0grKCKoOtM-48" value="" style="ellipse;whiteSpace=wrap;html=1;aspect=fixed;fillColor=none;strokeColor=#d6b656;strokeWidth=3;" parent="c-pm6wDFBp0grKCKoOtM-45" vertex="1">
          <mxGeometry x="70" width="30" height="30" as="geometry" />
        </mxCell>
        <mxCell id="c-pm6wDFBp0grKCKoOtM-49" value="" style="ellipse;whiteSpace=wrap;html=1;aspect=fixed;fillColor=none;strokeColor=#d6b656;strokeWidth=3;" parent="c-pm6wDFBp0grKCKoOtM-45" vertex="1">
          <mxGeometry x="106" width="30" height="30" as="geometry" />
        </mxCell>
        <mxCell id="c-pm6wDFBp0grKCKoOtM-50" value="" style="ellipse;whiteSpace=wrap;html=1;aspect=fixed;fillColor=none;strokeColor=#d6b656;strokeWidth=3;" parent="c-pm6wDFBp0grKCKoOtM-45" vertex="1">
          <mxGeometry x="141" width="30" height="30" as="geometry" />
        </mxCell>
        <mxCell id="c-pm6wDFBp0grKCKoOtM-51" value="" style="ellipse;whiteSpace=wrap;html=1;aspect=fixed;fillColor=none;strokeColor=#d6b656;strokeWidth=3;" parent="c-pm6wDFBp0grKCKoOtM-45" vertex="1">
          <mxGeometry x="176" width="30" height="30" as="geometry" />
        </mxCell>
        <mxCell id="c-pm6wDFBp0grKCKoOtM-52" value="" style="group" parent="c-pm6wDFBp0grKCKoOtM-44" vertex="1" connectable="0">
          <mxGeometry width="206" height="30" as="geometry" />
        </mxCell>
        <mxCell id="c-pm6wDFBp0grKCKoOtM-53" value="" style="ellipse;whiteSpace=wrap;html=1;aspect=fixed;fillColor=none;strokeColor=#d6b656;strokeWidth=3;" parent="c-pm6wDFBp0grKCKoOtM-52" vertex="1">
          <mxGeometry width="30" height="30" as="geometry" />
        </mxCell>
        <mxCell id="c-pm6wDFBp0grKCKoOtM-54" value="" style="ellipse;whiteSpace=wrap;html=1;aspect=fixed;fillColor=none;strokeColor=#d6b656;strokeWidth=3;" parent="c-pm6wDFBp0grKCKoOtM-52" vertex="1">
          <mxGeometry x="35" width="30" height="30" as="geometry" />
        </mxCell>
        <mxCell id="c-pm6wDFBp0grKCKoOtM-55" value="" style="ellipse;whiteSpace=wrap;html=1;aspect=fixed;fillColor=none;strokeColor=#d6b656;strokeWidth=3;" parent="c-pm6wDFBp0grKCKoOtM-52" vertex="1">
          <mxGeometry x="70" width="30" height="30" as="geometry" />
        </mxCell>
        <mxCell id="c-pm6wDFBp0grKCKoOtM-56" value="" style="ellipse;whiteSpace=wrap;html=1;aspect=fixed;fillColor=none;strokeColor=#d6b656;strokeWidth=3;" parent="c-pm6wDFBp0grKCKoOtM-52" vertex="1">
          <mxGeometry x="106" width="30" height="30" as="geometry" />
        </mxCell>
        <mxCell id="c-pm6wDFBp0grKCKoOtM-57" value="" style="ellipse;whiteSpace=wrap;html=1;aspect=fixed;fillColor=none;strokeColor=#d6b656;strokeWidth=3;" parent="c-pm6wDFBp0grKCKoOtM-52" vertex="1">
          <mxGeometry x="141" width="30" height="30" as="geometry" />
        </mxCell>
        <mxCell id="c-pm6wDFBp0grKCKoOtM-58" value="" style="ellipse;whiteSpace=wrap;html=1;aspect=fixed;fillColor=none;strokeColor=#d6b656;strokeWidth=3;" parent="c-pm6wDFBp0grKCKoOtM-52" vertex="1">
          <mxGeometry x="176" width="30" height="30" as="geometry" />
        </mxCell>
        <mxCell id="c-pm6wDFBp0grKCKoOtM-59" value="" style="group" parent="c-pm6wDFBp0grKCKoOtM-75" vertex="1" connectable="0">
          <mxGeometry x="16" width="439" height="30" as="geometry" />
        </mxCell>
        <mxCell id="c-pm6wDFBp0grKCKoOtM-60" value="" style="group;movable=1;resizable=1;rotatable=1;deletable=1;editable=1;locked=0;connectable=1;" parent="c-pm6wDFBp0grKCKoOtM-59" vertex="1" connectable="0">
          <mxGeometry x="233" width="206" height="30" as="geometry" />
        </mxCell>
        <mxCell id="c-pm6wDFBp0grKCKoOtM-61" value="" style="ellipse;whiteSpace=wrap;html=1;aspect=fixed;fillColor=none;strokeColor=#d6b656;strokeWidth=3;" parent="c-pm6wDFBp0grKCKoOtM-60" vertex="1">
          <mxGeometry x="-2" width="30" height="30" as="geometry" />
        </mxCell>
        <mxCell id="c-pm6wDFBp0grKCKoOtM-62" value="" style="ellipse;whiteSpace=wrap;html=1;aspect=fixed;fillColor=none;strokeColor=#d6b656;strokeWidth=3;" parent="c-pm6wDFBp0grKCKoOtM-60" vertex="1">
          <mxGeometry x="33" width="30" height="30" as="geometry" />
        </mxCell>
        <mxCell id="c-pm6wDFBp0grKCKoOtM-63" value="" style="ellipse;whiteSpace=wrap;html=1;aspect=fixed;fillColor=none;strokeColor=#d6b656;strokeWidth=3;" parent="c-pm6wDFBp0grKCKoOtM-60" vertex="1">
          <mxGeometry x="68" width="30" height="30" as="geometry" />
        </mxCell>
        <mxCell id="c-pm6wDFBp0grKCKoOtM-64" value="" style="ellipse;whiteSpace=wrap;html=1;aspect=fixed;fillColor=none;strokeColor=#d6b656;strokeWidth=3;" parent="c-pm6wDFBp0grKCKoOtM-60" vertex="1">
          <mxGeometry x="103" width="30" height="30" as="geometry" />
        </mxCell>
        <mxCell id="c-pm6wDFBp0grKCKoOtM-65" value="" style="ellipse;whiteSpace=wrap;html=1;aspect=fixed;fillColor=none;strokeColor=#d6b656;strokeWidth=3;" parent="c-pm6wDFBp0grKCKoOtM-60" vertex="1">
          <mxGeometry x="138" width="30" height="30" as="geometry" />
        </mxCell>
        <mxCell id="c-pm6wDFBp0grKCKoOtM-66" value="" style="ellipse;whiteSpace=wrap;html=1;aspect=fixed;fillColor=none;strokeColor=#d6b656;strokeWidth=3;" parent="c-pm6wDFBp0grKCKoOtM-60" vertex="1">
          <mxGeometry x="172" width="30" height="30" as="geometry" />
        </mxCell>
        <mxCell id="c-pm6wDFBp0grKCKoOtM-148" style="edgeStyle=orthogonalEdgeStyle;shape=connector;rounded=1;orthogonalLoop=1;jettySize=auto;html=1;entryX=0.5;entryY=0;entryDx=0;entryDy=0;strokeColor=#FF3333;strokeWidth=10;align=center;verticalAlign=middle;fontFamily=Helvetica;fontSize=11;fontColor=default;labelBackgroundColor=default;startFill=0;endArrow=none;fillColor=#f8cecc;curved=0;exitX=0.5;exitY=1;exitDx=0;exitDy=0;" parent="1" target="c-pm6wDFBp0grKCKoOtM-34" edge="1" source="ZL04CsFw8S_J0OX8PgW3-31">
          <mxGeometry relative="1" as="geometry">
            <Array as="points">
              <mxPoint x="427" y="385" />
            </Array>
            <mxPoint x="722" y="184.5" as="sourcePoint" />
          </mxGeometry>
        </mxCell>
        <mxCell id="dNJTktvSiY-5-ggpWots-30" style="edgeStyle=orthogonalEdgeStyle;shape=connector;curved=0;rounded=1;orthogonalLoop=1;jettySize=auto;html=1;strokeColor=#FF8000;strokeWidth=10;align=center;verticalAlign=middle;fontFamily=Helvetica;fontSize=11;fontColor=default;labelBackgroundColor=default;startFill=0;endArrow=none;" parent="1" edge="1" source="N0k8etCBdQL0E9vIkSx8-23">
          <mxGeometry relative="1" as="geometry">
            <mxPoint x="120" y="160" as="targetPoint" />
            <Array as="points">
              <mxPoint x="704" y="30" />
              <mxPoint x="120" y="30" />
            </Array>
            <mxPoint x="704" y="25" as="sourcePoint" />
          </mxGeometry>
        </mxCell>
        <mxCell id="c-pm6wDFBp0grKCKoOtM-155" style="edgeStyle=orthogonalEdgeStyle;shape=connector;rounded=1;orthogonalLoop=1;jettySize=auto;html=1;strokeColor=#FF3333;strokeWidth=10;align=center;verticalAlign=middle;fontFamily=Helvetica;fontSize=11;fontColor=default;labelBackgroundColor=default;startFill=0;endArrow=none;fillColor=#f8cecc;curved=0;exitX=0.5;exitY=1;exitDx=0;exitDy=0;" parent="1" edge="1">
          <mxGeometry relative="1" as="geometry">
            <Array as="points">
              <mxPoint x="640" y="310" />
              <mxPoint x="640" y="61" />
            </Array>
            <mxPoint x="716.0119856191643" y="57.59952057523333" as="targetPoint" />
            <mxPoint x="760" y="309.9999999999998" as="sourcePoint" />
          </mxGeometry>
        </mxCell>
        <mxCell id="dNJTktvSiY-5-ggpWots-31" style="edgeStyle=orthogonalEdgeStyle;shape=connector;curved=0;rounded=1;orthogonalLoop=1;jettySize=auto;html=1;strokeColor=#00FF00;strokeWidth=10;align=center;verticalAlign=middle;fontFamily=Helvetica;fontSize=11;fontColor=default;labelBackgroundColor=default;startFill=0;endArrow=none;entryX=0.289;entryY=0.041;entryDx=0;entryDy=0;entryPerimeter=0;" parent="1" target="c-pm6wDFBp0grKCKoOtM-1" edge="1" source="N0k8etCBdQL0E9vIkSx8-25">
          <mxGeometry relative="1" as="geometry">
            <mxPoint x="160" y="80" as="targetPoint" />
            <Array as="points">
              <mxPoint x="160" y="90" />
            </Array>
            <mxPoint x="703" y="102" as="sourcePoint" />
          </mxGeometry>
        </mxCell>
        <mxCell id="N0k8etCBdQL0E9vIkSx8-2" value="" style="verticalLabelPosition=bottom;shadow=0;dashed=0;align=center;html=1;verticalAlign=top;shape=mxgraph.electrical.opto_electronics.led_1;pointerEvents=1;fillColor=#d5e8d4;strokeColor=#82b366;" vertex="1" parent="1">
          <mxGeometry x="473" y="-246" width="100" height="65" as="geometry" />
        </mxCell>
        <mxCell id="N0k8etCBdQL0E9vIkSx8-3" value="" style="verticalLabelPosition=bottom;shadow=0;dashed=0;align=center;html=1;verticalAlign=top;shape=mxgraph.electrical.opto_electronics.led_1;pointerEvents=1;fillColor=#f8cecc;strokeColor=#b85450;" vertex="1" parent="1">
          <mxGeometry x="473" y="-170" width="100" height="65" as="geometry" />
        </mxCell>
        <mxCell id="N0k8etCBdQL0E9vIkSx8-5" value="" style="verticalLabelPosition=bottom;shadow=0;dashed=0;align=center;html=1;verticalAlign=top;strokeWidth=1;shape=ellipse;perimeter=ellipsePerimeter;" vertex="1" parent="1">
          <mxGeometry x="385" y="-141" width="15" height="15" as="geometry" />
        </mxCell>
        <mxCell id="N0k8etCBdQL0E9vIkSx8-8" value="&lt;font style=&quot;font-size: 20px;&quot;&gt;+&lt;/font&gt;" style="text;html=1;align=center;verticalAlign=middle;resizable=0;points=[];autosize=1;strokeColor=none;fillColor=none;fontFamily=Helvetica;fontSize=20;fontColor=default;labelBackgroundColor=default;fontStyle=1" vertex="1" parent="1">
          <mxGeometry x="345" y="-153.5" width="40" height="40" as="geometry" />
        </mxCell>
        <mxCell id="N0k8etCBdQL0E9vIkSx8-9" value="" style="verticalLabelPosition=bottom;shadow=0;dashed=0;align=center;html=1;verticalAlign=top;strokeWidth=1;shape=ellipse;perimeter=ellipsePerimeter;" vertex="1" parent="1">
          <mxGeometry x="568" y="-218" width="15" height="15" as="geometry" />
        </mxCell>
        <mxCell id="N0k8etCBdQL0E9vIkSx8-10" value="" style="verticalLabelPosition=bottom;shadow=0;dashed=0;align=center;html=1;verticalAlign=top;strokeWidth=1;shape=ellipse;perimeter=ellipsePerimeter;" vertex="1" parent="1">
          <mxGeometry x="568" y="-141" width="15" height="15" as="geometry" />
        </mxCell>
        <mxCell id="N0k8etCBdQL0E9vIkSx8-11" value="&lt;font style=&quot;font-size: 20px;&quot;&gt;G&lt;/font&gt;" style="text;html=1;align=center;verticalAlign=middle;resizable=0;points=[];autosize=1;strokeColor=none;fillColor=none;fontFamily=Helvetica;fontSize=11;fontColor=default;labelBackgroundColor=default;fontStyle=1" vertex="1" parent="1">
          <mxGeometry x="585" y="-230.5" width="40" height="40" as="geometry" />
        </mxCell>
        <mxCell id="N0k8etCBdQL0E9vIkSx8-12" value="R" style="text;html=1;align=center;verticalAlign=middle;resizable=0;points=[];autosize=1;strokeColor=none;fillColor=none;fontFamily=Helvetica;fontSize=20;fontColor=default;labelBackgroundColor=default;fontStyle=1" vertex="1" parent="1">
          <mxGeometry x="582" y="-153.5" width="40" height="40" as="geometry" />
        </mxCell>
        <mxCell id="N0k8etCBdQL0E9vIkSx8-13" value="" style="verticalLabelPosition=bottom;shadow=0;dashed=0;align=center;html=1;verticalAlign=top;shape=mxgraph.electrical.opto_electronics.led_1;pointerEvents=1;fillColor=#dae8fc;strokeColor=#6c8ebf;" vertex="1" parent="1">
          <mxGeometry x="473" y="-85" width="100" height="65" as="geometry" />
        </mxCell>
        <mxCell id="N0k8etCBdQL0E9vIkSx8-14" value="" style="verticalLabelPosition=bottom;shadow=0;dashed=0;align=center;html=1;verticalAlign=top;strokeWidth=1;shape=ellipse;perimeter=ellipsePerimeter;" vertex="1" parent="1">
          <mxGeometry x="566" y="-60" width="15" height="15" as="geometry" />
        </mxCell>
        <mxCell id="N0k8etCBdQL0E9vIkSx8-15" value="B" style="text;html=1;align=center;verticalAlign=middle;resizable=0;points=[];autosize=1;strokeColor=none;fillColor=none;fontFamily=Helvetica;fontSize=20;fontColor=default;labelBackgroundColor=default;fontStyle=1" vertex="1" parent="1">
          <mxGeometry x="580" y="-72.5" width="40" height="40" as="geometry" />
        </mxCell>
        <mxCell id="N0k8etCBdQL0E9vIkSx8-17" style="edgeStyle=orthogonalEdgeStyle;shape=connector;rounded=0;orthogonalLoop=1;jettySize=auto;html=1;entryX=0;entryY=0.54;entryDx=0;entryDy=0;entryPerimeter=0;strokeColor=default;align=center;verticalAlign=middle;fontFamily=Helvetica;fontSize=11;fontColor=default;labelBackgroundColor=default;endArrow=none;endFill=0;" edge="1" parent="1" source="N0k8etCBdQL0E9vIkSx8-5" target="N0k8etCBdQL0E9vIkSx8-3">
          <mxGeometry relative="1" as="geometry" />
        </mxCell>
        <mxCell id="N0k8etCBdQL0E9vIkSx8-18" style="edgeStyle=orthogonalEdgeStyle;shape=connector;rounded=0;orthogonalLoop=1;jettySize=auto;html=1;entryX=0;entryY=0.54;entryDx=0;entryDy=0;entryPerimeter=0;strokeColor=default;align=center;verticalAlign=middle;fontFamily=Helvetica;fontSize=11;fontColor=default;labelBackgroundColor=default;endArrow=none;endFill=0;" edge="1" parent="1" source="N0k8etCBdQL0E9vIkSx8-5" target="N0k8etCBdQL0E9vIkSx8-2">
          <mxGeometry relative="1" as="geometry" />
        </mxCell>
        <mxCell id="N0k8etCBdQL0E9vIkSx8-19" style="edgeStyle=orthogonalEdgeStyle;shape=connector;rounded=0;orthogonalLoop=1;jettySize=auto;html=1;entryX=0;entryY=0.54;entryDx=0;entryDy=0;entryPerimeter=0;strokeColor=default;align=center;verticalAlign=middle;fontFamily=Helvetica;fontSize=11;fontColor=default;labelBackgroundColor=default;endArrow=none;endFill=0;" edge="1" parent="1" source="N0k8etCBdQL0E9vIkSx8-5" target="N0k8etCBdQL0E9vIkSx8-13">
          <mxGeometry relative="1" as="geometry" />
        </mxCell>
        <mxCell id="N0k8etCBdQL0E9vIkSx8-28" style="edgeStyle=orthogonalEdgeStyle;shape=connector;curved=0;rounded=1;orthogonalLoop=1;jettySize=auto;html=1;strokeColor=#3333FF;strokeWidth=10;align=center;verticalAlign=middle;fontFamily=Helvetica;fontSize=11;fontColor=default;labelBackgroundColor=default;startFill=0;endArrow=none;entryX=0.289;entryY=0.041;entryDx=0;entryDy=0;entryPerimeter=0;" edge="1" parent="1">
          <mxGeometry relative="1" as="geometry">
            <mxPoint x="193" y="160" as="targetPoint" />
            <Array as="points">
              <mxPoint x="736" y="120" />
              <mxPoint x="193" y="120" />
            </Array>
            <mxPoint x="730" y="120" as="sourcePoint" />
          </mxGeometry>
        </mxCell>
        <mxCell id="N0k8etCBdQL0E9vIkSx8-27" value="" style="group;rotation=90;" vertex="1" connectable="0" parent="1">
          <mxGeometry x="720" y="-10" width="144.82" height="167" as="geometry" />
        </mxCell>
        <mxCell id="N0k8etCBdQL0E9vIkSx8-21" value="" style="shape=image;aspect=fixed;image=data:image/png,iVBORw0KGgoAAAANSUhEUgAAANEAAADxCAIAAADa9MWOAAAACXBIWXMAABJ0AAASdAHeZh94AAAgAElEQVR4nOx9d5gcxdF+VXfPzOZwOUon6ZSzhITIyWSRMRgTTDYOYPzZmGAcsI3Tz8b+PpKNwRiwDTaYKEwWQRIIUM45nnQ5bprU3b8/9jhWd7e7p9OGk9D73MODNnVPzzvVVdUVMBKL/M+f747qMTiMw8g+FKYwLvgHqz4MRcP5nsxhfCGgKSqTEoQQXPB8T+YwvhDgQpB8z+EwvnA4zLnDyDUOc+4wcg2W7wnkE4wySqnKFIV2r8O/f/R4ZVHFAL9+wU+uaOpoBgApwbAMm9u24EKIbE33UMEXiHOIqFBFYUxV1FljZ1BCzpz1pariypJAUWmwJP4Zh6JRSgf4g//95bNx20tKuW7nBovbT7z5tGXbG+s2t3a1WbZt2dZh46wvDn3OEURKmaZo5QWlXzvtstOOOMnn8jJCKaUqUxFx0L/sULWe/589biYXfNbY6ZwLLjgX/PVP335/1Ycfb1jaHmq3bEsIKUFm4oIOemBnuGv2t0/piobyPZMMAxEpIYhEoey2S26ZVju5srC8sqj8QEi2v+iMdDV1tOxtrf/TK48vXr+ECy6k+IJvvpqiHZpyjhIyfvi4s2efetTE2dNrp1AkcarlknAA4Hf7fC7vqIqaYycdZXPr7WUfPPjSIyu3rZXyCy3wDik5h4Caqnmd7jd/84LL4VSZqlCGhKQmmhDCFjyueJmW+cRbz9i2nWYghBHlNafOOIEQShApoYymeXqllFxw3TR0U3972Xs/+tsvY6b+BZR5mqIdIpwjSBSmTBk58Y6v3Dph+FiP001JUlOAC27ZlsVtzvnf3ny6PdS+budGIQUA2NxevX29SK/4Y9DrrykbThABcHhptc/lueGsq3xuX3wmCmMI/VNdSmlze/WO9c8veOWFha90RcNfKDvjUOAcQeJQtcqiipvPv+HM2ac6NSfpbwON3+mYoYf1yCcbl360bskrH70mpYwaUSudVBsg3A6XwhSPw33Wkadde8ZXFaYWeIOM0mTsN22zuaP1rsd+tmzLqs5IJxfii7DnHtycQ0RKaEmg6GdX3zVn/KwCb6DvZ4SUQggphcXth19+7IPVH7V0tbaHOjrCnVmd2LCSKoUpw0uq7/vGvQG3DxDjOmVfhVII8c6KD+YtfuPlD1+zuCUPdfP2IOYcIWRc9ZgLj517/VlXMsoQse9eJqXc3rDrwZcfbepoXrj6I4vbcUGSA3HSbbIAEkKmjJxYGiw5/YiTzz3qDIfq6PthIaWUYsOuzXf99Wfrd20Oxw7lGJ+DknOI6FAd155x+bfPu8Ghan19bBKkbhqPvfbUm0vmb9m7PaJHueBSynztXAQJIiqM+Vy+y0666IJj59ZWjiDY+9SRCx4z9IgePePOi1q72m2emR1/qOHg4xwhpLZi5A8uveWU6cdripb4lpSSC2HZ1hNvPb1iy+q3lr1rWOaQMgwRkVE2pqr2mImzbz7/Rq/TwygjZB/yCSn2tjT8/rkHXvrwNcM0Dr199mDiXPzkata4GY997/9cmovte0Jlcx4zYvM+fuPNJfPfXbnQtMx8zXOA8Lm8l5xw/jfOva7QV6Aypde7uqn/853n7n/pL80dLXGD+pDBQcM5gsTtdM098vSfXX2Xy+FMVN2klEKKN5e8+9fX/756+7pQLHywWH+U0NrKEecfc/Y35l7LGOu12wohlm1ZdetDd+5s3C3koWPSHhycI4SMrhx5+6XfOXXmyZT0VoPawx33PffQ+6sWbd27/aC7MYhIkFQWVTz8nd9NGjFB2dexLKU0bet7f7r7jSXvRPRoviaZWRwEnCOEnDHrlN9c/1O/29fL12/a5mufvH3Pk79pD3datnXw7kEE0evyBjz+//zkyZJAcaLaIKWMmXprV9tZd325tas9j5PMFIY651SmXHz8+b+45i5VURO3Hi74kk0rXlz06uufvt3U0XLQibd+wSibMnLitFGT7778+6qiJF6vze3/LHj553//XVvooKfd0D3jJ0i8Ls/02sn3Xnu3ypREb4huGtsadtz7j98v2bQ8jzPMOGxuL9u8cuXWNVzwO75yq9fp6TFpGWUXHDt3bPWYG+67paGtSQhxUNuzQzE2HRE1Vf351Xc9dcefNeVz91v8/OrtZe9d/7tblm1Zmd9JZglc8CfefPrb99/WHu5IPIdVmTpl5MSXf/b00RNnUzoU79rAMRRnX+greOGnf7/w2HMSTyolyHAs8qd5j3/7/tt2Nu0eUo63jOPdlQtnf/uUVxa/kaikEsTSgpL7brp32qjJfd0rBxGGFucIIS7N+bOv3TmuenSis1SCbO1sO+32C//wn4d7jrAOYQghDNP8wSM/fmvpu4lPF0GsKCz72w8ePnL8EcpBS7shxDlKaEmg+OHv/P7sI09LXFAuRHNHyy0P3rGntT5mxA55wsUhpIjqsW/87/f/8t8nw7FIzz6LiAGP77Hv3X/spDkHKe2GkN3qdrgW/e/rhb6CxC1VSLGtfseVv75pT0v9oXoEmQIISCkNePxv/eaFYn9hj+wXUkT16JW/vumTjcsOrodQU7ShIucooWfO+pLf7etFuPrWxu8+/MO65r1fQMIBgARpc7s91HHzAz/QTb2HXgSJpmjnHn2W1+XJccD9gWNIcI4ScuLUY35zwz0qU3telFJ2hDsv/cW1y7es+kJF0vYFF3zx+iU/fPwXnZGunhcZU6780qUP33Kfz+U9uEiXf84hYNAbvOOy72rqPm6Rlq62uXd/ZUfDrkPbRB0guOAvLHr17B9e+rliB0ApOX7yUbdc8HWf25vf6e0X8sw5Qkht5cjf3nDPmMpRiZ735s7W7z50V13z3oP3RCuzkFKalrm7ec/zC+dZthV/Ma7tXX3aZecedZaqqKl/Yeggn5xDRJWpt15406kzT0w0wQzL+Pofbv1g9YdfTB0uBbjgP3jkJ8u3rkoM1nJqzh9dcduo8pq+caBDE/mcJSP0qydffOrMkxJdcVzwN5e+u37XpsOE6wsppWEZl/78uucXzkvUcV2a85fX/bgkUJQs2WxIIW+cQ8RRFSNuv/QWj9Pds1I2t5948+lbHrgjdEjnBBwgTNt84q2nE0ujEkKm10654Ni5inIQeOzyxjlNUS898UKXw9XzChc8qsd+/+yDpm0eXD6nHENKuW7Hhm/+3/cTn0yFstsuufm0GSemSOwdIsgb58ZW1X715IsTF6ipo+XK39zUHu44TLi0sLi9fMuqFxbO61mruHJ849yrh/5RbN445/f4e+U0vLtiwYotq/I1n4MOXdHQPU/+JhQN95j2hJAjxkyfPHLiELdhh5ClI4SwDtsNA0Y8cv1Xz/zBtKzEneGfdz0yZcSEoXw4MYQ4dxj7Cy7439/+14/+dq9pJ7hOVOfcOWe4He48Tiw1DnPu4AYX4qUP/9vU3pKo2F35pUvGDxszZEXdYc4d9NBN/Q/PP2R+djgBAKqi/fr6nxT5CvI4qxQ4zLmDHjbnr3z0ektna88rlJARZcPHDxvbb4mqvOMw5w4FRPTo1//4XStB1GmK+tsb73E7PUPwZOIw5w4R7G6qW719XaJWV1ZQOmvM9CGYsDPkJnQYg0N7uPOvr/89MQyHEnr5KV9OW3Q29zjMuUMEXPD/fvLW3taGnnBDgnjqzBP9bt9QM2APc+4QQTz59xf/+J0tuv3q8dJjM2qnKnRonYYd5tyhA87F+ysXJVoSAHDfN+6tKCrL15T6xWHOHTqQIEPR8FtL30uknVNz1laMzOOs+uIw5w4pSJA//tsvQ7FIzysKZWfPOS2xTVTekTfOcc4TI13zWO/3EEPU1LfX75BSxvMUdVMfUzkq35PaB3kzpJdtWfnEm89cdvLF8X9KKTbs3pSvyRxK0E193sdv1laOFFIsWP3R3Y/fG9Uz1gMjIxhCefyHkSkUB4qK/UU7G3cNweqcQ7f+3GEcCFo6WxOPX4cahgTnCCIlhBIkgJrCxpcUbWpujZgWgORCWoJnUNMjiJQgRUIQvQ5tVGGwPhRu6AoDgC2EndEGSIhIESkhBJEgTi4vsbhY19gMAFwIWwiR0bEYQUYoAJR63RU+76bm1qhpCZBcCFsMIXU5n5wjiIyS4cFAdcBXHfCPLAoiIAJQQoSU8ftR3xVauaehKRzZ2d55IIRAREZIld9b6vWMKy0aURBE7O6GJD8ba0tz6872ztZodFNzq8UPYCwARkmFz1vp940sKqjy+1yqgojx/orniXEAsKu9c29n18bm1qZQJGKagyYfIiqUVPq8wwoCwwL+0cWFAEAQEeEsGe+wI3e2d6xtaG4KRxq6wrqd/0pq+dHn4gyo9HuvmjXNwRjtTnDt94hGSgCL810dnU8tWWlxvr+PbFzYOBV21axp5T4vI4T016ipZyxbiLBpPvnJisZwZH9ZjggEiULJeZPGTS4vVSghgMmuSwBwISzOn1+1bkNTi8X3T+zF17DE475+zgyVUYqEYv9jSZBCSluIpnDk0cVLTZvz/HkJ8lPDGgGKPe6zJ4wZW1IUD/BSBPWYTlUoVOzbIwFFVDF0aprUBgAu5bqGpnc2b6/vCg1wyRDAqSgXTZ0woayEftaDy2s6Na4ofB8ZbxNuUttglk4NCSCk3NLS9u8Va0K6McCbExdvcyeMnVpZ5lKU+HWpXHHYqsb3OX0SKCzKu9SoRbrNybrOrrc2bt3QNNB63AgQdDnPmzxudFEhIwQAqCRe06VyxsQ+mU0WsXVmRRRdoAAALsWa+qZX1m4c+HVlFnngHEEcWRi8evZ0RgkF1LhSGPMpnAH0fxAtAQBkVDE6tLBJbSFlR0z/x9KVezpDaaUCApT5vFccMbXQ5SSIGlcCusfJVZDQr5yLj2VQq80ZMqktQFhcPL9q3Yo9DQORQAUu52UzJlcH/ARREcxrunymM/VYAmWrsyvGTI7c4uKpJSu3t7abPE0RKoI4taJs7sQxblWlSFTOgrrHYavJ11ACQpQZHVrEpFZ8Df+9Ys221jxUYc815xRKTqodcfSIYU5FUQQNGh635UCZPupBAggUOjXbnWGT2F26/u7m7R/v2sOTl2yiBMeVFJ8/ebxXUxnQ0mhA5YzIAfnABUqL2g3uNg4yaprbWtufXrbaTj4WIo4tLjx30rgCl5MiKdC9Lkujgg4knEOCtAhvdLdbyE3BP92557/rN3EhknGcIE6pKDt30li3qlKJpdGgyhUygDUEAI7CpHazq8MGHjbN51etX9/YnEE7ZiDQFI3eededf/nvk0b2G2RRQqZXlZ8+rtbJmCJYWSTosLUBRrEiAAFUBNMEM5ilKGR4QaAlEm0K9+9/IoijigoumDLe73Q4hVqge522RgYcMYuATFC35bSpTRQocLt0297T2f+GThDjSpXXoaqSFcf8bstBZZqG7IljUUm8lsumXDBR4feqjG5va++XCgRxWmXZRVMnOJniElppNKBxZeCRwASQCeqwFYtxouDwgkBDKNyp67lkHaMsR2dfiFjsdp0zcaxKqdtyVoQLFcH2N6oLARy2WhEuUAVzKsrFUyeWetx9g8MQ0aUqV8ycEnQ6VcFKogG35RhEBJkiaEk06LBVRsgZ42snlZX0TS9ABLeqXDZjssoYAVIU87ksbSCSuxeIxOKY32+4GSHHjRwedDppn7EIokrpRVMnqpQ6hVYSCfRSSQcCBHBwtSQaUAUNOh2XzZhc4HLlOMAuR5zzauoVR0x1MMYEDejuAe4F/YJIUhTzqYJpjF46fVLfe6MQcsXMqU5FQcDSSKCXTr2fY2FRzO+0NUbo6eNq3Wrv/HiK5LRxoyt8XiZJaSTgtAd/lI4SA4bHYasE8TsnzIl7PRLhd2jfOnY2I4QAFkZ9B7KGTNDSSAGT1KOqF0wZr/TpopZV5GIwBJhYVlLgcjJB4xLuAH9Qs9XCmI8AKfd5Z1ZX0H33sdHFBcOC/jjhDnwsJmiR7mOSFLpdp40bxfZNLxhXWjSjqhwAPKbTYR9oxQYisSwaVAVTCJ1YVqIkjEUJDi8IlHjdVJLKUJFyAA9SHIqghTEfAtYEA1MqSnMp6rLOOUQs8bq/NGYUReKyHQPU4tNC44rbdiDil8aMDDidPa87GDt9XC0lROHUcQBSJxGUk4DhRoDpleWVPl/P6wolM6oqGCFOWwsamcmwQokB3YOA06vKCxKuq9Lvu2DyeAR0W45eHqVBw2lpmq0wQk4ePSLgyF2wU9Y5RxDnDK92qQoD4jWdKW8LIiFIGWEKoQwJSWL7AwCgxGDMowjqdzjGlxTFRR0ijCwqKHS7qMSySEFqCiB2j4XxsVJ8EtBruBTBFELGlBT2aHUqZaOLCymg33Cl1uGQEMIYYQphacYCAJelMUkUQi6ZPinueyOIk8tLNcYUQYN6GnL3rCFShikrbyJASTTABA04naOKc5eAnfWzL4JY6HYRBK/uUnjSHQGRIKXBsVPc5cMcwSI7Fu3YsrZjy1rBbUhiVlFBnLYaUmMzqys+3b2XCxsBZ1aVUyQey5lC3UFEpMxTNcJbWeMuHx5ra4zU7+rYvEZwnmwsBAwYnhZn51E11e9v2RF3od149ExGCBUkxa6KSJCQ4NipgdETqapx0+jYuq59w0rJuUxSKhkBy8IFdd4Wn0MLuhzN4SgjZFJ5KUXi1900xUaBSCgNjp3mLCp1FZdHGveEdm8N121PMRaVxMFVS7HPmTB26e763BxOZJdzCODV1HElRQjoSukZ8VQOL5x0hKuksntaTnfprBN8NWMaP30/1taUhArotLWwGityu4IuR0NX2KGw8aXFBJFKknws1IJFZbNPcpVUxP/tdY30Vo4Ijpmyd9GbsdbGZLRjgqAEhRJGick5AqiUUUSHrSYbC5F4qmqCY6Z4KobHZTZzukunHxMYNbFp2YJw3Y5kVCASiUS3qpb7vC2RKKPEqTCUqPLk2TSIjmBR5TGna4HC+Fj+EWP9I8bq7S1NSxeE63cluy6XpUUUXaHUp6ldOTmcyO7eioiVfh8AMEFT2I+Kx1cy8zhXcUWv77qKy6tPOV/1+PrdZBHAaasAqFA6vqSYIsZ1YQLoM5JWJaKqWjb7JGdxea+Jar5g5bFnaP6CZBu6w1apJCql3zxmNiJOLC/xOVQEDMY8ya/LW3H0aT2ESxgrUHnsGaovkOyLRBK35SAEZw+vAsCja4ZpjDJJUphEittbdcLcHsJ9Pu1AYdUJZzsKS5N90WlrRCIijCstzo0lkV3OUYLHjBgG8Qc3meBBrD5hruoN9HOzEZnmqDj2DKY5+/smEEkQgCC6NSXObwSgycmNSMrnnOIs6s9MQ1S9/spjTyc0lUmIgPHvEiTxKJikQo6ykhnHElXt97qQKcVTj8LkCc9EEgI4oiCAAONKCxERJSZTGJCykmlHKx5vsrFKpx9Nk6REIED87LHQnSNHXZblHGCh2wkAqmDJutwqLo8WKEyqWSNq/gLmdPX/LkAw5o3TDj77bwp1nmoOR2EpJqu4i6h6A8yZonIbQq/IDdn7hR4QSt1l1cm0eET0VAyjyQtiooyPhwDACE1tNxBKPVUjUozlLC5XfcGkYwEggEoHdFh34MiRM5DIpLeZpEtJooqKyWvkYkKwEE1tEiI6CopT0BcAkDLf8DHJ3i2LBnvde6/pwmQaEGIaExVJ2msHAJVRvzPNOYoWTLMtIiJzpamC6M+VuyRnDuikuilzOFM7tqSUyfTfXkj/mMZj51L8AiIkPyk1Se9MFk7EQIY9QMQHSHmgIlP4lfr8Uu+vMkEBB/YDmUCOOJe0f7wEKxxK3VxeclsmrzMsUPQQOkXoBwCAlNGGOjOcKoJGcDvaUJfs3TZHqNeFRBVdJhV0INN0KpNy35z7fmHavDUSlSBtkjTGSW9vSbFE8ZnY0XD/Tz6CTThIaInEcnPWn13OCSl3tXcBgEGtJOJAWuHOaEtDMq8BgIw1N1iRpC1KOrWohG45mFYaCm5LbiUfC7ge09uakv+AhH7uW/+jCssK1W1LOicpu3Zuto1YqpEGDMntrp2bk74rpdHVbnZ1pvqF+H6SE2Sdcyv31AOAQCmSLKOUsuHj+TwW7ef2SGnrsaYVHwrL6P/3UQoUXIqQYQgp67tCEsCmdjwmtt/Bdr3zoh0J90cFaevRnW8/L3n/341v8ELKlkgUAKKmGY9yS3ajpOBt61dwy+j3uoRttW1cKZOEZ0qQNuVCyt0dnRJga2ubkFKiFElkqhSidd1yK9zV/xpGw/UfvsVNPclYYBEOINuiOeoBnl3OSSm3tLQJkDbhKbYGo6Nt17svC9uSgksZTxwRUnBhW3XvzdNbG5OtBUcBIG0hl+7eK6RcVlcvpBAgI0r/6wsAXNfrP54vbKvbO//ZWNw0mpYutMKhZFJQZyYnwhbi+ZVrpZTb2zoilgUgG91Jo22NjpYdr/3b6GqPX1f3WJwbnW3bX/uX0d6SdN0QdGpyKRZs2wkg39u8w+bCJtzqo1B+9gVphTq3v/aMHYsmjCWlEMK26hfPNzrbko0VVmKcCCHl9rb2Q+EcQgJYQuxu7xwW9JvU1pK60aXe2rT1lb/7ho9xFBRTzQFSRup3Rep36+3NyX9cdjjCEiCkG/HDKN221zU0Ty4vNaklk6b0iPCeHZuee9RfM8Y7fDQgguCR+t0d29ZzPelOBwBxGSOktLgAAC66c4GSylQAKYTR1V733jxP5QhXWRVSKm0r1lzftWurGepIoQoY1ORERHSrIRQGCbYUzZFotd9vJV9DKYUdi2595anA6Emu4gpkDKSMtTS0rV/OjaRPIABY1BYgWyOxxq5wbjbXrJ+3Cin3doWqA/5OLeKytBTHhVYk1LZ+Wbf3Q0K8hkmKX5YoDWpKgE921dmfbYgbm1omlpVEmckJT2HoCcvq2LKuY+v6z8dKqe9LhGZXpwS5cNtO/bM6DA8u/OSOU45DilHFcFlJHA1xXSrU0bZhxT7XlfzSJMoWV5cEGTOtzpghASwutre2V/p9Lc4uZ8o15Ibetm5ZGywf4BrahEeZwYVYvHN3io9lFlm3W4WUi3fUcSksYndp0ZQkklIIKbjkXAouhUh1Y0A2uTotwtujsVV7G+OR3FLKTc2tHbGYQNHi7Er23Z7B9hkrxUdBdmhhCdLkvGcsANAte3V9Y8+7GbkuAIgxk6MwOX99wxaL8/gPfLp7j8n5Z6I95Sruz1itzi5OeHsstra+OWcB6lnnnJSyIRT+dNdeLkVYjVk0A8VaJIDBLJ2ZEuSa+sbEk+ku3Xhn83ZLCIOZKbS6/QInIqzGAGBdQ1PcgIjDFmJjU6sthEGtLi2amgoDhEV4pxoRINc2NG1p+bz+Q0s4umJPvZAyygxOMtO7O8bMGDMtIdY2NHcZ/Vtp2UAu/HNSyne3bG8ORy3kDe62pIrwgMEJb3J1CBBhw3p707Ze2V9r6ht3tXdwkK3OrmSG3sAhUTa42yzkFuevb9jSywW4rqEpZllx8WMTfoCDSZTtjpDOTFvwZXX1VoIFbQvxzqZtbdGYRXi9u40nVyIHCIGyxdkpQO7u6Hxn07ZcpljnyCfcGdNfXbfR4pyjSLs7pAZH0ers4igMmz/y0RLDtnv9lmHztzdtswXnKOo9rSns5bSQKFudXRbhQop/LV/TEestOE3O//D+R03hCAe519t6IFJcgmx3hOOy+YOtO7e29LY0u3Tj9Q2bbcFtwptdnSlsl7SwCa93t9qEm9x+Z9M2M7et/XKXfLGlpe219ZttIcKKXudtGZy0M4nd7OqMMSNmWS+uWt8UjvRL3u2t7X98/6OYbZvE3utpswZFO4Fyj6c1rMQswf+xdNXahqZ+8/8ipnX/go9jlsVB1ntazUHRjqNoc4a61IiQcuH2XfM39xbeACCkXNvQ9OyKtbYQMWbUe9oG9zjFJaVJbVuIhxZ+sqWlLcdlJHLHOS7kp7v3vLRmgyW4RXiTuyPGjBQHR70gUYbUaKO7PcYMg/N56zatqk/qtxNStkVjT366wuTcBl7vaQspsf0aK6oYcTXA4PzjHXVbWtqSFYeSUlpcPLtibdQ0bSnq3W0djsjA93QJYFK70d0eUmOWEG9t2vrGhi12kpxqIeSGppYPt++KWbZJ7AZ3W0TR92vTCKnRuKpgcv7a+s1N4WiOc6oh9zVyKCETSovnThzjdzgYkoDu8SePr4xDoNCZ1alFDGpxKTpi+psbt6za25jmdBUAEUcWBM+ZNLbU62FInLYa0N0aT5WdJUEazOpSo1HFECBMm7+4ev3KAYxFEB2M3XDUzDKfhyFhggV0t9NO5dcAAIGyU4t0aREOMqQbaxqaXl23yUpXO4IRMr2q/OwJY5yMESRuS4tXKkGZrPZPNziKOm+zDSJkmM8sX729tf/M7awiPzVyAKDC573iiKlBp9PDHWXRpHFdAGAR3uhus4ngILiQW1tan1u5LmwMtHgWAng09ZJpk0YVFRBED3eURAIpboxAudvbbCMXQrZGo/9curopHOZJCzn0hkdTTx87akZ1BUFCEQt0b+onyqT2Hk8Ll8Lm4p/LVm1qbh3gWBSx1Oe9fObkoNNJCFJJqCRuy1Gge1N8S4Dc5m3Y3dH5zPLV7TE9L6WZ8sY5ACCIMyorLq2aXqOmyjiKMbPR3SZANnSF563duLmPZj0QMEJqiwqOHF41s7CqLBZMEdQpUOz0Nm1qaf14Z92ahqZB3BVELPO6Zw+vmj2sstjyB/WkkesAYBBrBexavGv3kl179f0v+UsQp1SUHjm8akRBMF7grKYzaQy6ALlOb/zPrpUbm1vSitLsIZ+cAwBKSPEwz2hX0Qxn1RityIGMInETFQAEyJiwuBT1tGNjtPHVdZu6dKOnEOIgEK90WebznTh81NHuGgdhCOAmGgIIkLqwOEhL8kXhHQvqtu5u7zyQseLVFBkhJ40adVbBBA9RAcFNVAIoQRrCtkFwKTcZzatC9e9s3Sz44Is5xq+r0qe+908AACAASURBVO+bUFo8vaq8NlZOEJ1EiY8VEaYE0IW1NLZnQXh7SOjtDVEjauex6mGeOYcEC6pdlBKKqCILUAcCFjE3AEiAVjsipKxv7uroimaqNKnDq/iLnR6qeoiGAPGxID4WgCHtdivWsjM08M00BRDBE9T8QWchcwNAIXPFM0I6uW5JLkA22xHTtNvqIgd+ZfG6jj6HVlkeoIwUfDZWix2RACGhR4XFpZQguxpiZjRvQg7yXsM6HuUvQAopLWlGhAkAddbnYV5SQsQ2rCTBRYOABGlL0cn1Tq73GisOIZLH1u3vWBK4lLq091idALCnz1gAkCkVXkppS9kei0kTqSQNIkKQCMFt0ZteTCVWLJP1mQeBvPUkoYQoTFGZpjI1/sf6S41JXogtO8j93chcRLgEsE0BAOdOP/vv3/jruIqxDsWhMoUmpPA4/P3loeUWeZNzNWXD7rn6To/n8/y299cveHLhP/I1n7yAKERx0AxudlaMuzza6LJRo8tq//HNv3VEO9ft2fDM4n8v3Pgh7yPz8oW8ca6isHz22Jku9fMEnO3NO/I1mSzB0rmUMsfV3Zyq84TxxxNCEDDg8s+pnVVbOvLc+y6Omd3RgYiZCEY4AOSNc4hIkZCEbLy+FQVBStsYKk/nIGAbApLFjmYDEqSQDsVR4O7OiUREBPz3x/+xeHeyDwIgQTjQaIQDwlDvayh6n+AfRlIgIkH6t68/oimfB5DqlvHptiV2zyl+DnMKk2Goc+4wBg5EPHLUESW+Yppgjb277v1dLZ/HACNBqub5pg9pzom8bgEHHSghZ88+ne1bA+XR9x5vj3YkvpJj/bIvhkS/r2Q4vLEOHIjoVJ2XnHB+j5CTADa36jsaervTD++tKZBxxjm8Sr4f8t7AgRb1TwOVKTedcw2jrEeMCcEXbFhk94nHpPtdsD7DGLqckxK4mbETCAAABKalKf0s7IHWRhkgcuZjrq0Y+bXTLusxECRIW/D/feNBW/QJHci3GTF0OQdSxjqy3imlF8KtZoZZkhPSUUK9Lo/f7e/hkhBi2fZlu9vqRJ/IP9XN8ru9DmHO5QMyx0dtGUJN2bAnbn840cHZGm791Su/4/3FLBGC+dXphjTn8t1o9OCAytQLjpnrVB09r1jceuHTl+s7GjKS/phxDF3O5fp0/6CFx+m+/qwrE31yhmW+sPRlI0lhIQBgeXXR5c1XQlJUNo/jC0A5jAd0DfrriF6nZ969z7i0z0MlbG6/vGxea6g1xde+oPqc5lH6aBWYd3dlhpFWOUBwBgbfsYkS+o1zrq0oLGMJdbcjRuTx958y7FTmV35JlzfO9a23XOYvVejnRYdsc9AB20MFUkKkPU0lzUH75whiTWn1lademrhoAHD5L2+sb21MNSKCM5C8z0T2kTfO7W6rW1O3NvGV2aOOuGjW+Yx0b/eSD00NeP+QvbiYMVW1L9zzj6An0LM5cMEff+Ofa3dutPSc5uXvL/LDOSTY0Nn48tJ5hv25nqtQ5btn3nzyxBNoslr6Bzho3g99MgeX5vzGudcFPL4ewkkpTdv662tPWbaVdn9Aks9T17zJOS75m2ve2dO2tyd+FRFVpt5y+rdGl9VSQjN/wD/wRtVDG4yym8+/8dyjzkx8OGOm/uBLj25r2CmEGIDJn88HMJ82s2kbtzz5veU7V/YkvhAk1YVVv7r05yW+4oxvrOkX+WDYyhHR43RfdNw5akLPDC745rqtf/nvE3EJJ0U6teQLaLcSioQgF2JP+94XPn0pMVQfAUeW1Jw3Yy5L3pfoEMPAdzlErCkd9skD71QWVyRujovXL7ny118PRZNWl+8FQpHk76Q/b/ocUgQAIcRrK9+845kf6dbnZbYQ8PqTrvnW6V9X2YF2fh76iPeMGuCHGaHfPv8Gh7pPh8jOSNf3//yjtvDnQXJ6l51apUOST7dUnjj32fVKkLawP9ry8ab6zVZC1I3K1GtOu/y2S25WFfWgd9qld9KlByIWeIO3f+XWi4879/MIOSljpv4/D/+wsb2p71l+ahyIL/oAkWfOxRHRI994/JYPN32UuMl6nO7rz7rqlvNvVJly0NPuwICIhd7gXV/97o1nf035bDXihur/PPzDd5a/r5u9j7nSpoZTJW+qfH4Gpuo+3hAJMqxHfjPv91Fzn6q8mqLefP6Nt11yyxeZdnFz/idX3X7JCRck6rgWtx96+bE3lrxj9W3gJCW3U5Euv0s5VM74Jci97fXXPnJTKLZP5VeFKTecddUNZ131xTEpEoGAfrfvyi9dcs6cMxJXQAixaM3iR197SjcH1VkagWlfMDnXr3tISLG1adtv591nWmaiCqww5Xtfvvl7F39LTd5R85AEJdTtdN99+fd/ePn3lX09IwvXLL7xD7d2hDv6/aIEsGJpzj9Ud1Yc7wNBfoSHK6D0K9855/9d+boE+f2zbg24/D37qaao155xBSX06Xef29GwO3OFbIYEqEpEH4oolJ0y44QfXXFbdXElJTThgEssXLP49r/8NGYmL1oowYpxSFVLEvK4weZLziVpcgjS5vZrK96474UH2kLtibaYx+m+ce7Vv7zuJ6MrRyZmmgx4RFDdaR6wrLiEZfI+op9B8/QOFtcUbWLN+F9d95OasmE9FyultGxr4ZrFN9z3nbqWvftrqPZFvkzXoaLPJcIW9j/nP/et+2+LmrHElVUoO27SnIe+8/szZ39JoftnVSCAotHUz7bgmY9kEVzaRkpyYM9/AAAQUaHs/pt/888f/qU0WNyjg0gpLW499PJjtzx4e1SPpiVcvMVc6s/gF4dzA8kjt7m9cPXiE7579qeblieuLyKOqx59/7d+c8PZV40sr8nsxLgpZMYPeaUceI4FQRxeUv3za+4+febJAbc/8a2mjpb5yxf85bUnWzpbB1q1Lt2nSIbSHPcXQ1HOSSGlkEKKxo7mK351YygWTkzSRESFKbd9+ebHv//AlJETMxmEktfzVk1Rrznjiidvf/irJ1/Uy0iPmfoDL/3lm//3vfZQx0AlcbqcSQRQXWkEf5aQB84N/DKFEFEjdtZdX35uwct6QstbRFQVdUT58H/d/ddvn39Dkb8wS+FPuQEl1Of23X359+/8yq0jy2v2yYuWIhyLfOfBO56e/5xuGgPf+rklhZVO4cuTyzPndisC09LoEYkLK6Xc0bj7rsd+vnLrmm+fd0N5YVlPRh0l1O/2fe/ib42tHv3iwnnvrVpk2/ZBZNIiIkHid/lnjJ9x29zvFPuLEsWblNLm9vaGXZf98rqWjlZrv9sjpacn9nQtzS3y4CtJq8/FO0H2/FNKqZv6P995dtGaj5+8409VReWJvgNG2flHnzVrzLRPNy7/w/MP72zYxeO2wBCOa0fAuK1wysSTzps5d07tkb3sISGExa3n3n/59/95sLF9MC0DIG2uLubNbh2Kzn0pJPRZL4vbW+u3n377hd8497obzrrS7din10dFYfm5R5fNnXPG0k3Lf/vv/9u6d3tTR9LO4/kFAnqd3mPGHHXWtNOPG3MMYj8hHut2bfzuwz/csGvjgTw8whqiT12ua/UjgqfIoXlTcd3SeVd9rN+ljh8++t3e934/z+vy9FXjuOCGaXy47pNbH7orokfMzwK1BzKuGbFDTXpm5SMieIodmocBACNMU7STxh9//PjjThh3XLy6dOKHpZSmbT6/4JV7nvptRI8eUAVgBHeB5vSnOrmREtp2RHK8IeSnVj+mU/dTlACTUhqW0Rbi5/zosjsv++7kERMqi8pJQg4ZJdTlcJ049diPH3jrg1UfPvvBy59sXBqKhPKo5yGCQpVZo44YXTrqmuOvdGtuRhnpk99rWuae1vqfPPHrD9d9ohuxAy3jL0HvslJzDuM1JHJfKT73cs5b6lRdqXgX67SibUbqNSdIFMYqi8r/fOsfa8qGOVStr8yTIE3LnLf4jYb2phcXvdpo1SsuIqQQsn/fbwblHEGCiJRQp6ZNGF97zpyzzp95jsfh6b8fgRTNHa1/mvfXv7/9bESPZGB4AABAhMIRqTo/AUDrjkiOS7TkoQ8OIvgrXalrF8Q6rUibMcDnz6k5j5t81Pcu/ub4YWMTbYteiOjRZdtXNHQ1LN+58q0173DOJche5DtAzmG3aoYEsbK44ogx0yfVjJ8xesrM0dP6nZUEKaXkgu9qqrv1wTtXbF2T2XL6A+FcZ30sbTRAZpEPzhEsrEnTPDPUpBvh/XANECSM0guPO/e6M6+YMGxsMtrFt1eb2x9uXhwz9UWbPqprq1u5a3XPnTbCdrh58JxzqNqZs051qNrUUZMmj5gwecSEuLRLNp+WUOuu1t1/fP2BpRtWdDZGM16fBRECVa7UsZldDboZzWky7BDlXOv28P7e+PhG5na4poyc+P9u/FlxoKivhh6HlDIu4eL+CN0yTNt8aekrXAjTsP71xkuh2OeZLKZlGpZpcxsRNUXVFC2xucDFx5/ncbgR8aSpx1aXVMYnQAhBJJQQ0rdSQdzrJrhpG4Zt/vi5ny/dvlS3jFjYCDVm2HaBgXFO77IirWnUmMwiD5wjjBQMc6X+zCA41wNKqEPVjhx3xJWnXjJh2LjK4vJ+730ipJRcdvcxtLktE6wNm/N/vfcCFxwRh5VUHTfpqMQzSkYZIkEAQigl6ZyOUhiWuWzH8vnr3lu5a/Xu1jrLtrqLYEpo2xXJfD4vgqdIc3j6DxvrnpUt23dnoMndwJEHzqlu5it1pPiAlNC2Y/Cci4MQolCmKdqzP/6bypSAxx/0Bhll/bQ9ySaklFyIUDQUsSIhPfy7V/+4pm6taZt99ba2nVnhnNOnuAq0FBctbNleF82lGZHnvob9QqQM5B/ojwhhCNOwzNPvuEhT1FEVI68/88qjJ84uKyjpsTMwC2WgulOaQUophRBc8Fc/fvO/n7y1w9jSGh5wPEgm55PuEwhI0ifsZBZDjnMZdxcZlrl+18bb/vJjX4nD4VG/fepNZYGymuJhKlVHlozILO1aOlubO1ullBt2b/rZ3/9fe6hdSpAgC2rSqBNZgRxQqVrEXPvocso5RHAXpE+TzvgCSCnjzUwtbt3/1sOUUI2pmqJdcuTFjLILjjiXIEFATVFVpqbV/3pg2qZhmbZtS4BdTbs/WP3Rx+uXLN+yKn5AbPUEHMTvaT7ONtPXv8vHrHIr5xDTlFuTYGTZdLe5bXPbsAyMhR+Z/xgh5JH5jxFEAKzwVswon4GfxXcV+IK1FSMT74oQYsmmFT0uPZvbT7/7nx5XnxDC5nzotKwEGMDji0hVwtNGPWUUQ2tvldnrfdOnKYIEaXELEhiypnX94k+X98gGRlkvJzMXnHOelWO07MgbM2anlrGI/RSfzDZyu7fmLyoZERVH2rjOfegel4jZm1IikGRHqZLpt/XcR6jnlAXJffKfI30dq0GPnm5bj3XZWbIs8xjMl/Z4g7Bc1+UbcvkQeYzz5Qdzf+JkGIJRdNndWwmS0VWjzjv6rO5/EtD66/K2bu+GxVs+MW3TsvNZCDf3N4cgYZQplF15/pUK7mPRv79q0bJNK/Y/JL03ZJ/tdXrN1KNqj+wxz21DmAnH/Jzbj772lGmZurUf6Rf7hexyDhHHVI669cKbUn9Mt/SGjsY/v/vYmyvf5lY0q1MaOiBINEX7xcU/nTVqpkdz98r1uvb0yy/++dVrtq87wFGMiKU49wlCn1I9+foTr0lW/8Wy7a/PvfrjDct+9fR9G3dvyYYZntO9VSaBQ3HUFA//3pm3XH/iNTm22/MFBFSYcs9Fdx895siAy88o67UmmqqeMu24Ax/IivIUbrq+94Ix6nF6Tpp23N9ue3B4aTVJd448COTObuWC72zeLaA3pRBhRPEIgljoKZw7/cyfw305m1IeoTDl6uOvPHnCifHiNza3dzTs4gnKbENb43MLXs7eBCTIqBFt7GwSUgr782O5oCdQ7C8kiJVFFc/9+G9z7/7K3taGzA6dO87ppn79Q98SSu9iaYh4z0V3z6mdozKlyFs0ecSEtTs25CCUHBFVqgopuMiOyy0BUvY2DT0O95XHfFWhCkjY3rJj/pr3H/jXY3ZCG0LDMmKGDgcMKUEISfvY7FLKFTtX/fT5X5iWFWrWeyI3J4+YcPHx55195Gmaohb6C6869bLfP/dAPyXuDgC545wteGek01J6V4REwJ8+f+8j1z1YWzqKEDK9dsq6nRuzrc9TQk+ZeNL5R5wDAE988Pel25fZ/bWdzBSibaanSIvzjiAZU1774Nf+1625AMAW9n9XvPH4e082d3YceNmb/tHfYkoJpm12RDp0y4xEDT3UzaoFqz9aunlFWUHJ0RNmK5SdNftL97/458xyLnf6XLJizRIkF7w7Owty1CuDEnri+OOPqp1z7Jij773kHiWrxbLjcSYAAICIbof7hpOuK/AEKaFc8tdWvvn4B0+atpnFrj+p81wRVM/noocLbljmii2r41MuCRZnvNpk7uQcEuLyqGGjz94KOKNmerG3CACElDsbd2dj9VPkDzPKFKrEIJbxQXsBARSqfOf0b500/nhKqJSyI9L51MJ/WtzKXpiTFNIyeOo89r77blbDrnLHOYfi+NGFd/U9TULA4UXVPpcPALiwP1j1YXYONNOIzxw0F2OUnTj+uOPHHUspBYCtTdv+9M6jmxo257/kQG6TDnPHOUbolyac1O+tjVfusGxrZ2Nd3hJRsz8so8otp3+rxFeMgKZt/XfFG/PXvpcDwqUtcBZPFOqZCaVszvgj4k8pFzzjmm4O99aUp62mbS3cuOgbv7stS6MzQuM6e/c/qaJQFp8ORaIpmltzGQ4AAM65lZ3TfYLEo7njBwCrdq/+54fPdOdDZDmOTYh+TvoRgVHmVJ2MMhsFd5J4gGdpsOSKUy4ZXTkSAYSUzy+Yl/GlyKHdyu22SBslLOAKxDNWbGF3RDpM2wKAt9bMf+D1P4Uzl1GcCEQsC5S+9oNne14hSFSmxjPp3Zr7lf95zuRWPLxAt4wz7ry4OTvlTuhnnUJ/+8p9vdr6ImZtc5Oyb3AJAs6pnf3q918QUkgJUnbvQKqiaooWb0IcjoU/3rDkIOZc1Ixd+MeveBzee7/8k+k10wiSmBl7ZvGzj8z/a/wDWT2B8Ll8fpe/37cYZYyyHhnIBX/g5t9e+vNrszcZABCyl1Ow/20gIzuvEbFdQbWXLEVEhSqKM1Vxie//+UdvLJmf8eOvnJ59CSkbOxtfXfF6/DLcmuec6WfncgIDAReiqT3XNZ2qCytHltf0+qssLM/Ijw9aQz5m0pxs9EfIdZywkOLFpa9UBMq/dvyVCmUVwfJbz7j5gTcfsgW3jaw1Q5eyrnXPEwv+0fMCJfSo0UeOLK5BxJipv7Rsnm7qepcFAKZl3v/iI1mZRn8gSI4de/Sd59zGiNJrc123a+Plv7whI6P0PQiRUta17Xl/40LOOQBYuh2vtT2msvbI8TPdDhcAXHrCBU3tzfe/+OfMmhG55pyUknP+6srXL5h1XqGngBF2zvQzX142b0fzzuxFa0qAsB6+/80He15RqFroCY4oHo6Ahq3/6e1HQtFw664ISJBS8CydBySBz+kr8hVqTOv1ekNbY6aG4JYgtHe/q21N2x98808WN6WEaLsZ67RAAqVkVMWIp27/U2mwxKFqR0+Y/ed5j9s8k87LPMRsSpA7mneu2b02XpOhyFv07VNvynbbTCGlaVs9fxa3uOh2fIrueg5m/M/iOS0QK0Gu37OhPdxhWIZhmaZtZl7Yy34eZilBSGHz7tWQTJiWadpmzNA3121bvH5p/DuTR05QMr295icHhwv+o+fuuefiH580/nhEPHrMUbWlI5e0rMzWeAgDSIbID6SUW5u23fT4zSO8I7kuKaX3fO1On8ubySEAzIitOFOtQOK7UordzXuylx+Zt9j0rljoo82L48aEU3X8YO73gs6CLI2FiM5Amoc142WREiFFmtL525t3zFvyxguLXn3pw9f0FE2VBjk82EMpKjFvnBNSvLbyjXfWvgsACDi2fMypk0/ORoRgHH01aC44gOSCr9+zwbD0uDaTJVgxnppF8axvLrjIUnrsAC6tp4ITItJspujlM781FAv/5d2/jqsYW11Q5VC0i48979n3Xxp4U/kDAZf8mcXPtkXapJQvL5tn2lZW68R0JyUkQKGKytR9OksxKRRUFVVhCiBwIezM8U9KKYVMzHxDjGdjKN1arQRVUbgUhNAif8FpR5wU9xZu3L0l40kq+eSckGJb045l21dUBMoZZROGj73/27+9+rffzMXQQqytW7e2rjvbIDeH7PF0//j///m6B//18XOJnDNjXBjijFmn+N0+BDRt485H78neZBBweNGw6068usflq3dZQsjx1WOPmTjLqbkAwLStjzcsNfc9Lzlw5DmPn0v+3CfPj60YPbZ8jMKU6aMmJx42H2Lggn+4efFZU09HRJ/Te8OJ1yT7pAQ5f/kHGQwKlwKk2CenHRFriodff+LVSb8i5YuLXn3o5UczfvaV5/xWIcSaunWPv/9kSA8josfpPmnqcTmuEpczmLb523m/X7BxUdroNMM031gyvyPcmamhhS0E3w8zggv+3sqFdz52T2ekK1Nz6EF25ZyQ4sN1H7/2yVtHT5r974//Y1i9A9Pjn1mwcdGT7//z6hOu2NvS8MHqRYeomAMpZWe068fP/exrx19x4RHnO5R9nMDxynVCiucXvvKPd55dv3NjZt2EPavKBTf6q7vYM4G9rQ3/+/zDH6z60LCy4CzMQa1+QsiYqlE11ZWbOjaF9FC/14CAhLNJhVM6Qp1LN6/I+ByQYEG1K0W7Uikh3Lx/hbP3F8Fhbsq6ay0yymaPOqJXQLwZtoywLaRcsPpD07IySzhE8JY44l2TqwurRpaMwF6WqZS2IWKdphByzY71TR3NPDsJIrmosymE2LBrczPZm6JciAQZM/X5y98/VCUcAIDo9rHG60Et2vRRr/ej7Wa0PcPaeiJ6Wqjtbq3b3VrX9wNm1M5GKe2+yJU+l05FM7qsQ5lw+YaE9C46puboqGao1MjJfAXnBHQ3GfoiQ4IZSaM5ENanRl92kAvOpW5RMERwyEtZe8hUncoFGwZSc+5Q9ckNKaQ9a1FzEgkxZCTQF55yzEGzvbOlV2ByooRkn3MIzJGnhshDCZbOUz9XikayrU6lfa7TthDPCIaEPifFoa9ORduz4l8dOCSATFcf3OFVciAdhsTeym2RkfY3QxlD4Zkyo/ZAqvdnexpZ5xzmtVz6YfRCuoz+XNysnOzfFL/o7rGhAAl8AL03clAXK/3ZF3ZPZLBTwe5G4cm+LwG4KdM1yDkgEETEVH0QJABBJIRkbwvE7nVI+gGBSBBl9m45AsGUdwIAuucwaEkk5QDywNNzLuAN3Hz+jV5nmi7bSYGgOCllqS7DNrltiCyqPAQ0dz/12nsgJVgxO1steOJA0Dxp5mCEsxgfDwCEoeJkadZB52KwyRNCivnLP3h3xcLUYZ5pOOdQtV9c88MzZ53K6BDNmzqMoQMp5dlHnnbLA7fPX7EgxcfScE5hysnTjneovdN9D+Mw+oXf7bvzsv9Jzbk0OzcZSLukwziMz0AJHVk+PPVn9i9+Th5AOcoe5ubXUzVEpgEHy0wQeszHFMbBfgmm/ePc6u3r/v3eixYfUBVtguh3OIIup0dzuIk6yVGGCFLKj6O7ASAkjC5uGNIStox2ZDFWEQC8LkeRz+0lGgBMdZY7iSIlbDVbWuwoAESF2WiGQ20ZKIyfAojoCqoKpaXMoyEjiDOclQyJlLAsVmdJIaTc09HREdOzWmXW4VOYShDQQ7QC5qRACOIRzqq4Rf1xdLeQoj0SDRlGp64DwEXHnjtr7HRAaGhrenHRq7ub9/QNaleZ+vOr7xr4HPaPc3XNe/79/gu62U9aQxwIQAj6HI7xJUVjSgp94C2yfCWxAAI0QSMASIBhUgJASBghYTRaobfbN6/dWW+LDJdNRgSKJOhyji8tPq5kRHVbgZc4AKAT2+NZJR6QLgCQEJMWszoWdW5duH2Xxbmd6SAXRFAonVRaOqekploNlDFTRYYILdAWFw4VIKUEATJM67gVXbmnYVV9o2HzzJbqidek97i042pGTHaWVyi+AHVSIIjQ9NlMhoEUILm7EUy9s6NrS3PrDzctv/faH88cM60sWHLazJMu/cW1LZ1tveLmnaoji5yLt2LuN/kMASghBW7XxLLi2cOqfA6NEkIB/REHEfEw1e4bGVch/aj6qVpBPWMqCl5zrV1at3d3R5ctMlAODBEZwWq/f3pl+bSqMkZI0HT7da37TDdhgPhM3MBGqkEysnrO8MrNza3vb92xpzOUkftNEDXGaosKjq6pHh4M1IRLFaDxOcQjd7sL+Hf/yRpS4A2wSp/n1LEjF27buaa+qSkc5plI9iaIBfHHr6ZmolXJkBJA+Py2JMwEpYoYdGiBsqJxJQVtUePR5+8r/NpPR1SMGlZa/dsbf3bPU7/Zsmdb4m3a39zvzORDIILG2ImjaubUVDuVeENQVAT1626HnargEgFEBrOHVU2pLNvZ1vH3JStNzg9E4hFEhdKLp04YV1KkMRbXRWg6UwkRGVLGyOTy0trigrc3bl28c88BPgCU4IiC4JenTfQ5NIqESMIZV+ykLicEdNlal6BIUCH0S6NHHjNi2L+Xr9nU3Mrl4EUvAhBCqvy+K2dN9WiqIqkSoiiTd66WUB4uCCuxsKoTIko9tMTj/mTho+y466vLRp0w5ehfXvuj6353cygWHvSUMnD2hYhFbvdXpk8+sXaES1GYZAHdWxUqqgwVeSxn2gMMKonKmUbpmOLCH5xy7JSK0kHntyJiud9728nHTK0o0xhTOSuM+YZ1lQT0NA5tKkhlqNBvuAmgkylzJ4695fgjK3zeQdvsCHDS6JFfnjYx6HRSJB7LURoNaCkfPwBg/hNI6AAAGdhJREFUglaFiqu7ioO6R5HMpShXzZp24ZTxLoUN2ndACTlzfO1Nxxzh0zQC6DVcqZmCgIpgQcNbHSouiwQ9ppOA5LaxdPFTbW27CeJRE2a9/uvnRpQNJ4M9rjhQzsWF9rVHTh9XUkSBuC1HVajQb7iZGKgP2Wmr5eGCwpiPCepWlUumTZo9rFLdfxc0I2TO8MpvHjPLq6lUksKYryJc6DGdJPkznQhFsIDure4q8ZpOJmmJx335zCnDg/6+nbJSAwFcqnLcqJqTamsCTqciWGW4qCjqd9jqAH+ISuIz3CXRgIOrFMmMqorbTzmu0O1K/80+M3Gr6ndPPOqYEcMoElWwskhBwHAPcEEAwGGrRTFfZahIs1k01jV//sObNy/itlldXPn/bvxZdUklJYM5KTggzhHE2qKCG486osDlYkAKdV9xzE/kfp+cIqDXdJZGA27byQg5e8KYL0+buF+0Uyg5ZsSwM8aNZoQqkpVGgl7Tub8pJQhAJBbqvtJIUBWs0O28bs6MmVUVdH+qRTlV5SvTJ50xrlYh1Gc5SyNBlbP9Pa1GAI0rpZFgUPdQJCqlX5s1LeB07McvICqMXjVraoHLxZD6TFd5uMBpq/s/E1QEK40GA7rLtoylS19auvRFwa3Z42Y8dfufBiftBs85BKj0+86dNC7odKiClUULPKYjhaKQ7tdQ5Upx1O+2HA7GJpSVzBpWyQZ2swnixLLSU8eOciqKy1bLwgUaVwYdlIASVa4UxvwuW3NQNnfi2HKvZ4CbrELJzKryMcVFjBC35SiI+ZQBy/u+IBJ9hqs0EmRAiz3uG46aWTQwaYcAHlW97sgZNQUBhqQ46i+IeYkc/L2mggR0j1d3gs2371iya9dKgjiifPg9X7tjZHnN/i704OfhUtXzJ48v9rgJYEnUr9mDv82fz0ZiUczvtDWVkDPG1U6tLEt7sxHR73CcN2msSikTtCQaPJDb3P2bAE5bLYkGmaAapVfNmlricaW9NoJ47MjhZ44fQxHdtqM45h/4LpZ8Jui01cpwIQNa6HKdNraWpYqP6QYl5MjhVTUFQQJYHi5wWdqB3xoEDOpej+WUnC9b9mJr626CePyUo39xzQ89+xn/MUjOIcBFU8dX+r1UkrJIgcozVnKWSCyO+hXBNMbOGj+6xONOvVpeTb3hqJluVaWSlEaCB36bE2dSFPOrUvE7HV+dMSXtvVYpPaK6ghHitpwl0cCgRX5fMEELdA9FMqWi9NSxo9Lu9UfVVJ8yZiQB8BueQezsyYAAwZjHp7tMM/bBgr9GIu0EyTGTjvzbbQ+m/3ICBsM5glhbVDi2pJgiBgy3Zme4xjGRpDQSZJK6VGVyeSozFhHHlhQFnA4qSVWoSBUZLoXhsFWf6SJASryeGVUVKRKzFEpvOX5OoctFJQnonowfJXhMZ0D3EMTjR9U4UpqxToUdO3IYRXRbjoDuzmy4bFzzVjiNRjv/89IvV21ZhohTR03arx8ZDOcowTk1VRRR46rPHICGgYiUEqYQpiClvauz9DuEoD7DRZGcWFszLBjol3aI6Hdop40dRQlxWw4cgL6CSJBSwlh8JulnDuA1nS5LIwhzhldprH9OI2JtUUHcD1cU9Q9kc0dCPpsGQ8rSWjvxm61yRhEvmzGF0aQXe+rYUT6HRiXxGwMgHCISSphCFBUpQ5I+94wJWhwNoJQo7Gdef2zJxmX7W85nvwUDQawuCE4oK6FIAron9Q6ChGj+AmdxuaukgjpczOk22luMzla9tSnaXC9sK1m+FwJ4LGdIjUkKJ48Z8Y8lq/Q+FUYp4qljR3k1jUriNVPqW4hIiLOo3FlY6igoUrwBK9wFUob3bDe62o2OVpm8BhFKLNC9MWZU+n2TK0qX7N7T92AAAU4YVcMIUTlz8pROOERCqKOozD9iLFFUZ1FprKURpAzv3RltrLOjEZn8/hFJvKar1dk1POiv8Pl2tnf0nYbf6Zg1rIoicZsOJaXCg/j/27u6GDmO41zd87Ozs7v3f7wf3umOFEmJFEVbokRZsmXLluBYcWwnSAA/BEgeAuQpCZCXAEle8paHBDaQBDESwHZ+kBhObFmSLVs2LUukJdKkJP4d7468H/J+93Zv9/Z//rur8jAkdbzbmbs9XgTD5vewDzs9MzXd1VXVXV1VXEmaqf4hs29INcxk74CVnSeUtflpp5iTvhcTiqdJJeOnarrVqwV//fW/+Yc//crhBw7FffXdaJnnFM5+65FDCmMaKomYr2KMcZ4ZfrD/yU+pydSdv43OHgBAEZSnxgqXzpKUUb2sIO+127PpteGO9g7TyNU25hlWOB/uaGcM2rykJqP39xljitp77ETnQx/hmnbrFEXvAAC0739Yem5x/L3S5EXCyIBHhbghdVv1Xjx88PJyTqK4+/mgcj7S1aEw3uHFTULGuWKYez/xuWRPH78t2/RMBwC07TskbGvuR98WrkMRriQGkPGTVcMCBQ739SxWqhscNoyxI329KmecWKebjrNIGDf7h/qPP6t3dN1RO+37HwaAttGH3HJh6dRr0rUpwgEYCt26bneahirt3//bP77wtbei3rYZLevWNiOR1hMA0OalYvpX0RODz3x277OfW89wH7xV1bqPPD764peNnj0x79JR1VA1NW1vW2aDemUA7UaiP5PmwFOx3g6zf2j4M1/sPvok1/TNUepKwtjz2MeHn/tCor0rSq0wYp1uhgFonI90dWx8AuNffuwoZ8CIxTv60ntHD3zpD1P9Q1zVNlV841oq8+CX/qD/yU+y6FrkDFiHm2bAjg72aZtsA8bYscF+xli7n4rZGWGM9x47Mfypzyc6ezbbOVxVzZ7+0d/4vfZ9D7PoxYouVV2qGudPDg82Wkxe2CLPMTbS2ZFOaAxYOjCixplx3nP0ibaRA/Gmm9HRPfLC7ygJI8aG0KUKAB8bHd6wWFMU/tzBfQBgCC3GflISyf4nn0v1DcV+E0sNPND70adj9mVCOaoqfKijbcMllXNT1wCg3TdZ9NJBS2UGP/5ZHmERhuCa1nHgaPv+wzGDHTp42g2jN73RkmYAo10dHJgSY1Ay1n30ePcjT3AtenowpqfbB55+XjXjNibbPJMBazMS4edvH63xHGdsb3sbA2YGiailGWM8vXe06+GPxnTcnaZM0XoePRH5YcRCl1GXmdwg50xNO9LXC+EYRI00Y73HTuhtHVtb6Jxn9u7rfuQ4i3DmMGBtXooBG8iktbvt93RCH+3sYMBSvhElbpmi7H32Ra5tLGjZhGLOe4+dUJOpqJZJoTMCjfOPjQyv/58z9tTIEGPAgcXYPErC6HjwyNbrJ8YYV4Y//UUlEen8MKSuIO8ykym9tbpZLfOcrioMQJfaZj11i1qF9zx6gnFlO+lWGGddD30k0dnbtIsZgCF0AJZQ1e5Ucv0lhfOQUzOB2XSkGWPmnsHOQ49GsdEmspXOg4+qRjKqQQI1Buxgb/cGicsYC/+J1O+MZYYPJLv3bGfBDoxpqUzfE5+MkYgaqpyxvsxdRgtnrC+TBgBGLNLZzdjwc1/QUhtFdRQS7V1to4eiZAcjxoBxxoY3yf54tMxzh/t6IIabGEsNjiZ7+rft6mRM4d1HHo/6MIU4AKicH+ztvuu22zToImJsOO848Ai04oTW0m1cT0RSTiG5zYNUNYw8IMQY2/PY0y1Rkh4cUfRIARO+ht/m9TtIauqtcOSI+/R0u9HVu7X+uXMD5z1HT0QJRU5cQ5Ux6DAjJ2rzG1trzZiuKABMxeaplhjjRkd3sysxYFoqEyUklAhbuDedivfGMsYUbbtHOe5gz+Of4LF6J+qButR45EWmma0di+KannngQNTVcM2kcK7eVdeGZYwEAKQCo7mxwSDR2b0tWXsXJZqSaM5SDCDGfo175k5uAoic06F0aRGJ9k69beN6MB49KVPhfBc9XSGMju4ovtJQ3fw6xtijA3FL7zvt7p22O0j5cQdMzCDR9BMYMC2VadkrwVi8EGHARjqbF52Pwm7nK6FmtUK3ggx8GWwrrmf9e5Bot1lunc7eBMkkbZ7XRFdXVnebiK0Q+9V052fzJbGNvEwtggAKDbulW1rjObodTSB5831LIipc+kVLzwQAYVvStaLe2PT/64WixNjC1jsKnwoa9agEqMg2V4qDO/+EV6PRGi1EcbU3V81KGFJxdxMSEgGgaFabMiUBCddpObKRyF7NxrewW5QXrfEcIk2uFgFIRnQxEfq1cmsZDImEY0UdrhdcAsDmUCwkuFWeMsriJ0Lfa43xiPLvnY5yA6xr1eRPV/WRRbmtSAZ+S31CUjSy85FXgQhASAzWueyIoOw4txs0R9CothrE4FXWorwRyDBQRJOJuBVa5DkiXwgCCBTR/FVEXqXoVorb72KUojI7ARHSRXAEoEDK8/N3ldGQt11VNd1uylhEWJ660kp3kFctBXY9ivJQj1ddd1OIUCiUIo0KIsqff2tLVl4Pt5gXTnPBDwB3mHsTHXS7bGfzoXHLRSs7H+PS3XgHYuXGJEbUmCMGCERAN0ulbT4wRGs8J4lurpUBwFciiw2QxOLYu9v8MEKszk5a2YWm7QnI0lwCqHsbJZYbCE9KAHBUv7moI3LXCtkzJ2l7ZfkIafXiGek2j6wmoGKySkBj2Xxw94EAJxC5eoMAJI9gO6La/LRXq2xvHpL0vcXTr6ForrB8RUiOAcrvj19f/79E/MH4FBIRQ1+JVHbZsz8V1nYr5Pr1Sn1+JopsyVBylEhVNzLeuSlaXEMQlWzHFcLnQRTbEWF9YWZt4sLWSgoxaFSLV6MZlN3SrT+/sSDuLssnEX80MQ0AgSJkhFIjwsbynF+vbjkBCHFt8kJjeS6qJTEAIEkocGPwtydEyXIAaNUsRyp6xOW3X5fRsegftJRYvHIO/UhdHHBBABKp4tw1PQgAiaqOhwCeGslz6Purl85EMfS6x1HQqC2++ar0ItMbNHQHgHL1Rv3/l+cA1izbCQQANBJOk3UcAAAQYmniYm1uSrh2pKqS0s4v3fzRtwMrUp1Jho7qScRstb6huLgkur5adIUQTAY8UpJJz5k/+ZKdz0ZKOyIUor4wU7l+JZLhgOq6HZpQZ+c2VspCpIVKlQiIURT3A4BfLeXfP+1VS1HmEREK1ymOnStduxzZBsBTAgCaLq6Fo7CBzmurBSLyuYgcGsLa/HT+3VPCjrShCdGrlfPv/zxo1KL6BBnVdVsSrVTrnmgtprplnnOEePvmPAFYqisiVq8AIFw7e/aN7Ds/kYFPKClMjR6W6EbEwF+buLB0+ocx04gY5VJlAig7bt1rMpMCxJtrZQQqGXWM3p0UjrX45quLP3uVpKAwTPoDSiSKYOXsT5ff+bHfqEWxPjJq6A4BeEJsju+XRKdn5yQSAjX06M9BrMxOzp98yc4tbqQEkaR0CitzP/6fwpXzhDJys4NRLWFLohvFsth05o8IZotlSWhrXqzxIyuzk3M//l87v7SZEhSiMju+8MYrtfnpGNa3NZcAAinfXVxudX+g5fNzEukXc0vPjD7QZSYtzW2XkYdRSYrG8vzsK/+eGX4w2TugpdsAQHquW8xbKwtOaTXevnGVQHAJQBeWsnWvSRIdiXhxOXdoT3egSEtzM36kBwYDv5FbvPHat9pHDxndfVzVCMivVbxysTI7gcEWGXpczfe5sHz/n94+7zc73UkEp2bnPn1wtJpoZLxklO8EiITdmH/jZXPPYHrggWTvIOOcgNxi3sovWSsLMUdHAQAZrppVAnKFuJzNbe47JBpbyb/oHOhOpQrJ6kCjK4oSQunXK8unf2h07TH7hpK9/aF/ws4v2YUVa2UhittugVHZqBPQlZV8rtbQtNbSE+4kgAAJLyxlP3NwfyVhJYSejDs0RsJxKjPjldmJ27saoYyJ238CAGJka64kXKnVT83OYbMuQKKxldyR/t5jA30N3TGDRORgAwCRVy0VrpxbV3AunNlbzFLJsZisItD06lqjGesDABFdXF752OiQovOVdGlvvTvuUDiRvZp1CrkPXKNEtI0SGQGXruoDwDfPXbT9SIPsa++8+xfPP8sV5qheOojzhArXsVYWrdzSOkpwO0NTNhqCoROIdxeWJWKr4TA78UMg0tm5RSElApWNeowRExIZ6g6SgqQgKWNO5N66Aahk1Ou6LQnfmpmLyV+CSG/fmHeCwFOCglndYjeOmlESewsxWjNqkiiQ8ifXZ2WUAQRQtOzvXZkMpBRcVo3IbY51lMgPKEG5JcP5iiiaNQScXSut1OoxKV2cQIyvrErCstFwVC/+uaGBsY6SrVnfU4K6ZhPQufnFpUptBxvvO+E5Amh4/n++d9nyfU8JimY1xpzawcMdzbc0N0C8spy/mluN6V8CWKrUxnOrAUpX9SsJaxeTtyHDklG3NNdH+a33x0qOE7OhSkTXVgsT+YIkrCQsTw120clEjCqJhseDquu9OX1TxCo+gfjzG/MFyxJcriVr0TvVO4GviGKyKhgulKs/nbqxs+xVO/e3ThdL7y9mBaKtehWjEbVQagkEZGtuIVkVIBfK1e+NTW75VUj06tXrZ+YWJWHVaNhai76HaErKRqOuOwLxnRvz08W1LXfwA4mvTUy5QiBgzixLZXdK0hJQzixbmiukfGXs2nRhbcu8Vdla/buXJ5wgCLjMpcpbKaLtQnJcNSs+F0LiK1evCdxhlrKd8xwRvX5t5u0b85KoqluFZDVmGbutBzKqJexwapYc56UrE00N9s3wpfzZ9I2FSpUAVs1K1bhXaYeMSsl66OG4WSq/MX0zkNsatorjfuWtM0XLlgyX0kVLd+6RkoCLlXTJVX2B+ObM3GS+sK1tZaKFcvX749d9KX0lyKVKoSF4L3BVP5teC7hwAvH1X1xYqtR2nLLtns6VIOLJqdlz80uSyNLcXKos+A4nt2RYSVihcbpUrf3LmfeKVgunFZxAfOPchRtrZSSqJKz8Tic3AQguFzOFmm4LxIJl/ce7l+J12QY0PP/1yZmG5yFhMVmrGI0dUsLIV0Q+VfGUQCC+fm3mrZmb2x9mJLq4vPKdy+O+lL4iCmbV0ryd6SJk1NDdXKosmLR8/+Wxyc1hji3hngLfCUAg/mD8+lKl9tuPPkwcsum1pEi0e6a27ZQFyKimW5bmBUogCK+tFr9/9XrN9VqaRkTkCflv5y8+f2j/M/uGSaV8qpwKjIxvbrO0DAEJjtVEw9F8ZCgQT83OnZqZ82VrmQ+RaDy3ulKrv3Bo/7HB/mrCtjQv4yczvrnN037EyFH8esJ2VV8ClW3n5NTsWDbfEusDgES6ks0LxBcOPTiQSRfMiiG0jG+aIrHNvBbEyFWCslH3FYGAoRG/eA8SLsS9JlsgAkH4/lK26rq/efhgXyYtNXQV3wwSKWGoqCh0p6DRne8kYEBAAZeBIqq6HSiBJGp4/lRh7XtXJoXcibAkIleIk1OzBct64dCDmQT5RlDX7U43E5Jxm5IN3U2SYaAIVwlqhiWBJGKxYV9azp2enZM7MlmQqGjZL41NWn5wYmRIV7BsSE8JDKEbUleR3x7y9ZQQMBBMSo5V3XY0DwF9iSvV2s9mbk6vrkUtmbekZDxXqDju548c2tvehiq5amAIrd1Lq8gVUtjGoQEAIgaSSU8NHMWzdA8JhcTxXCG0du497/PuJPggounC2tdr9cN9vV985CGpYJAQ9YSjIFeIG0LfEBXS0B1iJJiUDIkAkcZzqyevzxYt+x4/yRfyvYXszbXys/tHnxgelIzyZpkTV4irxFOb9o0tzZVcBlyGx9FCsT2RL9Ra9CE2peSHk1NjK/nfPfZIdypZV52G5qrEFeKaVA1xVxATAVm6KzlKJiWFlMhvnr+4XKm16lnaACJaqtS+ce5ib9r8o6ceN3XNUtFRfYW4Qkoy2Dg0ruqHLmzBMNxcqjjud69MzJXKu5LZGHaL50I0PP+9xeWpQvHxvYNH+nsH2jK6ogiQXsQxBwRartRytcb5heXNUek7BhIVGvbLY5PnF5aeGhkayGSGOtqIkwDpJptTIhCXKrX5cuXU7FzUxu8OIJHmSpWvnjpzbLBvuKP96MCezmRSMvS5sLTIAyzXV4v5hnVubnHNdnaLkkDKlWr9q6fOHh8e3NfVsa+7M6lqkqGfaN4hBFBz3Zliabqwdjmb2y1uC9Eaz2mqljJMLTrQHACIwYWV4qXcmsL50yNDJ0aGVM4ZYxrnjIGQGKqJqyv5y9l8tlpHIiRKGU3C/e8RNZ/emFnijGkKf3p0+KmRIbiV5JoTgC8kABDROzcXzi+EGauBK3om2Vq05nZws2LNVex35nOphPblx452myYAqJwrnEmkUIMvVWpTq8VL2VyYOxtB3XldvygwuLSydiVXUhj7yGD/gd6u0a5OAFA4U7kiCSUSEVUd97WJqeVaPZRzppGKX3wnWizN1RrPnXj4+H/95b9ucyeQ3S7eGBZw6koaCucFyw5N8seJEGmXi0JEU6LciUJlrDdlIlCxYQMAER1/hnBrH9jugDOm3C6pmdL1lK7VXC9M/3OcQjKIoOWTt62CfVBXkzEAXVE6TMP2g1DGI9GnPr357HsklBaTP7fGc53pjs50awFaG9DTcy937yb2/HJQ8stBxYeKLfbndnDa/T5+nREeEYtvswXPIVG5cU8bgPfxa4VABn/37X+Mb7OFbnU858+/9lf//Gd/nzF32569j185SMTz197/7ze/E9+MVRu1E3/yfC06hZiqqL3t3QPd/btN4X38qoGIJhemvMCLWX0ktMTWawghxUopv1LK7yp59/Hri93OHXEf97EV7vPcfXzYuM9z9/Fh4z7P3ceHjf8DNAKQm4mZicIAAAAASUVORK5CYII=;rotation=90;" vertex="1" parent="N0k8etCBdQL0E9vIkSx8-27">
          <mxGeometry width="144.82" height="167" as="geometry" />
        </mxCell>
        <mxCell id="N0k8etCBdQL0E9vIkSx8-22" value="" style="ellipse;whiteSpace=wrap;html=1;aspect=fixed;rotation=90;" vertex="1" parent="N0k8etCBdQL0E9vIkSx8-27">
          <mxGeometry x="65" y="39" width="80" height="80" as="geometry" />
        </mxCell>
        <mxCell id="N0k8etCBdQL0E9vIkSx8-23" value="" style="ellipse;whiteSpace=wrap;html=1;aspect=fixed;fillColor=none;strokeColor=#d6b656;strokeWidth=3;rotation=180;flipH=0;" vertex="1" parent="N0k8etCBdQL0E9vIkSx8-27">
          <mxGeometry x="-4" y="21" width="30" height="30" as="geometry" />
        </mxCell>
        <mxCell id="N0k8etCBdQL0E9vIkSx8-24" value="" style="ellipse;whiteSpace=wrap;html=1;aspect=fixed;fillColor=none;strokeColor=#d6b656;strokeWidth=3;rotation=180;flipH=0;" vertex="1" parent="N0k8etCBdQL0E9vIkSx8-27">
          <mxGeometry x="-4" y="53" width="30" height="30" as="geometry" />
        </mxCell>
        <mxCell id="N0k8etCBdQL0E9vIkSx8-25" value="" style="ellipse;whiteSpace=wrap;html=1;aspect=fixed;fillColor=none;strokeColor=#d6b656;strokeWidth=3;rotation=180;flipH=0;" vertex="1" parent="N0k8etCBdQL0E9vIkSx8-27">
          <mxGeometry x="-4" y="85" width="30" height="30" as="geometry" />
        </mxCell>
        <mxCell id="N0k8etCBdQL0E9vIkSx8-26" value="" style="ellipse;whiteSpace=wrap;html=1;aspect=fixed;fillColor=none;strokeColor=#d6b656;strokeWidth=3;rotation=180;flipH=0;" vertex="1" parent="N0k8etCBdQL0E9vIkSx8-27">
          <mxGeometry x="-4" y="116" width="30" height="30" as="geometry" />
        </mxCell>
      </root>
    </mxGraphModel>
  </diagram>
</mxfile>
